<?xml version="1.0" encoding="UTF-8"?>
<svg width="17px" height="23px" viewBox="0 0 17 23" version="1.1" xmlns="http://www.w3.org/2000/svg" xmlns:xlink="http://www.w3.org/1999/xlink">
    <!-- Generator: Sketch 51.3 (57544) - http://www.bohemiancoding.com/sketch -->
    <title>icon_devis</title>
    <desc>Created with Sketch.</desc>
    <defs></defs>
    <g id="Design" stroke="none" stroke-width="1" fill="none" fill-rule="evenodd">
        <g id="pack_preview_desktop" transform="translate(-384.000000, -122.000000)" fill="#00A8C1" fill-rule="nonzero">
            <g id="Steps" transform="translate(337.000000, 94.000000)">
                <g id="Group-2-Copy" transform="translate(32.000000, 22.000000)">
                    <g id="icon_devis" transform="translate(16.000000, 7.000000)">
                        <path d="M12.4892857,0.814285714 C11.9642857,0.289285714 11.8642857,0.239285714 11.7107143,0.239285714 L11.3857143,0.242857143 L1.01785714,0.242857143 C0.467857143,0.242857143 0.0214285714,0.689285714 0.0214285714,1.23571429 L0.0214285714,20.1928571 C0.0214285714,20.7428571 0.467857143,21.1892857 1.01785714,21.1892857 L13.9821429,21.1892857 C14.5321429,21.1892857 14.9785714,20.7428571 14.9785714,20.1928571 L14.9785714,3.575 C14.9785714,3.40357143 14.9785714,3.25714286 12.4892857,0.814285714 Z M12.0642857,1.39642857 C12.725,2.04642857 13.4214286,2.75 13.8607143,3.21785714 L12.4892857,3.21785714 C12.2535714,3.21785714 12.0642857,3.025 12.0642857,2.78928571 L12.0642857,1.39642857 Z M14.2642857,20.1928571 C14.2642857,20.3464286 14.1357143,20.475 13.9821429,20.475 L1.01785714,20.475 C0.864285714,20.475 0.735714286,20.3464286 0.735714286,20.1928571 L0.735714286,1.23571429 C0.735714286,1.08214286 0.864285714,0.957142857 1.01785714,0.957142857 L11.35,0.957142857 L11.35,2.78928571 C11.35,3.41785714 11.8607143,3.93214286 12.4892857,3.93214286 L14.2642857,3.93214286 L14.2642857,20.1928571 Z" id="Shape" stroke="#00A8C1" stroke-width="0.5"></path>
                        <path d="M12.3035714,8.64642857 C12.3035714,8.84285714 12.1428571,9.00357143 11.9464286,9.00357143 L3.05357143,9.00357143 C2.85714286,9.00357143 2.69642857,8.84285714 2.69642857,8.64642857 C2.69642857,8.45 2.85714286,8.28928571 3.05357143,8.28928571 L11.9464286,8.28928571 C12.1428571,8.28928571 12.3035714,8.45 12.3035714,8.64642857 Z" id="Shape"></path>
                        <path d="M12.3035714,10.7142857 C12.3035714,10.9142857 12.1428571,11.0714286 11.9464286,11.0714286 L3.05357143,11.0714286 C2.85714286,11.0714286 2.69642857,10.9142857 2.69642857,10.7142857 C2.69642857,10.5178571 2.85714286,10.3571429 3.05357143,10.3571429 L11.9464286,10.3571429 C12.1428571,10.3571429 12.3035714,10.5178571 12.3035714,10.7142857 Z" id="Shape"></path>
                        <path d="M10.7142857,12.7821429 C10.7142857,12.9821429 10.5535714,13.1392857 10.3571429,13.1392857 L4.64285714,13.1392857 C4.44642857,13.1392857 4.28571429,12.9821429 4.28571429,12.7821429 C4.28571429,12.5857143 4.44642857,12.425 4.64285714,12.425 L10.3571429,12.425 C10.5535714,12.425 10.7142857,12.5857143 10.7142857,12.7821429 Z" id="Shape"></path>
                    </g>
                </g>
            </g>
        </g>
    </g>
</svg>