<?xml version="1.0" encoding="UTF-8"?>
<svg width="18px" height="22px" viewBox="0 0 18 22" version="1.1" xmlns="http://www.w3.org/2000/svg" xmlns:xlink="http://www.w3.org/1999/xlink">
    <!-- Generator: Sketch 51.3 (57544) - http://www.bohemiancoding.com/sketch -->
    <title>icon_location</title>
    <desc>Created with Sketch.</desc>
    <defs></defs>
    <g id="Design" stroke="none" stroke-width="1" fill="none" fill-rule="evenodd">
        <g id="pack_preview_desktop" transform="translate(-847.000000, -121.000000)" fill-rule="nonzero" stroke="#32322C">
            <g id="Steps" transform="translate(337.000000, 94.000000)">
                <g id="Group-7" transform="translate(495.000000, 22.000000)">
                    <g id="icon_location" transform="translate(16.000000, 6.000000)">
                        <path d="M8,0 C8,0 8,0 8,0 C8,0 8,0 8,0 C3.8,0 0,3.1 0,8 C0,11.7 3.5,17.5 7.5,19.9 C7.7,20 7.8,20 8,20 C8.2,20 8.3,20 8.5,19.9 C12.5,17.6 16,11.8 16,8 C16,3.1 12.2,0 8,0 Z" id="Shape"></path>
                        <circle id="Oval" cx="8" cy="8" r="3"></circle>
                    </g>
                </g>
            </g>
        </g>
    </g>
</svg>