<?xml version="1.0" encoding="UTF-8"?>
<svg width="20px" height="20px" viewBox="0 0 20 20" version="1.1" xmlns="http://www.w3.org/2000/svg" xmlns:xlink="http://www.w3.org/1999/xlink">
    <!-- Generator: Sketch 51.3 (57544) - http://www.bohemiancoding.com/sketch -->
    <title>icon_cart</title>
    <desc>Created with Sketch.</desc>
    <defs></defs>
    <g id="Design" stroke="none" stroke-width="1" fill="none" fill-rule="evenodd">
        <g id="pack_preview_desktop" transform="translate(-533.000000, -124.000000)" fill="#32322C">
            <g id="Steps" transform="translate(337.000000, 94.000000)">
                <g id="Group-2" transform="translate(180.000000, 22.000000)">
                    <path d="M29.75,24.25 C30.44,24.25 31,24.81 31,25.5 C31,26.19 30.44,26.75 29.75,26.75 C29.06,26.75 28.5,26.19 28.5,25.5 C28.5,24.81 29.06,24.25 29.75,24.25 L29.75,24.25 Z M27.25,25.5 C27.25,26.880625 28.369375,28 29.75,28 C31.130625,28 32.25,26.880625 32.25,25.5 C32.25,24.119375 31.130625,23 29.75,23 C28.369375,23 27.25,24.119375 27.25,25.5 L27.25,25.5 Z M19.75,11.75 L34.75,11.75 L33.151875,18.143125 L19.75,19.25 L19.75,11.75 L19.75,11.75 Z M21,21.75 C20.31,21.75 19.75,21.19 19.75,20.5 L34.125,19.25 C34.125,19.25 36,11.671875 36,11.125 C36,10.779375 35.720625,10.5 35.375,10.5 L19.75,10.5 L19.75,9.25 L20.375,9.25 C20.720625,9.25 21,8.970625 21,8.625 C21,8.28 20.720625,8 20.375,8 L16.625,8 C16.279375,8 16,8.28 16,8.625 C16,8.970625 16.279375,9.25 16.625,9.25 L18.5,9.25 L18.5,20.5 C18.5,21.880625 19.619375,23 21,23 L35.375,23 C35.394375,23 35.375,22.380625 35.375,21.75 L21,21.75 L21,21.75 Z M22.25,24.25 C22.94,24.25 23.5,24.81 23.5,25.5 C23.5,26.19 22.94,26.75 22.25,26.75 C21.56,26.75 21,26.19 21,25.5 C21,24.81 21.56,24.25 22.25,24.25 L22.25,24.25 Z M19.75,25.5 C19.75,26.880625 20.869375,28 22.25,28 C23.630625,28 24.75,26.880625 24.75,25.5 C24.75,24.119375 23.630625,23 22.25,23 C20.869375,23 19.75,24.119375 19.75,25.5 L19.75,25.5 Z" id="icon_cart"></path>
                </g>
            </g>
        </g>
    </g>
</svg>