<?xml version="1.0" encoding="UTF-8"?>
<svg width="18px" height="18px" viewBox="0 0 18 18" version="1.1" xmlns="http://www.w3.org/2000/svg" xmlns:xlink="http://www.w3.org/1999/xlink">
    <!-- Generator: Sketch 51.3 (57544) - http://www.bohemiancoding.com/sketch -->
    <title>icon_calendar</title>
    <desc>Created with Sketch.</desc>
    <defs></defs>
    <g id="Design" stroke="none" stroke-width="1" fill="none" fill-rule="evenodd">
        <g id="pack_preview_desktop" transform="translate(-692.000000, -124.000000)" fill="#32322C" fill-rule="nonzero">
            <g id="Steps" transform="translate(337.000000, 94.000000)">
                <g id="Group-6" transform="translate(339.000000, 22.000000)">
                    <path d="M31.499679,9.50037035 L29.9993087,9.50037035 L29.9993087,8 L28.9993581,8 L28.9993581,9.50037035 L20.9997531,9.50037035 L20.9997531,8 L19.9998025,8 L19.9998025,9.50037035 L18.500321,9.50037035 C17.1217224,9.50037035 16,10.6220927 16,12.0006913 L16,23.5005679 C16,24.8791665 17.1217224,26.0008888 18.500321,26.0008888 L31.499679,26.0008888 C32.8782776,26.0008888 34,24.8791665 34,23.5005679 L34,14.5001235 L34,13.5001728 L34,11.9998025 C33.9991112,10.6212039 32.8773888,9.50037035 31.499679,9.50037035 Z M32.9991605,23.499679 C32.9991605,24.3263049 32.3263049,24.9991605 31.499679,24.9991605 L18.500321,24.9991605 C17.6728063,24.9991605 16.9999506,24.3263049 16.9999506,23.499679 L16.9999506,14.5001235 L32.9991605,14.5001235 L32.9991605,23.499679 Z M32.9991605,13.5001728 L16.9999506,13.5001728 L16.9999506,11.9998025 C16.9999506,11.1722878 17.6728063,10.4994321 18.500321,10.4994321 L20.0006913,10.4994321 L20.0006913,11.4993827 L20.9997531,11.4993827 L20.9997531,10.500321 L28.9993581,10.500321 L28.9993581,11.5002716 L29.9993087,11.5002716 L29.9993087,10.500321 L31.499679,10.500321 C32.3263049,10.500321 32.9991605,11.1722878 32.9991605,11.9998025 L32.9991605,13.5001728 Z" id="icon_calendar"></path>
                </g>
            </g>
        </g>
    </g>
</svg>