<?xml version="1.0" encoding="UTF-8"?>
<svg width="86px" height="57px" viewBox="0 0 86 57" version="1.1" xmlns="http://www.w3.org/2000/svg" xmlns:xlink="http://www.w3.org/1999/xlink">
    <!-- Generator: Sketch 51.2 (57519) - http://www.bohemiancoding.com/sketch -->
    <title>share (3)</title>
    <desc>Created with Sketch.</desc>
    <defs></defs>
    <g id="Sketchs" stroke="none" stroke-width="1" fill="none" fill-rule="evenodd">
        <g id="topOffer_desktop" transform="translate(-542.000000, -341.000000)" fill="#8CD790" fill-rule="nonzero">
            <g id="share-(3)" transform="translate(586.315560, 371.315560) rotate(-345.000000) translate(-586.315560, -371.315560) translate(549.315560, 334.315560)">
                <path d="M73.0120556,18.6521348 L73.0143593,18.6498311 C73.016663,18.6463755 73.0189667,18.6429199 73.0212705,18.6383124 C73.2193911,18.4136989 73.364526,18.1430109 73.4808642,17.8573486 C73.5177239,17.7698069 73.541913,17.6868727 73.5684059,17.5981792 C73.635214,17.3781731 73.6766811,17.150104 73.6905035,16.9116682 C73.6974147,16.8241265 73.711237,16.7411923 73.7089333,16.6513469 C73.7089333,16.6052723 73.720452,16.5638052 73.7181482,16.5188825 C73.7020221,16.243587 73.6467327,15.9775064 73.5614947,15.7275519 C73.5545835,15.7010591 73.5361537,15.6803255 73.5269388,15.6538326 C73.4255748,15.3785371 73.2804399,15.1343419 73.1088121,14.9108803 C73.084623,14.87978 73.0765599,14.8383129 73.0512189,14.8072125 L61.1743486,0.816671621 C60.2655278,-0.254561958 58.7738639,-0.275295511 57.840854,0.774052651 C56.9101478,1.82224895 56.8928698,3.54083013 57.8039943,4.61436744 L64.2060548,12.1579252 C54.8517667,10.9185195 45.6564359,12.8870551 45.2221831,12.9838117 C16.8333414,18.1291885 -3.25631971,44.3456146 0.437708344,71.4247869 C0.62085473,72.7655566 1.6218246,73.7193001 2.76332189,73.7193001 C2.88541948,73.7193001 3.00751707,73.7089333 3.13191839,73.6881998 C4.41739869,73.4543714 5.2951191,72.0652233 5.09469475,70.5827742 C1.80381912,46.4627407 20.133432,23.031522 46.028488,18.336524 C46.14713,18.3088793 55.6477048,16.2700799 64.5930811,17.6753541 L54.713543,23.5417977 C53.5559197,24.2306124 53.1032371,25.8685631 53.6987508,27.2012699 C54.2931127,28.5362803 55.7122092,29.0534673 56.8732882,28.3727156 L72.4464903,19.1255509 C72.6572814,18.997694 72.8461871,18.8375849 73.0120556,18.6521348 Z" id="Shape"></path>
            </g>
        </g>
    </g>
</svg>