<?xml version="1.0" encoding="UTF-8"?>
<svg width="23px" height="17px" viewBox="0 0 23 17" version="1.1" xmlns="http://www.w3.org/2000/svg" xmlns:xlink="http://www.w3.org/1999/xlink">
    <!-- Generator: Sketch 51.3 (57544) - http://www.bohemiancoding.com/sketch -->
    <title>icon_payment</title>
    <desc>Created with Sketch.</desc>
    <defs></defs>
    <g id="Design" stroke="none" stroke-width="1" fill="none" fill-rule="evenodd">
        <g id="pack_preview_desktop" transform="translate(-981.000000, -125.000000)" fill="#32322C" fill-rule="nonzero">
            <g id="Steps" transform="translate(337.000000, 94.000000)">
                <g id="Group-8" transform="translate(628.000000, 22.000000)">
                    <g id="icon_payment" transform="translate(16.000000, 9.000000)">
                        <path d="M21.8915663,0 L1.10843373,0 C0.498795181,0 0,0.498795181 0,1.10843373 L0,15.2409639 C0,15.8506024 0.498795181,16.3493976 1.10843373,16.3493976 L21.8915663,16.3493976 C22.5012048,16.3493976 23,15.8506024 23,15.2409639 L23,1.10843373 C23,0.498795181 22.5012048,0 21.8915663,0 Z M0.831325301,3.3253012 L22.1686747,3.3253012 L22.1686747,5.81927711 L0.831325301,5.81927711 L0.831325301,3.3253012 Z M1.10843373,0.831325301 L21.8915663,0.831325301 C22.041759,0.831325301 22.1686747,0.958240964 22.1686747,1.10843373 L22.1686747,2.4939759 L0.831325301,2.4939759 L0.831325301,1.10843373 C0.831325301,0.958240964 0.958240964,0.831325301 1.10843373,0.831325301 Z M21.8915663,15.5180723 L1.10843373,15.5180723 C0.958240964,15.5180723 0.831325301,15.3911566 0.831325301,15.2409639 L0.831325301,6.65060241 L22.1686747,6.65060241 L22.1686747,15.2409639 C22.1686747,15.3911566 22.041759,15.5180723 21.8915663,15.5180723 Z" id="Shape"></path>
                        <path d="M18.6807229,10 C18.0314578,10 17.443988,10.2626988 17.0180723,10.6872289 C16.5918795,10.2626988 16.0044096,10 15.3554217,10 C14.0543976,10 13,11.0546747 13,12.3554217 C13,13.6558916 14.0543976,14.7108434 15.3554217,14.7108434 C16.0044096,14.7108434 16.5918795,14.4481446 17.0180723,14.0236145 C17.443988,14.4481446 18.0314578,14.7108434 18.6807229,14.7108434 C19.9811928,14.7108434 21.0361446,13.6558916 21.0361446,12.3554217 C21.0361446,11.0546747 19.9811928,10 18.6807229,10 Z M18.6807229,13.8795181 C18.274759,13.8795181 17.8926265,13.7215663 17.604988,13.434759 C17.4426024,13.2732048 17.2303373,13.1922892 17.0180723,13.1922892 C16.8058072,13.1922892 16.5935422,13.2732048 16.4314337,13.434759 C16.1435181,13.7215663 15.7611084,13.8795181 15.3554217,13.8795181 C14.5149518,13.8795181 13.8313253,13.1958916 13.8313253,12.3554217 C13.8313253,11.5149518 14.5149518,10.8313253 15.3554217,10.8313253 C15.7611084,10.8313253 16.1435181,10.9892771 16.4314337,11.2760843 C16.5935422,11.4379157 16.8060843,11.5185542 17.0180723,11.5185542 C17.2306145,11.5185542 17.4426024,11.4376386 17.604988,11.2760843 C17.8926265,10.9892771 18.274759,10.8313253 18.6807229,10.8313253 C19.5211928,10.8313253 20.2048193,11.5149518 20.2048193,12.3554217 C20.2048193,13.1958916 19.5211928,13.8795181 18.6807229,13.8795181 Z" id="Shape"></path>
                        <path d="M9.06626506,11 L2.41566265,11 C2.18621687,11 2,11.1862169 2,11.4156627 C2,11.6451084 2.18621687,11.8313253 2.41566265,11.8313253 L9.06626506,11.8313253 C9.29571084,11.8313253 9.48192771,11.6451084 9.48192771,11.4156627 C9.48192771,11.1862169 9.29571084,11 9.06626506,11 Z" id="Shape"></path>
                        <path d="M5.46440964,13 L2.41566265,13 C2.18621687,13 2,13.1862169 2,13.4156627 C2,13.6451084 2.18621687,13.8313253 2.41566265,13.8313253 L5.46440964,13.8313253 C5.69385542,13.8313253 5.88007229,13.6451084 5.88007229,13.4156627 C5.88007229,13.1862169 5.69385542,13 5.46440964,13 Z" id="Shape"></path>
                    </g>
                </g>
            </g>
        </g>
    </g>
</svg>