<?xml version="1.0" encoding="utf-8"?>
<!-- Generator: Adobe Illustrator 21.0.0, SVG Export Plug-In . SVG Version: 6.00 Build 0)  -->
<svg version="1.1" id="Calque_1" xmlns="http://www.w3.org/2000/svg" xmlns:xlink="http://www.w3.org/1999/xlink" x="0px" y="0px"
	 viewBox="0 0 124 124" style="enable-background:new 0 0 124 124;" xml:space="preserve">
<style type="text/css">
	.st0{fill:none;stroke:#404C55;stroke-width:0.5;stroke-miterlimit:10;}
	.st1{fill:none;stroke:#404C55;stroke-miterlimit:10;}
</style>
<title>carrelage décalée diagonal 1</title>
<line class="st0" x1="56.4" y1="18.4" x2="21.4" y2="53.6"/>
<path class="st0" d="M69.6,18.6"/>
<polyline class="st0" points="24,50.9 39.8,67 79.2,28 "/>
<line class="st0" x1="39.6" y1="35.3" x2="55.5" y2="51.1"/>
<line class="st0" x1="54.5" y1="18.4" x2="71.6" y2="35.5"/>
<line class="st0" x1="40.8" y1="97.4" x2="100.1" y2="38.3"/>
<line class="st0" x1="21.2" y1="82.6" x2="36.5" y2="97.6"/>
<line class="st0" x1="88.8" y1="18.6" x2="21.3" y2="85.4"/>
<line class="st0" x1="39.7" y1="67.1" x2="55.5" y2="82.9"/>
<line class="st0" x1="55.6" y1="51.2" x2="71.5" y2="67"/>
<line class="st0" x1="71.7" y1="35.4" x2="99.9" y2="63.5"/>
<line class="st0" x1="85.2" y1="18.3" x2="100.7" y2="33.7"/>
<path class="st0" d="M86.4,115.6"/>
<path class="st0" d="M70.6,99.8"/>
<line class="st0" x1="87.3" y1="83" x2="100.8" y2="96.5"/>
<line class="st0" x1="21.3" y1="53.5" x2="56" y2="18.8"/>
<line class="st0" x1="24.7" y1="18.5" x2="21.3" y2="22.1"/>
<line class="st0" x1="21.3" y1="48.2" x2="24" y2="50.9"/>
<line class="st0" x1="23.9" y1="19.4" x2="39.7" y2="35.2"/>
<line class="st0" x1="72.5" y1="97.5" x2="100.4" y2="70"/>
<line class="st0" x1="55.6" y1="83" x2="70.2" y2="97.5"/>
<line class="st0" x1="71.7" y1="67" x2="87.5" y2="82.8"/>
<rect x="21.3" y="18.6" class="st1" width="79" height="78.9"/>
</svg>
