<?xml version="1.0" encoding="utf-8"?>
<!-- Generator: Adobe Illustrator 21.0.0, SVG Export Plug-In . SVG Version: 6.00 Build 0)  -->
<svg version="1.1" id="Calque_1" xmlns="http://www.w3.org/2000/svg" xmlns:xlink="http://www.w3.org/1999/xlink" x="0px" y="0px"
	 viewBox="0 0 124 124" style="enable-background:new 0 0 124 124;" xml:space="preserve">
<style type="text/css">
	.st0{fill:none;stroke:#404C55;stroke-width:0.5;stroke-miterlimit:10;}
	.st1{fill:none;stroke:#404C55;stroke-miterlimit:10;}
</style>
<title>carrelage décalée 1</title>
<g id="Calque_1_1_">
	<polygon class="st0" points="96.2,39.7 28.6,39.7 28.5,62.7 96,62.7 	"/>
	<line class="st0" x1="51.3" y1="39.7" x2="51.3" y2="62.7"/>
	<line class="st0" x1="73.4" y1="39.8" x2="73.4" y2="62.5"/>
	<line class="st0" x1="39.4" y1="62.7" x2="39.4" y2="84.6"/>
	<line class="st0" x1="63.3" y1="62.7" x2="63.3" y2="84.7"/>
	<line class="st0" x1="85.9" y1="62.4" x2="85.9" y2="84.8"/>
	<line class="st0" x1="85.9" y1="22.6" x2="85.9" y2="39.7"/>
	<line class="st0" x1="39.4" y1="22.5" x2="39.4" y2="39.7"/>
	<line class="st0" x1="63.3" y1="22.6" x2="63.3" y2="39.8"/>
	<line class="st0" x1="51.3" y1="84.8" x2="51.3" y2="101.4"/>
	<line class="st0" x1="28.5" y1="84.8" x2="28.5" y2="101.4"/>
	<line class="st0" x1="73.4" y1="84.8" x2="73.4" y2="101.5"/>
	<rect x="22.1" y="22.6" class="st1" width="79" height="78.9"/>
	<line class="st0" x1="85.9" y1="39.7" x2="101.1" y2="39.7"/>
	<line class="st0" x1="96.1" y1="84.7" x2="96.1" y2="101.4"/>
	<line class="st0" x1="22.1" y1="39.8" x2="101.1" y2="39.8"/>
</g>
<g id="Calque_2">
	<line class="st0" x1="22.1" y1="62.7" x2="101.1" y2="62.7"/>
	<line class="st0" x1="22.1" y1="84.7" x2="101.1" y2="84.7"/>
</g>
</svg>
