<?xml version="1.0" encoding="utf-8"?>
<!-- Generator: Adobe Illustrator 21.0.0, SVG Export Plug-In . SVG Version: 6.00 Build 0)  -->
<svg version="1.1" id="Calque_1" xmlns="http://www.w3.org/2000/svg" xmlns:xlink="http://www.w3.org/1999/xlink" x="0px" y="0px"
	 viewBox="0 0 124 124" style="enable-background:new 0 0 124 124;" xml:space="preserve">
<style type="text/css">
	.st0{fill:none;stroke:#404C55;stroke-width:0.5;stroke-miterlimit:10;}
	.st1{fill:#404C55;}
	.st2{fill:none;stroke:#404C55;stroke-miterlimit:10;}
</style>
<title>carre pose cabochon</title>
<line class="st0" x1="31.2" y1="18.6" x2="31.2" y2="97.4"/>
<line class="st0" x1="46" y1="18.6" x2="46" y2="97.4"/>
<line class="st0" x1="60.2" y1="18.6" x2="60.2" y2="97.4"/>
<line class="st0" x1="74.8" y1="18.6" x2="74.8" y2="97.4"/>
<line class="st0" x1="89.2" y1="18.6" x2="89.2" y2="97.4"/>
<line class="st0" x1="21.3" y1="87.1" x2="100.3" y2="87.1"/>
<line class="st0" x1="21.3" y1="72.2" x2="100.3" y2="72.2"/>
<line class="st0" x1="21.3" y1="58" x2="100.1" y2="58"/>
<line class="st0" x1="21.3" y1="43.4" x2="100.3" y2="43.4"/>
<line class="st0" x1="21.3" y1="29" x2="100.3" y2="29"/>
<rect x="29" y="26.9" transform="matrix(0.7071 -0.7071 0.7071 0.7071 -11.4112 30.5328)" class="st1" width="4.2" height="4.2"/>
<rect x="43.9" y="26.9" transform="matrix(0.7071 -0.7071 0.7071 0.7071 -7.0541 41.0365)" class="st1" width="4.2" height="4.2"/>
<rect x="58.1" y="26.9" transform="matrix(0.707 -0.7072 0.7072 0.707 -2.8778 51.1146)" class="st1" width="4.2" height="4.2"/>
<rect x="72.7" y="26.9" transform="matrix(0.7071 -0.7071 0.7071 0.7071 1.3647 61.3943)" class="st1" width="4.2" height="4.2"/>
<rect x="87.1" y="26.9" transform="matrix(0.7071 -0.7071 0.7071 0.7071 5.5917 71.5806)" class="st1" width="4.2" height="4.2"/>
<rect x="87.1" y="41.3" transform="matrix(0.7071 -0.7071 0.7071 0.7071 -4.5974 75.8006)" class="st1" width="4.2" height="4.2"/>
<rect x="72.7" y="41.3" transform="matrix(0.7071 -0.7071 0.7071 0.7071 -8.8174 65.6114)" class="st1" width="4.2" height="4.2"/>
<rect x="58.1" y="41.3" transform="matrix(0.7071 -0.7071 0.7071 0.7071 -13.0774 55.3295)" class="st1" width="4.2" height="4.2"/>
<rect x="43.9" y="41.3" transform="matrix(0.7071 -0.7071 0.7071 0.7071 -17.2333 45.2606)" class="st1" width="4.2" height="4.2"/>
<rect x="29.1" y="41.3" transform="matrix(0.7071 -0.7071 0.7071 0.7071 -21.5974 34.7599)" class="st1" width="4.2" height="4.2"/>
<rect x="29.1" y="55.6" transform="matrix(0.7071 -0.7071 0.7071 0.7071 -31.658 38.9792)" class="st1" width="4.2" height="4.2"/>
<rect x="44" y="55.6" transform="matrix(0.7071 -0.7071 0.7071 0.7071 -27.308 49.4799)" class="st1" width="4.2" height="4.2"/>
<rect x="58.2" y="55.6" transform="matrix(0.7071 -0.7071 0.7071 0.7071 -23.1451 59.5459)" class="st1" width="4.2" height="4.2"/>
<rect x="72.7" y="55.6" transform="matrix(0.7071 -0.7071 0.7071 0.7071 -18.878 69.8307)" class="st1" width="4.2" height="4.2"/>
<rect x="87.1" y="55.6" transform="matrix(0.707 -0.7072 0.7072 0.707 -14.6637 80.0328)" class="st1" width="4.2" height="4.2"/>
<rect x="87.2" y="70" transform="matrix(0.7069 -0.7074 0.7074 0.7069 -24.8484 84.2809)" class="st1" width="4.2" height="4.2"/>
<rect x="72.7" y="70" transform="matrix(0.707 -0.7072 0.7072 0.707 -29.0683 74.0691)" class="st1" width="4.2" height="4.2"/>
<rect x="58.2" y="70" transform="matrix(0.707 -0.7072 0.7072 0.707 -33.3308 63.7814)" class="st1" width="4.2" height="4.2"/>
<rect x="44" y="70" transform="matrix(0.7071 -0.7071 0.7071 0.7071 -37.5042 53.7029)" class="st1" width="4.2" height="4.2"/>
<rect x="29.1" y="70" transform="matrix(0.7071 -0.7071 0.7071 0.7071 -41.8542 43.2021)" class="st1" width="4.2" height="4.2"/>
<rect x="87.1" y="85" transform="matrix(0.7071 -0.7071 0.7071 0.7071 -35.4319 88.6169)" class="st1" width="4.2" height="4.2"/>
<rect x="72.8" y="85" transform="matrix(0.7072 -0.707 0.707 0.7072 -39.6479 78.4196)" class="st1" width="4.2" height="4.2"/>
<rect x="58.2" y="85" transform="matrix(0.7072 -0.707 0.707 0.7072 -43.9053 68.1319)" class="st1" width="4.2" height="4.2"/>
<rect x="44" y="85" transform="matrix(0.7072 -0.707 0.707 0.7072 -48.0658 58.0659)" class="st1" width="4.2" height="4.2"/>
<rect x="29.1" y="85" transform="matrix(0.7072 -0.707 0.707 0.7072 -52.4102 47.5723)" class="st1" width="4.2" height="4.2"/>
<rect x="21.3" y="18.6" class="st2" width="79" height="78.9"/>
</svg>
