<?xml version="1.0" encoding="utf-8"?>
<!-- Generator: Adobe Illustrator 22.0.1, SVG Export Plug-In . SVG Version: 6.00 Build 0)  -->
<svg version="1.1" id="Calque_1" xmlns="http://www.w3.org/2000/svg" xmlns:xlink="http://www.w3.org/1999/xlink" x="0px" y="0px"
	 viewBox="0 0 250 250" style="enable-background:new 0 0 250 250;" xml:space="preserve">
<style type="text/css">
	.st0{clip-path:url(#SVGID_2_);}
	.st1{fill:#419EB5;}
	.st2{fill:#E2C9AF;}
	.st3{fill:#F4EDE4;}
	.st4{fill:#998C7E;}
	.st5{fill:#999999;}
	.st6{fill:#C4AE9B;stroke:#736357;stroke-width:1.1595;stroke-miterlimit:10;}
	.st7{clip-path:url(#SVGID_4_);}
	.st8{fill:#C4AE9B;stroke:#736357;stroke-width:0.7672;stroke-miterlimit:10;}
	.st9{clip-path:url(#SVGID_6_);}
	.st10{fill:#C4AE9B;stroke:#736357;stroke-width:0.7695;stroke-miterlimit:10;}
	.st11{opacity:7.000000e-02;enable-background:new    ;}
	.st12{fill:#FFFFFF;}
	.st13{fill:#EAEAEA;}
	.st14{fill:#D8D8D8;}
	.st15{fill:#9B9B9B;}
	.st16{fill:#87CF75;}
	.st17{fill:#DDE3E7;}
	.st18{opacity:9.000000e-02;enable-background:new    ;}
	.st19{fill:none;stroke:#E98459;stroke-width:0.9922;stroke-linejoin:round;}
	.st20{fill:#E98459;}
	.st21{fill:none;stroke:#434C54;stroke-width:1.323;stroke-linejoin:round;}
	.st22{fill:#373F44;}
	.st23{fill:#87CF75;stroke:#434C54;stroke-width:1.323;stroke-linejoin:round;}
	.st24{fill:none;stroke:#E98459;stroke-width:0.9865;stroke-linejoin:round;}
	.st25{fill:none;stroke:#434C54;stroke-width:1.3153;stroke-linejoin:round;}
	.st26{fill:#87CF75;stroke:#434C54;stroke-width:1.3153;stroke-linejoin:round;}
	.st27{fill:none;stroke:#E98459;stroke-width:0.9856;stroke-linejoin:round;}
	.st28{fill:none;stroke:#434C54;stroke-width:1.3142;stroke-linejoin:round;}
	.st29{fill:#87CF75;stroke:#434C54;stroke-width:1.3142;stroke-linejoin:round;}
	.st30{fill:none;stroke:#E98459;stroke-width:0.9939;stroke-linejoin:round;}
	.st31{fill:none;stroke:#434C54;stroke-width:1.3252;stroke-linejoin:round;}
	.st32{fill:#87CF75;stroke:#434C54;stroke-width:1.3252;stroke-linejoin:round;}
	.st33{fill:none;stroke:#E98459;stroke-width:0.9906;stroke-linejoin:round;}
	.st34{fill:none;stroke:#434C54;stroke-width:1.3208;stroke-linejoin:round;}
	.st35{fill:#87CF75;stroke:#434C54;stroke-width:1.3208;stroke-linejoin:round;}
	.st36{fill:none;stroke:#E98459;stroke-width:0.9854;stroke-linejoin:round;}
	.st37{fill:none;stroke:#434C54;stroke-width:1.3139;stroke-linejoin:round;}
	.st38{fill:#87CF75;stroke:#434C54;stroke-width:1.3139;stroke-linejoin:round;}
	.st39{fill:none;stroke:#E98459;stroke-width:0.9859;stroke-linejoin:round;}
	.st40{fill:none;stroke:#434C54;stroke-width:1.3146;stroke-linejoin:round;}
	.st41{fill:#87CF75;stroke:#434C54;stroke-width:1.3146;stroke-linejoin:round;}
	.st42{fill:#48AABE;stroke:#419399;stroke-width:0.6596;stroke-miterlimit:10;}
	.st43{opacity:0.4;}
	.st44{fill:#434C54;}
	.st45{fill:#C1C1C1;stroke:#565656;stroke-width:0.5476;stroke-linejoin:round;stroke-miterlimit:10;}
	.st46{fill:#EAEAEA;stroke:#565656;stroke-width:0.5476;stroke-linejoin:round;stroke-miterlimit:10;}
	.st47{fill:#C1C1C1;stroke:#565656;stroke-width:0.5614;stroke-linejoin:round;stroke-miterlimit:10;}
	.st48{fill:#EAEAEA;stroke:#565656;stroke-width:0.5614;stroke-linejoin:round;stroke-miterlimit:10;}
	.st49{fill:#FFFFFF;stroke:#565656;stroke-width:0.5614;stroke-linejoin:round;stroke-miterlimit:10;}
	.st50{fill:#FFFFFF;stroke:#565656;stroke-width:0.846;stroke-linejoin:round;stroke-miterlimit:10;}
	.st51{fill:#EAEAEA;stroke:#565656;stroke-width:0.846;stroke-linejoin:round;stroke-miterlimit:10;}
	.st52{fill:#E0E0E0;stroke:#565656;stroke-width:0.5476;stroke-linejoin:round;stroke-miterlimit:10;}
	.st53{fill:#EAEAEA;stroke:#565656;stroke-width:0.5598;stroke-linejoin:round;stroke-miterlimit:10;}
	.st54{fill:#0CC3F4;stroke:#565656;stroke-width:0.4411;stroke-linejoin:round;stroke-miterlimit:10;}
	.st55{fill:#EAEAEA;stroke:#565656;stroke-linejoin:round;stroke-miterlimit:10;}
	.st56{clip-path:url(#SVGID_8_);}
	.st57{fill:#ADADAD;stroke:#565656;stroke-linejoin:round;stroke-miterlimit:10;}
	.st58{fill:#F2F2F2;stroke:#565656;stroke-linejoin:round;stroke-miterlimit:10;}
	.st59{fill:none;stroke:#565656;stroke-linejoin:round;stroke-miterlimit:10;}
	.st60{fill:#0CC3F4;stroke:#565656;stroke-width:0.6647;stroke-linejoin:round;stroke-miterlimit:10;}
	.st61{fill:#F7E00B;stroke:#565656;stroke-width:0.4071;stroke-linejoin:round;stroke-miterlimit:10;}
	.st62{fill:#F7E00B;stroke:#565656;stroke-width:0.6153;stroke-linejoin:round;stroke-miterlimit:10;}
	.st63{fill:#307884;}
	.st64{fill:#8EB6BF;}
	.st65{fill:#C6CBCE;}
	.st66{opacity:4.000000e-02;enable-background:new    ;}
	.st67{fill:#73AD63;}
	.st68{fill:#2D6E77;}
	.st69{fill:#204C51;}
	.st70{fill:#E2E2E2;}
	.st71{opacity:0.34;fill:#919191;enable-background:new    ;}
	.st72{opacity:0.59;}
	.st73{fill:#5E5E5E;}
	.st74{fill:#31717A;stroke:#33737C;stroke-width:0.3281;stroke-linejoin:round;stroke-miterlimit:10;}
	.st75{fill:#937E6C;}
	.st76{opacity:0.55;}
	.st77{opacity:0.2;fill:none;stroke:#000000;stroke-width:0.6767;stroke-linejoin:round;enable-background:new    ;}
	.st78{opacity:0.4;fill:#CE9A5D;stroke:#000000;stroke-width:0.6767;stroke-linejoin:round;enable-background:new    ;}
	.st79{fill:none;stroke:#4C4037;stroke-width:0.657;stroke-miterlimit:10;}
	.st80{fill:none;stroke:#878787;stroke-width:2.1046;stroke-miterlimit:10;}
	.st81{fill:none;stroke:#689B5A;stroke-width:0.657;stroke-miterlimit:10;}
	.st82{opacity:0.14;enable-background:new    ;}
	.st83{clip-path:url(#SVGID_10_);}
	.st84{fill:#C4AE9B;stroke:#736357;stroke-width:0.6615;stroke-miterlimit:10;}
	.st85{fill:#F7F7F7;stroke:#434C54;stroke-width:0.641;stroke-miterlimit:10;}
	.st86{clip-path:url(#SVGID_12_);}
	.st87{fill:#C4AE9B;stroke:#736357;stroke-width:0.6892;stroke-miterlimit:10;}
	.st88{clip-path:url(#SVGID_14_);}
	.st89{fill:#C4AE9B;stroke:#736357;stroke-width:0.6602;stroke-miterlimit:10;}
	.st90{fill:#F7F7F7;stroke:#434C54;stroke-width:0.6402;stroke-miterlimit:10;}
	.st91{fill:none;stroke:#434C54;stroke-width:0.6402;stroke-miterlimit:10;}
	.st92{fill:#CCCCCC;stroke:#565656;stroke-width:0.6402;stroke-linejoin:round;stroke-miterlimit:10;}
	.st93{fill:none;stroke:#565656;stroke-width:0.6402;stroke-linejoin:round;stroke-miterlimit:10;}
	.st94{fill:#ADADAD;stroke:#565656;stroke-width:0.6402;stroke-linejoin:round;stroke-miterlimit:10;}
	.st95{opacity:0.18;fill:#565656;enable-background:new    ;}
	.st96{fill:#565656;}
	.st97{clip-path:url(#SVGID_16_);}
	.st98{fill:#C4AE9B;stroke:#736357;stroke-width:0.6609;stroke-miterlimit:10;}
	.st99{fill:#CCCCCC;stroke:#565656;stroke-width:0.6334;stroke-linejoin:round;stroke-miterlimit:10;}
	.st100{fill:#ADADAD;stroke:#565656;stroke-width:0.6334;stroke-linejoin:round;stroke-miterlimit:10;}
	.st101{fill:none;stroke:#565656;stroke-width:0.6334;stroke-linejoin:round;stroke-miterlimit:10;}
	.st102{fill:none;stroke:#434C54;stroke-width:0.641;stroke-miterlimit:10;}
	.st103{opacity:0.52;}
	.st104{fill:#CCCCCC;stroke:#565656;stroke-width:0.641;stroke-linejoin:round;stroke-miterlimit:10;}
	.st105{fill:#ADADAD;stroke:#565656;stroke-width:0.641;stroke-linejoin:round;stroke-miterlimit:10;}
	.st106{fill:none;stroke:#565656;stroke-width:0.641;stroke-linejoin:round;stroke-miterlimit:10;}
	.st107{fill:none;stroke:#000000;stroke-width:0.6509;stroke-miterlimit:10;}
	.st108{opacity:0.49;}
	.st109{fill:#C4AE9B;}
	.st110{fill:#FFE7D2;}
	.st111{fill:none;stroke:#000000;stroke-width:0.6509;stroke-linecap:round;stroke-linejoin:round;stroke-miterlimit:10;}
	.st112{fill:none;stroke:#000000;stroke-width:0.6509;stroke-linecap:round;stroke-miterlimit:10;}
	.st113{fill:none;stroke:#000000;stroke-width:0.6509;stroke-linejoin:round;stroke-miterlimit:10;}
	.st114{fill:#56BBCC;}
	.st115{fill:#368896;}
	.st116{clip-path:url(#SVGID_18_);}
	.st117{fill:#EAEAEA;stroke:#565656;stroke-width:1.58;stroke-linejoin:round;stroke-miterlimit:10;}
	.st118{fill:#29ABE2;}
	.st119{fill:none;stroke:#000000;stroke-width:1.8372;stroke-miterlimit:10;}
	.st120{fill:#FFFFFF;stroke:#000000;stroke-width:1.8372;stroke-miterlimit:10;}
	.st121{fill:none;stroke:#000000;stroke-width:1.8372;stroke-linejoin:round;stroke-miterlimit:10;}
	.st122{fill:#C1272D;}
	.st123{clip-path:url(#SVGID_20_);}
	.st124{clip-path:url(#SVGID_22_);}
	.st125{clip-path:url(#SVGID_24_);}
	.st126{clip-path:url(#SVGID_26_);}
	.st127{fill:#706054;}
	.st128{fill:none;stroke:#4C4037;stroke-width:0.4877;stroke-miterlimit:10;}
	.st129{opacity:0.2;fill:none;stroke:#000000;stroke-width:0.5023;stroke-linejoin:round;enable-background:new    ;}
	.st130{opacity:0.4;fill:#CE9A5D;stroke:#000000;stroke-width:0.5023;stroke-linejoin:round;enable-background:new    ;}
	.st131{fill:none;stroke:#373F44;stroke-width:3.285;stroke-linecap:round;stroke-linejoin:round;stroke-miterlimit:10;}
	.st132{fill:none;stroke:#373F44;stroke-width:3.285;stroke-linecap:round;stroke-miterlimit:10;}
	.st133{fill:none;stroke:#373F44;stroke-width:5.913;stroke-linecap:round;stroke-miterlimit:10;}
	.st134{fill:#86949B;}
</style>
<rect x="0.2" y="0.2" class="st12" width="249.5" height="249.5"/>
<rect x="42.7" y="42" class="st1" width="165.4" height="165.4"/>
<polygon class="st13" points="23.2,66.4 0.2,52.9 0.2,147.7 23.2,143.3 "/>
<polygon class="st14" points="0.2,50.6 0.2,53 23.2,66.4 23.2,142.7 0.2,147.1 0.2,150 26.5,144.8 26.5,66.5 "/>
<path class="st15" d="M0.2,150.4v-0.6l25.6-5.1V66.4L0.2,50.9v-0.7l26.1,15.8c0.1,0.1,0.2,0.2,0.2,0.3v78.8c0,0.2-0.1,0.3-0.3,0.3
	L0.2,150.4z"/>
<path class="st15" d="M0.2,147.7v-0.6l23-4.4V66.8l-23-13.5v-0.8l23.5,13.8c0.1,0.1,0.2,0.2,0.2,0.3v76.3c0,0.2-0.1,0.3-0.3,0.3
	L0.2,147.7z"/>
<g>
	<polygon class="st2" points="228.1,228.1 21.9,228.1 19.3,230.7 230.7,230.7 	"/>
	<polygon class="st2" points="236,236 14,236 10.7,239.3 239.3,239.3 	"/>
	<polygon class="st2" points="215.6,215.6 34.4,215.6 31.8,218.2 218.2,218.2 	"/>
	<polygon class="st2" points="240.6,240.6 9.4,240.6 6.8,243.2 243.2,243.2 	"/>
	<polygon class="st2" points="219.5,219.5 30.5,219.5 27.2,222.8 222.8,222.8 	"/>
	<polygon class="st2" points="224.1,224.1 25.9,224.1 23.2,226.8 226.8,226.8 	"/>
	<polygon class="st2" points="211.7,211.7 38.3,211.7 35.7,214.3 214.3,214.3 	"/>
	<polygon class="st2" points="232,232 18,232 15.3,234.7 234.7,234.7 	"/>
	<polygon class="st2" points="207.7,207.7 42.3,207.7 39.7,210.3 210.3,210.3 	"/>
	<polygon class="st2" points="1.5,248.5 0.2,249.8 79.3,249.8 249.8,249.8 248.5,248.5 	"/>
	<polygon class="st2" points="244.5,244.5 5.5,244.5 2.9,247.1 247.1,247.1 	"/>
	<polygon class="st3" points="211,211 39,211 38.3,211.7 211.7,211.7 	"/>
	<polygon class="st4" points="211,211 210.3,210.3 39.7,210.3 39,211 	"/>
	<polygon class="st3" points="214.9,214.9 35.1,214.9 34.4,215.6 215.6,215.6 	"/>
	<polygon class="st4" points="214.9,214.9 214.3,214.3 35.7,214.3 35.1,214.9 	"/>
	<polygon class="st3" points="218.9,218.9 31.1,218.9 30.5,219.5 219.5,219.5 	"/>
	<polygon class="st4" points="218.9,218.9 218.2,218.2 31.8,218.2 31.1,218.9 	"/>
	<polygon class="st3" points="223.5,223.5 26.5,223.5 25.9,224.1 224.1,224.1 	"/>
	<polygon class="st4" points="223.5,223.5 222.8,222.8 27.2,222.8 26.5,223.5 	"/>
	<polygon class="st3" points="227.4,227.4 22.6,227.4 21.9,228.1 228.1,228.1 	"/>
	<polygon class="st4" points="227.4,227.4 226.8,226.8 23.2,226.8 22.6,227.4 	"/>
	<polygon class="st3" points="231.4,231.4 18.6,231.4 18,232 232,232 	"/>
	<polygon class="st4" points="231.4,231.4 230.7,230.7 19.3,230.7 18.6,231.4 	"/>
	<polygon class="st3" points="235.3,235.3 14.7,235.3 14,236 236,236 	"/>
	<polygon class="st4" points="235.3,235.3 234.7,234.7 15.3,234.7 14.7,235.3 	"/>
	<polygon class="st3" points="239.9,239.9 10.1,239.9 9.4,240.6 240.6,240.6 	"/>
	<polygon class="st4" points="239.9,239.9 239.3,239.3 10.7,239.3 10.1,239.9 	"/>
	<polygon class="st3" points="243.9,243.9 6.1,243.9 5.5,244.5 244.5,244.5 	"/>
	<polygon class="st4" points="243.9,243.9 243.2,243.2 6.8,243.2 6.1,243.9 	"/>
	<polygon class="st3" points="247.8,247.8 2.2,247.8 1.5,248.5 248.5,248.5 	"/>
	<polygon class="st4" points="247.8,247.8 247.1,247.1 2.9,247.1 2.2,247.8 	"/>
</g>
<path class="st5" d="M208.1,42.4L250,0.5L249.5,0l-41.9,41.9H42.8L0.5,0L0,0.5l42.3,41.9v164.9L0,249.5l0.5,0.5l42.3-42.3h164.5
	l42.3,42.3l0.5-0.5l-41.9-41.9V42.4z M43,42.6h164.5v164.5H43V42.6z"/>
<path class="st82" d="M102.3,214.4l31.1,10c5,1.6,10.3,1.7,15.3,0.3l9.2-2.6c4.8-1.4,5.5-7.9,1-10.2l-8.4-4.2l-4.4-34.5
	c-0.3-2.5-2.9-3.9-5.2-2.9l-37.4,16.2l-0.6,21.3L102.3,214.4z"/>
<g>
	<ellipse transform="matrix(0.9802 -0.198 0.198 0.9802 -34.0026 32.6341)" class="st127" cx="146.2" cy="186.4" rx="2.3" ry="5"/>
	<ellipse transform="matrix(0.9802 -0.198 0.198 0.9802 -34.0026 32.6341)" class="st128" cx="146.2" cy="186.4" rx="2.3" ry="5"/>
	<ellipse transform="matrix(0.9802 -0.198 0.198 0.9802 -19.2841 28.0979)" class="st127" cx="130.9" cy="110.5" rx="2.3" ry="5"/>
	<ellipse transform="matrix(0.9802 -0.198 0.198 0.9802 -19.2841 28.0979)" class="st128" cx="130.9" cy="110.5" rx="2.3" ry="5"/>
	
		<rect x="91.6" y="104.9" transform="matrix(0.9802 -0.198 0.198 0.9802 -28.1032 25.7546)" class="st17" width="46.4" height="97.1"/>
	
		<rect x="91.6" y="104.9" transform="matrix(0.9802 -0.198 0.198 0.9802 -28.1032 25.7546)" class="st75" width="46.4" height="97.1"/>
	<g class="st76">
		<line class="st129" x1="101.3" y1="203.9" x2="146.7" y2="194.7"/>
	</g>
	<g class="st76">
		<line class="st129" x1="95.3" y1="174.3" x2="140.7" y2="165.1"/>
		<line class="st129" x1="95" y1="172.8" x2="140.5" y2="163.6"/>
	</g>
	<g class="st76">
		<line class="st129" x1="88.9" y1="142.7" x2="134.4" y2="133.5"/>
		<line class="st129" x1="88.6" y1="141.3" x2="134.1" y2="132.1"/>
	</g>
	<circle class="st130" cx="113.2" cy="175.2" r="1.5"/>
	<circle class="st130" cx="104.9" cy="134.3" r="1.5"/>
	<circle class="st130" cx="111.3" cy="165.6" r="1.5"/>
	
		<rect x="91.3" y="104.7" transform="matrix(0.9802 -0.198 0.198 0.9802 -28.0712 25.6939)" class="st128" width="46.4" height="97.1"/>
</g>
<g>
	<polyline class="st131" points="96.4,207.6 93.4,193.2 96.7,188.2 	"/>
	<polyline class="st132" points="85.1,158 91.1,161.7 100.7,206.7 131.2,200.3 	"/>
	<line class="st133" x1="76.6" y1="152.7" x2="85.1" y2="158"/>
	<circle class="st22" cx="100.7" cy="206.7" r="7.8"/>
	<circle class="st134" cx="100.7" cy="206.7" r="4.4"/>
</g>
</svg>
