<?xml version="1.0" encoding="UTF-8"?>
<svg width="178px" height="62px" viewBox="0 0 178 62" version="1.1" xmlns="http://www.w3.org/2000/svg" xmlns:xlink="http://www.w3.org/1999/xlink">
    <!-- Generator: Sketch 51.2 (57519) - http://www.bohemiancoding.com/sketch -->
    <title>Group 12</title>
    <desc>Created with Sketch.</desc>
    <defs></defs>
    <g id="Sketchs" stroke="none" stroke-width="1" fill="none" fill-rule="evenodd">
        <g id="topOffer_desktop" transform="translate(-438.000000, -409.000000)">
            <g id="Group-12" transform="translate(438.000000, 409.000000)">
                <path d="M17.3084497,6.1504065 C40.4190249,-1.83495487 86.0337584,-2.0444892 154.15265,5.52180349 L154.152655,5.52175701 C168.259094,7.08862699 178.424424,19.7943544 176.857554,33.9007934 C175.762133,43.7628041 169.087038,52.1130895 159.70845,55.3536585 C159.70845,55.3536585 159.70845,55.3536585 159.70845,55.3536585 C136.597874,63.3390199 90.9831408,63.5485542 22.8642492,55.9822615 L22.864244,55.982308 C8.75780498,54.415438 -1.40752423,41.7097106 0.159345763,27.6032716 C1.25476669,17.7412609 7.92986164,9.39097555 17.3084497,6.1504065 C17.3084497,6.1504065 17.3084497,6.1504065 17.3084497,6.1504065 Z" id="Rectangle-9" fill="#8CD790" fill-rule="nonzero"></path>
                <path d="M40.874,18.738 C40.874,19.9733395 40.53967,21.3163261 39.871,22.767 C39.3383307,23.9343392 38.6696707,25.0336615 37.865,26.065 C37.1509964,26.9490044 36.6240017,27.4646659 36.284,27.612 C36.1139991,27.6800003 35.9213344,27.714 35.706,27.714 C35.2073308,27.714 34.6406698,27.5553349 34.006,27.238 C33.4393305,26.977332 33.0143348,26.6940015 32.731,26.388 L32.731,14.148 C32.7650002,13.8533319 32.9349985,13.677667 33.241,13.621 C33.2750002,13.6096666 33.5583307,13.6493329 34.091,13.74 C34.1930005,13.7513334 34.5301638,13.6323346 35.1025,13.383 C35.6748362,13.1336654 36.164998,13.009 36.573,13.009 C37.0716692,13.009 37.5476644,13.139332 38.001,13.4 C38.261668,13.5586675 38.6526641,13.8646644 39.174,14.318 C39.9333371,14.9753366 40.4263322,15.666663 40.653,16.392 C40.8003341,16.8793358 40.874,17.661328 40.874,18.738 Z M38.052,15.457 C37.995333,15.4229998 37.9046673,15.406 37.78,15.406 C37.1793303,15.406 36.4596709,15.6666641 35.621,16.188 L35.621,23.838 C36.3916705,23.3959978 37.0489973,22.3136753 37.593,20.591 C38.057669,19.1063259 38.29,17.7576727 38.29,16.545 C38.29,15.9103302 38.2106675,15.5476671 38.052,15.457 Z M48.541,24.144 C48.6430005,24.3140008 48.4220027,24.8183291 47.878,25.657 C47.2886637,26.5523378 46.7106695,27.1586651 46.144,27.476 C46.0759997,27.5100002 45.9740007,27.527 45.838,27.527 C45.3959978,27.527 44.8180036,27.3910014 44.104,27.119 C43.3446629,26.8469986 42.8460012,26.5523349 42.608,26.235 C41.9506634,25.3849958 41.622,24.2063409 41.622,22.699 C41.622,21.2709929 41.9109971,20.0130054 42.489,18.925 C43.1123365,17.734994 43.9056619,17.1286668 44.869,17.106 C45.2203351,17.0946666 45.6453308,17.1853324 46.144,17.378 C46.7560031,17.6160012 47.2603314,17.938998 47.657,18.347 C47.7590005,18.4490005 47.8553329,18.7549975 47.946,19.265 C48.0593339,19.8090027 48.116,20.3416641 48.116,20.863 C48.116,21.6336705 47.9913346,22.1663319 47.742,22.461 C46.5746608,22.8350019 45.3846727,23.0446664 44.172,23.09 C44.1493332,23.6453361 44.2173325,24.2289969 44.376,24.841 C44.5346675,25.4530031 44.6989992,25.7646666 44.869,25.776 C45.0956678,25.7873334 45.3676651,25.6003353 45.685,25.215 C45.9683348,24.8863317 46.1439997,24.6086678 46.212,24.382 C46.2913337,24.0419983 46.3989993,23.6906685 46.535,23.328 C46.7163342,23.3053332 47.0733307,23.395999 47.606,23.6 C48.1386693,23.804001 48.4503329,23.9853325 48.541,24.144 Z M45.515,18.942 C45.3223324,18.9193332 45.0531684,19.2253302 44.7075,19.86 C44.3618316,20.4946698 44.160667,21.1009971 44.104,21.679 C44.6140026,21.6563332 45.0219985,21.5316678 45.328,21.305 C45.5093342,21.1689993 45.6,20.6023383 45.6,19.605 C45.6,19.1856646 45.571667,18.9646668 45.515,18.942 Z M57.228,17.735 C56.7859978,18.8570056 56.2816695,20.5739884 55.715,22.886 C55.2049975,24.9713438 54.9556666,26.1556652 54.967,26.439 L54.967,27.272 C54.9556666,27.6346685 54.819668,27.844333 54.559,27.901 C54.298332,27.9463336 53.6835049,27.838668 52.7145,27.578 C51.7454952,27.317332 51.2043339,27.1076675 51.091,26.949 C51.0343331,26.8583329 51.006,26.7336675 51.006,26.575 C51.006,26.4163325 50.9946668,26.3086669 50.972,26.252 C50.4506641,24.5973251 50.0710012,23.2486719 49.833,22.206 C49.5496653,20.9139935 49.3456673,19.4860078 49.221,17.922 C49.221,17.8879998 49.2096668,17.7916675 49.187,17.633 C49.1643332,17.5083327 49.153,17.4063337 49.153,17.327 C49.153,17.066332 49.2663322,16.8963337 49.493,16.817 C49.5950005,16.7829998 50.0313295,16.8594991 50.802,17.0465 C51.5726705,17.2335009 51.9919997,17.4006659 52.06,17.548 C52.0940002,17.6160003 52.111,17.6953329 52.111,17.786 C52.111,17.8993339 52.0770003,18.0438325 52.009,18.2195 C51.9409997,18.3951675 51.907,18.511333 51.907,18.568 C52.0316673,19.4520044 52.1506661,20.2339966 52.264,20.914 C52.5360014,22.5460082 52.7513325,23.5149985 52.91,23.821 C53.0800009,22.8349951 53.3803312,21.5543412 53.811,19.979 C54.015001,19.2196629 54.2246656,18.4603371 54.44,17.701 L54.542,17.089 C54.6213337,16.8623322 54.762999,16.7206669 54.967,16.664 C55.1030007,16.6186664 55.4656637,16.7206654 56.055,16.97 C56.7010032,17.2420014 57.0919993,17.4969988 57.228,17.735 Z M61.937,15.032 C61.9483334,15.0546668 61.954,15.0999997 61.954,15.168 C61.954,15.4173346 61.9030005,15.7403314 61.801,16.137 C61.6876661,16.5676688 61.5800005,16.8056664 61.478,16.851 C61.3646661,16.8963336 60.8773377,16.7745014 60.016,16.4855 C59.1546624,16.1964986 58.695667,15.9896673 58.639,15.865 C58.6049998,15.8083331 58.588,15.7233339 58.588,15.61 C58.588,15.3039985 58.6673326,14.9810017 58.826,14.641 C59.0073343,14.2556647 59.2113322,14.0403336 59.438,13.995 C59.698668,13.9496664 60.1519968,14.0488321 60.798,14.2925 C61.4440032,14.5361679 61.8236661,14.7826654 61.937,15.032 Z M61.886,26.779 C61.9313336,27.187002 61.7896683,27.4419995 61.461,27.544 C61.4043331,27.5553334 61.3250005,27.561 61.223,27.561 C60.814998,27.561 60.3106697,27.4760008 59.71,27.306 C59.0639968,27.1246658 58.6843339,26.932001 58.571,26.728 C58.5143331,26.6373329 58.5653326,26.461668 58.724,26.201 C58.8260005,26.0309991 58.877,25.7193356 58.877,25.266 L58.877,18.126 C58.7409993,17.6953312 58.673,17.4063341 58.673,17.259 C58.673,17.1116659 58.8826646,17.038 59.302,17.038 C59.6420017,17.038 60.1151636,17.1428323 60.7215,17.3525 C61.3278364,17.5621677 61.6933327,17.7463325 61.818,17.905 C61.8520002,17.9503336 61.869,18.0069997 61.869,18.075 C61.869,18.1656671 61.803834,18.3356654 61.6735,18.585 C61.543166,18.8343346 61.478,19.0213327 61.478,19.146 L61.478,25.98 C61.478,26.0933339 61.543166,26.2349992 61.6735,26.405 C61.803834,26.5750008 61.8746666,26.6996663 61.886,26.779 Z M69.349,25.436 C69.349,26.0593364 69.1421687,26.5579981 68.7285,26.932 C68.3148313,27.3060019 67.7340038,27.4986666 66.986,27.51 C66.8046658,27.51 66.6063344,27.481667 66.391,27.425 C66.0056648,27.3229995 65.8016668,27.2663334 65.779,27.255 C65.574999,27.2096664 65.3681677,27.1615003 65.1585,27.1105 C64.9488323,27.0594997 64.7703341,26.9716673 64.623,26.847 C64.3736654,26.6203322 64.1300012,26.3086687 63.892,25.912 C63.6993324,25.5946651 63.5123343,25.2716683 63.331,24.943 C63.1496658,24.6143317 63.059,24.4160003 63.059,24.348 C63.059,24.1893325 63.1723322,24.0703337 63.399,23.991 C63.455667,23.9683332 63.5576659,23.957 63.705,23.957 C64.0450017,23.957 64.4728308,23.993833 64.9885,24.0675 C65.5041693,24.141167 65.7846665,24.2034997 65.83,24.2545 C65.8753336,24.3055003 65.9376663,24.6313303 66.017,25.232 C66.0850004,25.7533359 66.2039992,26.014 66.374,26.014 C66.634668,26.014 66.765,25.6626702 66.765,24.96 C66.765,24.0646622 66.5270024,23.5036678 66.051,23.277 C64.9629946,22.7669974 64.2490017,22.3136687 63.909,21.917 C63.4896646,21.4296642 63.28,20.6930049 63.28,19.707 C63.28,19.0609968 63.4499983,18.4518362 63.79,17.8795 C64.1300017,17.3071638 64.532331,16.9643339 64.997,16.851 C65.201001,16.8056664 65.8583278,17.0209976 66.969,17.497 C67.0710005,17.5310002 67.3713309,17.5933329 67.87,17.684 C68.2213351,17.7520003 68.4706659,17.8709992 68.618,18.041 C68.8333344,18.301668 68.9579998,18.7153305 68.992,19.282 C69.0033334,19.7013354 69.009,20.1206646 69.009,20.54 C69.0883337,20.9253353 69.128,21.1519997 69.128,21.22 C69.128,21.5373349 68.9750015,21.7186664 68.669,21.764 C68.5103326,21.7866668 68.198669,21.7243341 67.734,21.577 C67.2239975,21.4069991 66.9010007,21.2313342 66.765,21.05 C66.7309998,21.0046664 66.6970002,20.5796707 66.663,19.775 C66.6289998,19.0156629 66.5496673,18.636 66.425,18.636 C66.2549992,18.636 66.0963341,18.8569978 65.949,19.299 C65.8016659,19.7410022 65.728,20.1999976 65.728,20.676 C65.728,21.2766697 65.858332,21.6563325 66.119,21.815 C66.6743361,22.1210015 67.2268306,22.4298318 67.7765,22.7415 C68.3261694,23.0531682 68.7086656,23.3733317 68.924,23.702 C69.2073348,24.1326688 69.349,24.710663 69.349,25.436 Z M81.657,18.126 C81.657,18.1373334 81.5946673,18.2506656 81.47,18.466 C81.3906663,18.6246675 81.351,18.7493329 81.351,18.84 L81.351,26.286 C81.351,28.1673427 80.654007,29.3743307 79.26,29.907 C78.6139968,30.1563346 78.0246694,30.281 77.492,30.281 C76.7213295,30.281 76.0526695,30.0203359 75.486,29.499 C75.3273326,29.3629993 75.0553353,29.0683356 74.67,28.615 L74.347,28.292 C74.2336661,28.1673327 74.1713334,28.0370007 74.16,27.901 C74.1486666,27.7309991 74.3186649,27.5950005 74.67,27.493 C74.7153336,27.4816666 74.7833329,27.476 74.874,27.476 C75.1233346,27.476 75.4208316,27.5269995 75.7665,27.629 C76.1121684,27.7310005 76.358666,27.8556659 76.506,28.003 C76.6873343,28.2296678 76.8743324,28.4619988 77.067,28.7 C77.2596677,28.9380012 77.4863321,29.0683332 77.747,29.091 C78.211669,29.1363336 78.5119993,28.8190034 78.648,28.139 C78.7160004,27.8103317 78.75,27.2266709 78.75,26.388 C78.7159999,26.4333336 78.6083343,26.5806654 78.427,26.83 C78.2909993,27.0113342 78.1720005,27.1416663 78.07,27.221 C77.9453327,27.3343339 77.8150007,27.391 77.679,27.391 C77.0783304,27.391 76.5740021,27.2266683 76.166,26.898 C74.9533273,25.8779949 74.347,24.3763432 74.347,22.393 C74.347,21.1349937 74.6133307,20.0073383 75.146,19.01 C75.7013361,17.9446613 76.4266622,17.2760014 77.322,17.004 C77.3900004,16.9813332 77.4523331,16.97 77.509,16.97 C77.6903343,16.97 77.8943322,17.0549992 78.121,17.225 C78.3136677,17.3723341 78.5063324,17.5253325 78.699,17.684 C78.7670004,17.4913324 78.837833,17.3015009 78.9115,17.1145 C78.9851671,16.9274991 79.1013326,16.8226668 79.26,16.8 C79.4980012,16.7659998 79.9201637,16.8424991 80.5265,17.0295 C81.1328364,17.2165009 81.4756663,17.3779993 81.555,17.514 C81.6910007,17.7406678 81.7250004,17.9446658 81.657,18.126 Z M78.648,22.308 C78.7386671,21.5259961 78.784,20.8856692 78.784,20.387 C78.784,19.4689954 78.6366682,18.9533339 78.342,18.84 C78.1039988,18.7493329 77.8150017,19.1516622 77.475,20.047 C77.1349983,20.9423378 76.965,21.7583297 76.965,22.495 C76.965,23.83234 77.1179985,24.8919961 77.424,25.674 C78.1040034,24.6199947 78.5119993,23.4980059 78.648,22.308 Z M89.698,18.109 C89.7433336,18.2903342 89.6810009,18.4376661 89.511,18.551 C89.3749993,18.6190003 89.2446673,18.6926663 89.12,18.772 C88.4059965,19.8600054 87.4370061,21.3276574 86.213,23.175 C86.213,24.977009 86.2186666,25.9063331 86.23,25.963 C86.2413334,26.0196669 86.283833,26.1641655 86.3575,26.3965 C86.4311671,26.6288345 86.468,26.8129993 86.468,26.949 C86.468,27.1643344 86.3716677,27.3116663 86.179,27.391 C86.0543327,27.4476669 85.8843344,27.476 85.669,27.476 C85.2383312,27.476 84.762336,27.3796676 84.241,27.187 C83.5836634,26.9603322 83.255,26.6713351 83.255,26.32 C83.255,26.2179995 83.3003329,26.0536678 83.391,25.827 C83.4816671,25.6003322 83.527,25.4133341 83.527,25.266 L83.527,18.534 C83.4023327,17.8993302 83.34,17.5706668 83.34,17.548 C83.34,17.1966649 83.4986651,16.9756671 83.816,16.885 C83.9520007,16.8509998 84.1163324,16.834 84.309,16.834 C84.7056687,16.834 85.1221645,16.899166 85.5585,17.0295 C85.9948355,17.159834 86.2526663,17.2986659 86.332,17.446 C86.3546668,17.4913336 86.366,17.5479997 86.366,17.616 C86.366,17.6726669 86.2866675,17.9446642 86.128,18.432 L86.128,19.248 C86.4000014,18.7606642 86.6663321,18.2733358 86.927,17.786 C87.2783351,17.1739969 87.5389992,16.8510002 87.709,16.817 C87.9583346,16.7716664 88.3379975,16.9189983 88.848,17.259 C89.3580026,17.5990017 89.6413331,17.8823322 89.698,18.109 Z M98.572,26.745 C98.5606666,26.9036675 98.4926673,27.0396661 98.368,27.153 C98.2433327,27.2663339 98.1016675,27.3116668 97.943,27.289 C96.5376597,27.0963324 95.7556675,26.8300017 95.597,26.49 C95.5743332,26.4446664 95.563,26.3993336 95.563,26.354 C95.563,26.297333 95.5884998,26.2350003 95.6395,26.167 C95.6905003,26.0989997 95.7216666,26.0395003 95.733,25.9885 C95.7443334,25.9374997 95.7669999,25.8893336 95.801,25.844 C95.8236668,25.7533329 95.8293334,25.5550015 95.818,25.249 C95.6819993,25.3510005 95.4780014,25.6229978 95.206,26.065 C94.9226653,26.5523358 94.6733344,26.8923324 94.458,27.085 C94.0953315,27.4250017 93.681669,27.595 93.217,27.595 C92.9449987,27.595 92.678668,27.4873344 92.418,27.272 C92.2933327,27.1699995 92.0723349,26.9490017 91.755,26.609 C91.2109973,25.9969969 90.9163336,25.662667 90.871,25.606 C90.6329988,25.2886651 90.514,24.9883347 90.514,24.705 C90.514,24.6143329 90.5253332,24.5236671 90.548,24.433 C90.7633344,23.4356617 91.4319944,22.4893378 92.554,21.594 C93.3700041,20.9479968 94.5259925,20.262337 96.022,19.537 C96.022,19.1743315 95.9313343,18.9420005 95.75,18.84 C95.6366661,18.7719997 95.2400034,18.8994984 94.56,19.2225 C93.8799966,19.5455016 93.4040014,19.8203322 93.132,20.047 C93.0413329,20.1376671 92.894001,20.2623325 92.69,20.421 C92.4973324,20.5343339 92.3216675,20.5683336 92.163,20.523 C92.0383327,20.4889998 91.7720021,20.2850019 91.364,19.911 C90.955998,19.5369981 90.7350002,19.2876673 90.701,19.163 C90.6103329,18.8569985 90.7066653,18.6190008 90.99,18.449 C91.0013334,18.4376666 91.2279978,18.3696673 91.67,18.245 L92.928,17.565 C93.8120044,17.1456646 94.559997,16.9190002 95.172,16.885 C95.432668,16.8736666 95.7273317,17.0096652 96.056,17.293 C96.3506682,17.553668 96.6481652,17.8114987 96.9485,18.0665 C97.2488349,18.3215013 97.5576651,18.5679988 97.875,18.806 C98.2376685,19.1233349 98.419,19.4293319 98.419,19.724 L98.419,26.15 C98.5323339,26.4446681 98.5833334,26.6429995 98.572,26.745 Z M95.852,21.781 C95.2966639,21.9963344 94.8206687,22.3249978 94.424,22.767 C94.1293319,23.1296685 93.8346682,23.4866649 93.54,23.838 C93.3019988,24.0760012 93.0781677,24.3848314 92.8685,24.7645 C92.6588323,25.1441686 92.554,25.4246658 92.554,25.606 C92.554,25.6966671 92.5879997,25.742 92.656,25.742 C92.8940012,25.742 93.4266626,25.2291718 94.254,24.2035 C95.0813375,23.1778282 95.6139988,22.3703363 95.852,21.781 Z M105.576,18.789 C105.564667,18.993001 105.496667,19.1743325 105.372,19.333 C105.247333,19.4916675 105.111334,19.571 104.964,19.571 C104.918666,19.571 104.879,19.5653334 104.845,19.554 C104.686333,19.4973331 104.329336,19.469 103.774,19.469 L103.774,26.184 C103.774,26.1726666 103.810833,26.2633324 103.8845,26.456 C103.958167,26.6486676 103.995,26.8186659 103.995,26.966 C103.995,27.2946683 103.768336,27.4703332 103.315,27.493 C103.076999,27.5043334 102.64067,27.4023344 102.006,27.187 C101.314663,26.9603322 100.946334,26.7506676 100.901,26.558 C100.878333,26.4786663 100.918,26.3115013 101.02,26.0565 C101.122001,25.8014987 101.173,25.6060007 101.173,25.47 L101.173,19.452 L100.595,19.452 C100.379666,19.452 100.113335,19.2621686 99.796,18.8825 C99.4786651,18.5028314 99.32,18.1996678 99.32,17.973 C99.32,17.8029992 99.385166,17.6500007 99.5155,17.514 C99.645834,17.3779993 99.7903326,17.31 99.949,17.31 L101.173,17.31 L101.173,15.78 C101.002999,15.5533322 100.918,15.309668 100.918,15.049 C100.918,14.8109988 101.019999,14.6636669 101.224,14.607 C101.326001,14.5843332 101.467666,14.573 101.649,14.573 C102.068335,14.573 102.558497,14.638166 103.1195,14.7685 C103.680503,14.898834 104.045999,15.0319993 104.216,15.168 C104.295334,15.2360003 104.335,15.3153329 104.335,15.406 C104.335,15.5193339 104.244334,15.6893322 104.063,15.916 C103.881666,16.1426678 103.785333,16.3013329 103.774,16.392 L103.774,17.31 L104.318,17.31 C104.431334,17.31 104.669332,17.513998 105.032,17.922 C105.394669,18.330002 105.576,18.6189992 105.576,18.789 Z M114.756,17.412 C114.835334,17.5253339 114.875,17.6386661 114.875,17.752 C114.875,17.8653339 114.809834,18.0013325 114.6795,18.16 C114.549166,18.3186675 114.484,18.4206664 114.484,18.466 L114.484,26.371 C114.484,26.4390003 114.520833,26.5579992 114.5945,26.728 C114.668167,26.8980009 114.705,27.0226663 114.705,27.102 C114.705,27.306001 114.529335,27.4533329 114.178,27.544 C113.996666,27.5893336 113.57167,27.5270009 112.903,27.357 C112.177663,27.1756658 111.781,26.9943342 111.713,26.813 C111.656333,26.6656659 111.673333,26.4673346 111.764,26.218 C111.877334,25.9233319 111.934,25.7193339 111.934,25.606 C111.934,25.4926661 111.917,25.3453342 111.883,25.164 C111.712999,25.7306695 111.475002,26.2349978 111.169,26.677 C110.794998,27.1983359 110.421002,27.459 110.047,27.459 C109.661665,27.459 109.163003,27.328668 108.551,27.068 C107.938997,26.807332 107.587667,26.5693344 107.497,26.354 C107.179665,25.628663 107.021,22.9483565 107.021,18.313 C106.930333,18.0976656 106.885,17.8823344 106.885,17.667 C106.885,17.3156649 107.015332,17.0776673 107.276,16.953 C107.355334,16.9189998 107.496999,16.902 107.701,16.902 C108.086335,16.902 108.545331,16.9614994 109.078,17.0805 C109.610669,17.1995006 109.933666,17.3213327 110.047,17.446 C110.103667,17.5140003 110.132,17.5876663 110.132,17.667 C110.132,17.7916673 110.047001,17.9928319 109.877,18.2705 C109.706999,18.5481681 109.622,18.7493327 109.622,18.874 C109.599333,23.3393557 109.633333,25.5889998 109.724,25.623 C109.882667,25.679667 110.282164,25.1555055 110.9225,24.0505 C111.562837,22.9454945 111.883,22.1040029 111.883,21.526 L111.883,18.347 C111.735666,18.1996659 111.662,18.0183344 111.662,17.803 C111.662,17.3609978 111.854665,17.0606675 112.24,16.902 C112.285334,16.8793332 112.353333,16.868 112.444,16.868 C112.750002,16.868 113.197664,16.9388326 113.787,17.0805 C114.376336,17.2221674 114.699333,17.3326663 114.756,17.412 Z M119.771,15.032 C119.782333,15.0546668 119.788,15.0999997 119.788,15.168 C119.788,15.4173346 119.737001,15.7403314 119.635,16.137 C119.521666,16.5676688 119.414001,16.8056664 119.312,16.851 C119.198666,16.8963336 118.711338,16.7745014 117.85,16.4855 C116.988662,16.1964986 116.529667,15.9896673 116.473,15.865 C116.439,15.8083331 116.422,15.7233339 116.422,15.61 C116.422,15.3039985 116.501333,14.9810017 116.66,14.641 C116.841334,14.2556647 117.045332,14.0403336 117.272,13.995 C117.532668,13.9496664 117.985997,14.0488321 118.632,14.2925 C119.278003,14.5361679 119.657666,14.7826654 119.771,15.032 Z M119.72,26.779 C119.765334,27.187002 119.623668,27.4419995 119.295,27.544 C119.238333,27.5553334 119.159001,27.561 119.057,27.561 C118.648998,27.561 118.14467,27.4760008 117.544,27.306 C116.897997,27.1246658 116.518334,26.932001 116.405,26.728 C116.348333,26.6373329 116.399333,26.461668 116.558,26.201 C116.660001,26.0309991 116.711,25.7193356 116.711,25.266 L116.711,18.126 C116.574999,17.6953312 116.507,17.4063341 116.507,17.259 C116.507,17.1116659 116.716665,17.038 117.136,17.038 C117.476002,17.038 117.949164,17.1428323 118.5555,17.3525 C119.161836,17.5621677 119.527333,17.7463325 119.652,17.905 C119.686,17.9503336 119.703,18.0069997 119.703,18.075 C119.703,18.1656671 119.637834,18.3356654 119.5075,18.585 C119.377166,18.8343346 119.312,19.0213327 119.312,19.146 L119.312,25.98 C119.312,26.0933339 119.377166,26.2349992 119.5075,26.405 C119.637834,26.5750008 119.708667,26.6996663 119.72,26.779 Z M127.353,18.789 C127.341667,18.993001 127.273667,19.1743325 127.149,19.333 C127.024333,19.4916675 126.888334,19.571 126.741,19.571 C126.695666,19.571 126.656,19.5653334 126.622,19.554 C126.463333,19.4973331 126.106336,19.469 125.551,19.469 L125.551,26.184 C125.551,26.1726666 125.587833,26.2633324 125.6615,26.456 C125.735167,26.6486676 125.772,26.8186659 125.772,26.966 C125.772,27.2946683 125.545336,27.4703332 125.092,27.493 C124.853999,27.5043334 124.41767,27.4023344 123.783,27.187 C123.091663,26.9603322 122.723334,26.7506676 122.678,26.558 C122.655333,26.4786663 122.695,26.3115013 122.797,26.0565 C122.899001,25.8014987 122.95,25.6060007 122.95,25.47 L122.95,19.452 L122.372,19.452 C122.156666,19.452 121.890335,19.2621686 121.573,18.8825 C121.255665,18.5028314 121.097,18.1996678 121.097,17.973 C121.097,17.8029992 121.162166,17.6500007 121.2925,17.514 C121.422834,17.3779993 121.567333,17.31 121.726,17.31 L122.95,17.31 L122.95,15.78 C122.779999,15.5533322 122.695,15.309668 122.695,15.049 C122.695,14.8109988 122.796999,14.6636669 123.001,14.607 C123.103001,14.5843332 123.244666,14.573 123.426,14.573 C123.845335,14.573 124.335497,14.638166 124.8965,14.7685 C125.457503,14.898834 125.822999,15.0319993 125.993,15.168 C126.072334,15.2360003 126.112,15.3153329 126.112,15.406 C126.112,15.5193339 126.021334,15.6893322 125.84,15.916 C125.658666,16.1426678 125.562333,16.3013329 125.551,16.392 L125.551,17.31 L126.095,17.31 C126.208334,17.31 126.446332,17.513998 126.809,17.922 C127.171669,18.330002 127.353,18.6189992 127.353,18.789 Z M138.641,25.215 C138.550333,25.6456688 138.244336,26.1046642 137.723,26.592 C137.643666,26.7166673 137.332003,26.880999 136.788,27.085 C136.164664,27.3230012 135.626336,27.4250002 135.173,27.391 C134.322996,27.334333 133.654336,26.8470046 133.167,25.929 C132.724998,25.0789957 132.504,24.0363395 132.504,22.801 C132.504,21.46366 132.753331,20.2906717 133.252,19.282 C133.807336,18.1713278 134.549662,17.5480007 135.479,17.412 C135.660334,17.3893332 135.835999,17.378 136.006,17.378 C137.354673,17.378 138.096999,18.2053251 138.233,19.86 C138.301,20.6193371 138.00067,21.4466622 137.332,22.342 C136.606663,23.3280049 135.677339,24.0193314 134.544,24.416 C134.668667,24.8693356 134.765,25.1639993 134.833,25.3 C134.991668,25.5833347 135.206999,25.725 135.479,25.725 C135.739668,25.725 136.017332,25.623001 136.312,25.419 C136.561335,25.2489992 136.731333,25.0846675 136.822,24.926 C136.867334,24.9033332 136.912666,24.7758345 136.958,24.5435 C137.003334,24.3111655 137.122332,24.1440005 137.315,24.042 C137.383,24.0079998 137.462333,23.991 137.553,23.991 C137.825001,23.991 138.088499,24.1241653 138.3435,24.3905 C138.598501,24.6568347 138.697667,24.9316653 138.641,25.215 Z M135.972,19.231 C135.518664,19.231 135.150335,19.5539968 134.867,20.2 C134.492998,21.0613376 134.34,21.9113291 134.408,22.75 C134.940669,22.5799991 135.433664,22.1833364 135.887,21.56 C136.340336,20.9366635 136.567,20.3813358 136.567,19.894 C136.567,19.4519978 136.368669,19.231 135.972,19.231 Z M147.787,25.912 C147.764333,26.1613346 147.600002,26.3738325 147.294,26.5495 C146.987999,26.7251675 146.648002,26.813 146.274,26.813 C145.718664,26.813 145.339001,26.6373351 145.135,26.286 C145.225667,22.7953159 145.123668,21.0273336 144.829,20.982 C144.545665,20.9366664 143.854339,22.5006508 142.755,25.674 L142.755,26.694 C142.743667,27.102002 142.633168,27.3909991 142.4235,27.561 C142.213832,27.7310009 141.990001,27.816 141.752,27.816 C141.343998,27.816 140.907669,27.5950022 140.443,27.153 C140.306999,27.0396661 140.233333,26.1783414 140.222,24.569 C140.233333,25.5550049 140.239,23.7246899 140.239,19.078 C140.239,18.9759995 140.227667,18.8371675 140.205,18.6615 C140.182333,18.4858325 140.171,18.3583337 140.171,18.279 C140.171,18.0636656 140.227666,17.8766675 140.341,17.718 C140.477001,17.513999 140.692332,17.412 140.987,17.412 C141.293002,17.412 141.613165,17.5054991 141.9475,17.6925 C142.281835,17.8795009 142.483,18.0579992 142.551,18.228 C142.596334,18.3413339 142.619,18.4546661 142.619,18.568 C142.619,18.6813339 142.573667,18.839999 142.483,19.044 C142.392333,19.248001 142.347,19.4179993 142.347,19.554 L142.347,21.9 C143.061004,20.3813257 143.599332,19.3783358 143.962,18.891 C144.608003,18.0523291 145.338996,17.661333 146.155,17.718 C146.642336,17.7520002 146.987999,18.205329 147.192,19.078 C147.350668,19.7353366 147.435667,20.7099935 147.447,22.002 L147.447,25.062 C147.469667,25.1413337 147.548999,25.282999 147.685,25.487 C147.764334,25.6003339 147.798333,25.7419992 147.787,25.912 Z M41.044,43.909 C41.2253342,44.1583346 41.316,44.4019988 41.316,44.64 C41.316,44.9686683 41.1516683,45.2463322 40.823,45.473 C40.4943317,45.6996678 40.1600017,45.813 39.82,45.813 C39.6613325,45.813 39.4233349,45.7790003 39.106,45.711 C38.8339986,45.6429997 38.6470005,45.6146666 38.545,45.626 C38.0236641,45.5806664 37.2700049,45.6656656 36.284,45.881 C35.0259937,46.1530014 34.3516671,46.2946666 34.261,46.306 C33.9549985,46.3400002 33.5866688,46.2663342 33.156,46.085 C32.6459975,45.8696656 32.3853334,45.5976683 32.374,45.269 C32.3626666,45.0309988 32.4986653,44.8326675 32.782,44.674 C33.1220017,44.4813324 33.3259997,44.3170007 33.394,44.181 C34.2100041,43.308329 35.1563279,42.1070076 36.233,40.577 C37.8763415,38.2309883 38.698,36.5083388 38.698,35.409 C38.698,35.000998 38.5790012,34.6836678 38.341,34.457 C38.3183332,34.4456666 38.2900002,34.44 38.256,34.44 C38.0746658,34.44 37.7290026,34.6553312 37.219,35.086 C36.7656644,35.4713353 36.4880005,35.7376659 36.386,35.885 C36.2613327,35.9756671 36.1536671,36.1966649 36.063,36.548 C35.9836663,36.8540015 35.8080014,37.0636661 35.536,37.177 C35.4566663,37.2110002 35.3603339,37.228 35.247,37.228 C34.9069983,37.228 34.5556685,37.097668 34.193,36.837 C33.7963314,36.5423319 33.5753336,36.2136685 33.53,35.851 C33.5073332,35.6696658 33.6773315,35.3976685 34.04,35.035 C34.4026685,34.6723315 34.7993312,34.3663346 35.23,34.117 C36.5106731,32.8136602 37.5986622,32.1676666 38.494,32.179 C40.1600083,32.2130002 40.993,33.0743249 40.993,34.763 C40.993,36.1116734 40.4886717,37.7266573 39.48,39.608 C38.5279952,41.3986756 37.4626726,42.8209947 36.284,43.875 C36.6013349,43.8296664 37.530659,43.6483349 39.072,43.331 C39.5933359,43.2289995 39.8426668,43.178 39.82,43.178 C40.2733356,43.178 40.6813315,43.4216642 41.044,43.909 Z M50.9719207,40.6076896 C50.9605087,40.1338679 50.9265354,39.8913071 50.87,39.88 C50.609332,40.3106688 50.3826676,40.7243313 50.19,41.121 C49.725331,42.0730048 49.4590003,42.8663302 49.391,43.501 C49.3343331,43.6370007 49.3286664,43.9033314 49.374,44.3 C49.4193336,44.6400017 49.3683341,44.8723327 49.221,44.997 C49.0736659,45.1216673 48.8753346,45.184 48.626,45.184 C48.3539986,45.184 48.0791681,45.1075008 47.8015,44.9545 C47.523832,44.8014992 47.3226673,44.6286676 47.198,44.436 C47.0166658,44.1526652 46.9146668,43.3253402 46.892,41.954 L46.892,37.942 C46.8806666,37.8286661 46.8353337,37.670001 46.756,37.466 C46.6766663,37.261999 46.637,37.1090005 46.637,37.007 C46.637,36.9049995 46.6653331,36.8086671 46.722,36.718 C46.8693341,36.4913322 47.2433303,36.378 47.844,36.378 C48.5806704,36.378 49.0226659,36.5593315 49.17,36.922 C49.2040002,37.0013337 49.221,37.0806663 49.221,37.16 C49.221,37.2620005 49.1671672,37.4093324 49.0595,37.602 C48.9518328,37.7946676 48.898,37.9533327 48.898,38.078 L48.898,40.016 C49.2380017,39.3019964 49.6856639,38.3953388 50.241,37.296 C50.3090003,37.1486659 50.3741664,37.0013341 50.4365,36.854 C50.4988337,36.7066659 50.5923327,36.5763339 50.717,36.463 C50.8416673,36.3496661 51.0513319,36.293 51.346,36.293 C51.7993356,36.293 52.2554977,36.394999 52.7145,36.599 C53.1735023,36.803001 53.4086666,37.0466653 53.42,37.33 C53.4313334,37.6246681 53.3888338,37.8484992 53.2925,38.0015 C53.1961662,38.1545008 53.148,38.2819995 53.148,38.384 L53.114,42.056 C53.2953342,41.647998 53.6239976,40.6846743 54.1,39.166 C54.4740019,38.0099942 54.7573324,37.3640007 54.95,37.228 C55.1993346,37.0466658 55.5676642,36.956 56.055,36.956 C56.9616712,36.956 57.4319998,37.2166641 57.466,37.738 C57.4546666,39.1206736 57.4546666,41.4326505 57.466,44.674 C57.466,44.7986673 57.5793322,44.9488325 57.806,45.1245 C58.0326678,45.3001675 58.146,45.4843324 58.146,45.677 C58.146,45.7676671 58.1233336,45.8753327 58.078,46 C57.9306659,46.4193354 57.5963359,46.629 57.075,46.629 C56.4176634,46.629 55.9303349,46.4023356 55.613,45.949 C55.4429992,45.6996654 55.358,44.8440073 55.358,43.382 L55.358,42.481 C55.3693334,42.0843313 55.375,41.8066675 55.375,41.648 C55.375,40.8546627 55.3353337,40.4466668 55.256,40.424 C55.0859992,40.3559997 54.5080049,41.9426505 53.522,45.184 C53.522,45.1953334 53.4993336,45.4673307 53.454,46 C53.4313332,46.3286683 53.318001,46.5496661 53.114,46.663 C52.9666659,46.7423337 52.8023342,46.782 52.621,46.782 C52.2923317,46.782 51.9750015,46.6743344 51.669,46.459 C51.3629985,46.2436656 51.1703337,45.9886681 51.091,45.694 C50.9776661,45.2746646 50.9266666,44.4473395 50.938,43.212 C50.9595723,41.4970047 50.9708791,40.6289087 50.9719207,40.6076896 Z M61.988,33.25 C62.0220002,33.2840002 62.039,33.3406663 62.039,33.42 C62.039,33.5220005 62.0050004,33.6976654 61.937,33.947 C61.8576663,34.2530015 61.8066668,34.4626661 61.784,34.576 C61.7613332,34.6893339 61.7726665,34.9386647 61.818,35.324 C61.818,35.5620012 61.7471674,35.717833 61.6055,35.7915 C61.4638326,35.865167 61.2853344,35.902 61.07,35.902 C60.7639985,35.902 60.4523349,35.8396673 60.135,35.715 C59.7496648,35.5563325 59.557,35.346668 59.557,35.086 C59.557,35.0066663 59.5909997,34.8961674 59.659,34.7545 C59.7270004,34.6128326 59.7666666,34.4966671 59.778,34.406 C59.8006668,34.3153329 59.8006668,34.0886685 59.778,33.726 C59.7553332,33.4426652 59.8119993,33.2500005 59.948,33.148 C60.1293343,33.0119993 60.452331,32.944 60.917,32.944 C61.4270026,32.944 61.783999,33.045999 61.988,33.25 Z M62.209,37.398 C62.209,37.5566675 62.1211676,37.803165 61.9455,38.1375 C61.7698325,38.471835 61.682,38.7466656 61.682,38.962 L61.682,43.96 C61.682,44.1866678 61.7443327,44.5068313 61.869,44.9205 C61.9936673,45.3341687 62.056,45.6203325 62.056,45.779 C62.056,46.0056678 61.9653343,46.1756661 61.784,46.289 C61.5006653,46.4703342 61.1946683,46.561 60.866,46.561 C60.4353312,46.561 60.1293343,46.4136681 59.948,46.119 C59.7099988,45.7563315 59.591,44.674009 59.591,42.872 C59.591,42.4413312 59.5994999,41.7698379 59.6165,40.8575 C59.6335001,39.9451621 59.642,39.2793354 59.642,38.86 C59.642,38.7013325 59.6250002,38.4945013 59.591,38.2395 C59.5569998,37.9844987 59.54,37.8003339 59.54,37.687 C59.54,37.3129981 59.6759987,36.9900014 59.948,36.718 C60.0613339,36.6046661 60.2709985,36.548 60.577,36.548 C60.8830015,36.548 61.1889985,36.5961662 61.495,36.6925 C61.8010015,36.7888338 61.9964996,36.8993327 62.0815,37.024 C62.1665004,37.1486673 62.209,37.2733327 62.209,37.398 Z M71.474,44.912 C71.4513332,45.1613346 71.2870015,45.3738325 70.981,45.5495 C70.6749985,45.7251675 70.3350019,45.813 69.961,45.813 C69.4056639,45.813 69.026001,45.6373351 68.822,45.286 C68.9126671,41.7953159 68.8106682,40.0273336 68.516,39.982 C68.2326653,39.9366664 67.5413388,41.5006508 66.442,44.674 L66.442,45.694 C66.4306666,46.102002 66.3201677,46.3909991 66.1105,46.561 C65.9008323,46.7310009 65.6770012,46.816 65.439,46.816 C65.030998,46.816 64.594669,46.5950022 64.13,46.153 C63.9939993,46.0396661 63.9203334,45.1783414 63.909,43.569 C63.9203334,44.5550049 63.926,42.7246899 63.926,38.078 C63.926,37.9759995 63.9146668,37.8371675 63.892,37.6615 C63.8693332,37.4858325 63.858,37.3583337 63.858,37.279 C63.858,37.0636656 63.9146661,36.8766675 64.028,36.718 C64.1640007,36.513999 64.3793319,36.412 64.674,36.412 C64.9800015,36.412 65.300165,36.5054991 65.6345,36.6925 C65.968835,36.8795009 66.1699997,37.0579992 66.238,37.228 C66.2833336,37.3413339 66.306,37.4546661 66.306,37.568 C66.306,37.6813339 66.2606671,37.839999 66.17,38.044 C66.0793329,38.248001 66.034,38.4179993 66.034,38.554 L66.034,40.9 C66.7480036,39.3813257 67.2863315,38.3783358 67.649,37.891 C68.2950032,37.0523291 69.0259959,36.661333 69.842,36.718 C70.3293358,36.7520002 70.674999,37.205329 70.879,38.078 C71.0376675,38.7353366 71.1226666,39.7099935 71.134,41.002 L71.134,44.062 C71.1566668,44.1413337 71.2359993,44.282999 71.372,44.487 C71.4513337,44.6003339 71.4853334,44.7419991 71.474,44.912 Z M78.92,37.704 C78.9426668,37.8740009 78.9086671,38.0553324 78.818,38.248 C78.7046661,38.508668 78.6366668,38.7013327 78.614,38.826 C78.614,41.1833451 78.5176676,42.8209954 78.325,43.739 C77.9056646,45.6656763 77.0160068,46.629 75.656,46.629 C73.6726568,46.629 72.681,44.8213514 72.681,41.206 C72.681,40.2313285 72.7546659,39.2000054 72.902,38.112 C72.8226663,37.851332 72.783,37.619001 72.783,37.415 C72.783,37.0863317 72.8906656,36.8086678 73.106,36.582 C73.2873343,36.3893324 73.5536649,36.293 73.905,36.293 C74.1883348,36.293 74.4546654,36.3524994 74.704,36.4715 C74.9533346,36.5905006 75.1006665,36.7293325 75.146,36.888 C75.1686668,36.9673337 75.18,37.0466663 75.18,37.126 C75.18,37.2733341 75.1176673,37.5084984 74.993,37.8315 C74.8683327,38.1545016 74.8173332,38.417999 74.84,38.622 C74.7266661,39.2566698 74.67,40.0556618 74.67,41.019 C74.67,41.9936715 74.7323327,42.8039968 74.857,43.45 C75.0156675,44.1980037 75.2366653,44.572 75.52,44.572 C75.9960024,44.572 76.3076659,43.7673414 76.455,42.158 C76.5343337,41.3533293 76.574,40.0726754 76.574,38.316 C76.574,38.2026661 76.5570002,38.0383344 76.523,37.823 C76.4889998,37.6076656 76.472,37.4490005 76.472,37.347 C76.472,37.0749986 76.573999,36.8880005 76.778,36.786 C76.8913339,36.729333 77.049999,36.701 77.254,36.701 C77.6280019,36.701 77.9736651,36.7803325 78.291,36.939 C78.6650019,37.1316676 78.8746665,37.3866651 78.92,37.704 Z M86.332,38.282 C86.2413329,38.282 86.0996677,38.245167 85.907,38.1715 C85.7143324,38.097833 85.5670005,38.061 85.465,38.061 C85.3856663,38.061 85.3063338,38.0779998 85.227,38.112 L84.598,38.435 L84.598,44.249 C84.598,44.4643344 84.7141655,44.7419983 84.9465,45.082 C85.1788345,45.4220017 85.2723336,45.693999 85.227,45.898 C85.1703331,46.1473346 85.0031681,46.3456659 84.7255,46.493 C84.447832,46.6403341 84.1503349,46.714 83.833,46.714 C83.2323304,46.714 82.8186678,46.4476693 82.592,45.915 C82.5239997,45.7563325 82.4843334,45.2520042 82.473,44.402 C82.4616666,43.8353305 82.4673332,42.9513393 82.49,41.75 C82.5126668,40.3899932 82.524,39.5286685 82.524,39.166 C82.4559997,39.1886668 82.3426675,39.265166 82.184,39.3955 C82.0253326,39.525834 81.8666675,39.591 81.708,39.591 C81.5833327,39.591 81.4246677,39.5570003 81.232,39.489 C80.4386627,39.2169986 80.042,38.9393348 80.042,38.656 C80.042,38.5879997 80.0589999,38.5143337 80.093,38.435 C80.1723338,38.2536658 80.3196656,38.1516668 80.535,38.129 C80.8636683,38.0836664 81.0619997,38.0440002 81.13,38.01 C81.390668,37.9079995 81.8666632,37.6643353 82.558,37.279 L82.558,35.8 C82.558,35.6866661 82.5268337,35.5365009 82.4645,35.3495 C82.4021664,35.1624991 82.371,35.0236671 82.371,34.933 C82.371,34.8309995 82.3993331,34.7346671 82.456,34.644 C82.7506682,34.1906644 83.1473309,33.964 83.646,33.964 C84.2240029,33.964 84.6319988,34.1906644 84.87,34.644 C84.9606671,34.8253342 85.006,34.9726661 85.006,35.086 C85.006,35.2220007 84.9380007,35.3636659 84.802,35.511 C84.6659993,35.6583341 84.598,35.7943327 84.598,35.919 L84.598,36.752 C84.802001,36.6613329 85.0286654,36.5083344 85.278,36.293 C85.4706677,36.1343325 85.6349993,36.055 85.771,36.055 C85.827667,36.055 85.8899997,36.0663332 85.958,36.089 C86.6720036,36.2816676 87.029,36.71233 87.029,37.381 C87.029,37.5963344 86.963834,37.8003324 86.8335,37.993 C86.703166,38.1856676 86.536001,38.282 86.332,38.282 Z M93.659,44.215 C93.5683329,44.6456688 93.262336,45.1046642 92.741,45.592 C92.6616663,45.7166673 92.3500027,45.880999 91.806,46.085 C91.1826636,46.3230012 90.6443356,46.4250002 90.191,46.391 C89.3409958,46.334333 88.6723358,45.8470046 88.185,44.929 C87.7429978,44.0789957 87.522,43.0363395 87.522,41.801 C87.522,40.46366 87.7713309,39.2906717 88.27,38.282 C88.8253361,37.1713278 89.567662,36.5480007 90.497,36.412 C90.6783343,36.3893332 90.8539992,36.378 91.024,36.378 C92.3726734,36.378 93.1149993,37.2053251 93.251,38.86 C93.3190004,39.6193371 93.01867,40.4466622 92.35,41.342 C91.6246631,42.3280049 90.695339,43.0193314 89.562,43.416 C89.6866673,43.8693356 89.7829997,44.1639993 89.851,44.3 C90.0096675,44.5833347 90.2249987,44.725 90.497,44.725 C90.757668,44.725 91.0353319,44.623001 91.33,44.419 C91.5793346,44.2489992 91.7493329,44.0846675 91.84,43.926 C91.8853336,43.9033332 91.9306665,43.7758345 91.976,43.5435 C92.0213336,43.3111655 92.1403324,43.1440005 92.333,43.042 C92.4010004,43.0079998 92.4803329,42.991 92.571,42.991 C92.8430014,42.991 93.1064988,43.1241653 93.3615,43.3905 C93.6165013,43.6568347 93.715667,43.9316653 93.659,44.215 Z M90.99,38.231 C90.5366644,38.231 90.1683348,38.5539968 89.885,39.2 C89.5109982,40.0613376 89.3579997,40.9113291 89.426,41.75 C89.9586694,41.5799991 90.4516644,41.1833364 90.905,40.56 C91.3583356,39.9366635 91.585,39.3813358 91.585,38.894 C91.585,38.4519978 91.3866687,38.231 90.99,38.231 Z M100.867,43.722 C100.867,44.5153373 100.58367,45.1924972 100.017,45.7535 C99.4503305,46.3145028 98.7816705,46.595 98.011,46.595 C97.5236643,46.595 97.019336,46.362669 96.498,45.898 C96.089998,45.5239981 95.7216683,45.0650027 95.393,44.521 C95.1096653,44.0449976 94.9849999,43.7446673 95.019,43.62 C95.1436673,43.3366652 95.5346634,43.195 96.192,43.195 C96.4640014,43.195 96.6793326,43.2346663 96.838,43.314 C97.1100014,43.4613341 97.2629999,43.6483322 97.297,43.875 C97.3310002,44.135668 97.3876663,44.2999997 97.467,44.368 C97.7050012,44.7306685 97.9203324,44.912 98.113,44.912 C98.2603341,44.912 98.399166,44.8128343 98.5295,44.6145 C98.659834,44.4161657 98.725,44.1810014 98.725,43.909 C98.725,43.7389991 98.696667,43.5690009 98.64,43.399 C98.5833331,43.2289991 98.2773361,42.9683351 97.722,42.617 C97.05333,42.1976646 96.5773348,41.8293349 96.294,41.512 C95.8066643,40.9679973 95.563,40.333337 95.563,39.608 C95.563,38.7579957 95.8123309,38.0128365 96.311,37.3725 C96.8096692,36.7321635 97.4443295,36.412 98.215,36.412 C99.0083373,36.412 99.6146646,36.7123303 100.034,37.313 C100.374002,37.8003358 100.515667,38.2933308 100.459,38.792 C100.583667,38.9280007 100.646,39.1546651 100.646,39.472 C100.646,39.8120017 100.521335,40.1009988 100.272,40.339 C100.022665,40.5770012 99.767668,40.696 99.507,40.696 C99.1216648,40.696 98.7873348,40.4410026 98.504,39.931 C98.4246663,39.7949993 98.385,39.6136678 98.385,39.387 C98.385,39.2849995 98.3934999,39.1405009 98.4105,38.9535 C98.4275001,38.7664991 98.436,38.6333337 98.436,38.554 C98.436,38.2593319 98.3283344,38.112 98.113,38.112 C97.7843317,38.112 97.62,38.4349968 97.62,39.081 C97.62,39.7383366 97.8353312,40.2653313 98.266,40.662 C98.4360009,40.8206675 98.8043305,41.0473319 99.371,41.342 C99.8583358,41.5913346 100.203999,41.846332 100.408,42.107 C100.714002,42.5036687 100.867,43.0419966 100.867,43.722 Z M111.798,43.178 C111.786667,43.4273346 111.679001,43.682332 111.475,43.943 C111.157665,44.3170019 110.953667,44.6003324 110.863,44.793 C110.148996,45.8810054 109.412337,46.425 108.653,46.425 C107.757662,46.425 107.060669,45.9716712 106.562,45.065 C106.119998,44.2376625 105.899,43.1950063 105.899,41.937 C105.899,40.4976595 106.170997,39.2453387 106.715,38.18 C107.31567,37.0013274 108.091995,36.412 109.044,36.412 C109.792004,36.412 110.398331,36.8256625 110.863,37.653 C111.248335,38.3556702 111.441,39.1206625 111.441,39.948 C111.441,40.1746678 111.424,40.3729991 111.39,40.543 C111.310666,40.9283353 110.98767,41.121 110.421,41.121 C109.978998,41.121 109.639001,40.9963346 109.401,40.747 C109.287666,40.6223327 109.231,40.3333356 109.231,39.88 C109.231,39.7666661 109.236667,39.6023344 109.248,39.387 L109.248,38.894 C109.248,38.3839974 109.157334,38.129 108.976,38.129 C108.783332,38.129 108.579334,38.6871611 108.364,39.8035 C108.148666,40.9198389 108.041,41.9653285 108.041,42.94 C108.041,44.073339 108.210998,44.64 108.551,44.64 C108.993002,44.64 109.321666,44.2830036 109.537,43.569 C109.627667,43.4669995 109.678667,43.2630015 109.69,42.957 C109.69,42.6849986 109.757999,42.5065004 109.894,42.4215 C110.030001,42.3364996 110.228332,42.294 110.489,42.294 C110.829002,42.294 111.123665,42.3676659 111.373,42.515 C111.667668,42.6850009 111.809333,42.9059986 111.798,43.178 Z M120.009,44.572 C120.077,44.8553347 120.111,45.0366663 120.111,45.116 C120.111,45.3540012 119.972168,45.5494992 119.6945,45.7025 C119.416832,45.8555008 119.119335,45.932 118.802,45.932 C118.314664,45.932 118.003001,45.7506685 117.867,45.388 C117.810333,45.2406659 117.782,45.1160005 117.782,45.014 C117.782,44.8666659 117.847166,44.7080008 117.9775,44.538 C118.107834,44.3679992 118.173,44.2093341 118.173,44.062 C118.309001,43.4726637 118.377,42.6226722 118.377,41.512 C118.377,39.5853237 118.241001,38.5993336 117.969,38.554 C117.764999,38.5199998 117.436336,38.8429966 116.983,39.523 C116.506998,40.2370036 116.110335,41.0359956 115.793,41.92 C115.418998,42.9626719 115.260333,43.8806627 115.317,44.674 C115.283,44.7420003 115.266,44.8099997 115.266,44.878 C115.266,44.9800005 115.311333,45.1244991 115.402,45.3115 C115.492667,45.4985009 115.538,45.6486661 115.538,45.762 C115.538,45.8753339 115.498334,45.9829995 115.419,46.085 C115.112999,46.5270022 114.807002,46.748 114.501,46.748 C114.183665,46.748 113.877668,46.4986692 113.583,46 C113.412999,45.7053319 113.328,44.0110155 113.328,40.917 C113.328,39.783661 113.356333,37.2053534 113.413,33.182 C113.413,33.1139997 113.407333,33.0091674 113.396,32.8675 C113.384667,32.7258326 113.379,32.6153337 113.379,32.536 C113.390333,32.4226661 113.424333,32.3206671 113.481,32.23 C113.605667,31.9919988 113.871998,31.873 114.28,31.873 C114.642669,31.873 114.974165,31.9693324 115.2745,32.162 C115.574835,32.3546676 115.691,32.581332 115.623,32.842 C115.611667,32.9100003 115.557834,32.9893329 115.4615,33.08 C115.365166,33.1706671 115.317,33.2613329 115.317,33.352 L115.317,38.826 C115.963003,37.3753261 116.914994,36.6046671 118.173,36.514 C118.853003,36.4686664 119.396998,36.9786613 119.805,38.044 C120.179002,39.0186715 120.366,40.2143262 120.366,41.631 C120.366,42.7190054 120.247001,43.699329 120.009,44.572 Z M128.203,37.33 C128.157666,37.5680012 127.942335,37.7323329 127.557,37.823 C127.103664,37.9363339 126.814667,38.0666659 126.69,38.214 L123.919,41.41 L123.919,43.994 C123.919,44.2433346 123.989833,44.4954987 124.1315,44.7505 C124.273167,45.0055013 124.344,45.2009993 124.344,45.337 C124.344,45.4730007 124.304334,45.6259991 124.225,45.796 C124.032332,46.2266688 123.641336,46.442 123.052,46.442 C122.643998,46.442 122.321001,46.311668 122.083,46.051 C121.924333,45.8809992 121.845,45.665668 121.845,45.405 C121.845,45.3143329 121.856333,45.167001 121.879,44.963 C121.901667,44.758999 121.913,44.5946673 121.913,44.47 L121.913,38.112 C121.913,38.0099995 121.867667,37.8853341 121.777,37.738 C121.686333,37.5906659 121.641,37.4716671 121.641,37.381 C121.641,37.3129997 121.663666,37.2336671 121.709,37.143 C121.856334,36.8709986 122.31533,36.735 123.086,36.735 C123.68667,36.735 124.026666,36.8766653 124.106,37.16 C124.14,37.2733339 124.157,37.3696663 124.157,37.449 C124.157,37.5736673 124.111667,37.6699997 124.021,37.738 C123.930333,37.8060003 123.885,37.8739997 123.885,37.942 L123.919,38.554 L125.381,37.007 C125.551001,36.8143324 125.729499,36.6216676 125.9165,36.429 C126.103501,36.2363324 126.321665,36.1286668 126.571,36.106 C126.956335,36.0719998 127.327498,36.156999 127.6845,36.361 C128.041502,36.565001 128.22,36.8313317 128.22,37.16 C128.22,37.2166669 128.214333,37.273333 128.203,37.33 Z M133.847,37.228 C134.606337,37.9986705 134.986,39.2963242 134.986,41.121 C134.986,42.5376737 134.719669,43.7446617 134.187,44.742 C133.58633,45.8640056 132.759005,46.425 131.705,46.425 C130.662328,46.425 129.85767,45.9206717 129.291,44.912 C128.792331,44.0279956 128.543,42.9060068 128.543,41.546 C128.543,40.3446607 128.735665,39.2680048 129.121,38.316 C129.529002,37.2959949 130.05033,36.6953342 130.685,36.514 C131.013668,36.4233329 131.353665,36.378 131.705,36.378 C132.577671,36.378 133.291664,36.6613305 133.847,37.228 Z M131.909,38.044 C131.534998,38.0099998 131.212001,38.3613297 130.94,39.098 C130.701999,39.76667 130.583,40.4693297 130.583,41.206 C130.583,42.2713387 130.628333,43.0249978 130.719,43.467 C130.877668,44.2603373 131.206331,44.6966663 131.705,44.776 C132.022335,44.8213336 132.316999,44.3850046 132.589,43.467 C132.849668,42.5829956 132.98,41.6366717 132.98,40.628 C132.98,38.9733251 132.623004,38.1120003 131.909,38.044 Z M144.166,44.912 C144.143333,45.1613346 143.979002,45.3738325 143.673,45.5495 C143.366999,45.7251675 143.027002,45.813 142.653,45.813 C142.097664,45.813 141.718001,45.6373351 141.514,45.286 C141.604667,41.7953159 141.502668,40.0273336 141.208,39.982 C140.924665,39.9366664 140.233339,41.5006508 139.134,44.674 L139.134,45.694 C139.122667,46.102002 139.012168,46.3909991 138.8025,46.561 C138.592832,46.7310009 138.369001,46.816 138.131,46.816 C137.722998,46.816 137.286669,46.5950022 136.822,46.153 C136.685999,46.0396661 136.612333,45.1783414 136.601,43.569 C136.612333,44.5550049 136.618,42.7246899 136.618,38.078 C136.618,37.9759995 136.606667,37.8371675 136.584,37.6615 C136.561333,37.4858325 136.55,37.3583337 136.55,37.279 C136.55,37.0636656 136.606666,36.8766675 136.72,36.718 C136.856001,36.513999 137.071332,36.412 137.366,36.412 C137.672002,36.412 137.992165,36.5054991 138.3265,36.6925 C138.660835,36.8795009 138.862,37.0579992 138.93,37.228 C138.975334,37.3413339 138.998,37.4546661 138.998,37.568 C138.998,37.6813339 138.952667,37.839999 138.862,38.044 C138.771333,38.248001 138.726,38.4179993 138.726,38.554 L138.726,40.9 C139.440004,39.3813257 139.978332,38.3783358 140.341,37.891 C140.987003,37.0523291 141.717996,36.661333 142.534,36.718 C143.021336,36.7520002 143.366999,37.205329 143.571,38.078 C143.729668,38.7353366 143.814667,39.7099935 143.826,41.002 L143.826,44.062 C143.848667,44.1413337 143.927999,44.282999 144.064,44.487 C144.143334,44.6003339 144.177333,44.7419991 144.166,44.912 Z M150.66,37.228 C151.419337,37.9986705 151.799,39.2963242 151.799,41.121 C151.799,42.5376737 151.532669,43.7446617 151,44.742 C150.39933,45.8640056 149.572005,46.425 148.518,46.425 C147.475328,46.425 146.67067,45.9206717 146.104,44.912 C145.605331,44.0279956 145.356,42.9060068 145.356,41.546 C145.356,40.3446607 145.548665,39.2680048 145.934,38.316 C146.342002,37.2959949 146.86333,36.6953342 147.498,36.514 C147.826668,36.4233329 148.166665,36.378 148.518,36.378 C149.390671,36.378 150.104664,36.6613305 150.66,37.228 Z M148.722,38.044 C148.347998,38.0099998 148.025001,38.3613297 147.753,39.098 C147.514999,39.76667 147.396,40.4693297 147.396,41.206 C147.396,42.2713387 147.441333,43.0249978 147.532,43.467 C147.690668,44.2603373 148.019331,44.6966663 148.518,44.776 C148.835335,44.8213336 149.129999,44.3850046 149.402,43.467 C149.662668,42.5829956 149.793,41.6366717 149.793,40.628 C149.793,38.9733251 149.436004,38.1120003 148.722,38.044 Z" id="Devis-gratuit-en-2-m" fill="#285943"></path>
            </g>
        </g>
    </g>
</svg>