<?xml version="1.0" encoding="utf-8"?>
<!-- Generator: Adobe Illustrator 22.1.0, SVG Export Plug-In . SVG Version: 6.00 Build 0)  -->
<svg version="1.0" id="Calque_1" xmlns="http://www.w3.org/2000/svg" xmlns:xlink="http://www.w3.org/1999/xlink" x="0px" y="0px"
	 viewBox="0 0 440 92" style="enable-background:new 0 0 440 92;" xml:space="preserve">
<style type="text/css">
	.st0{fill:#FFFFFF;}
	.st1{fill:#EDEFEF;}
</style>
<g id="house">
	<path id="Fill-1" class="st0" d="M75.7,77.9c-0.4,0.2-0.7,0.4-1.1,0.6c-0.4,0.2-0.7,0.4-1.1,0.5c-0.3,0.1-0.5,0.3-0.7,0.4
		c-0.3,0.1-0.5,0.2-0.8,0.4c-0.3,0.1-0.5,0.2-0.8,0.3c-0.2,0.1-0.4,0.2-0.6,0.2c-1.2,0.5-2.4,0.9-3.8,1.3c-0.2,0-0.3,0.1-0.5,0.1
		c-0.2,0.1-0.4,0.1-0.6,0.1l-0.3,0.1c-2.6,0.6-5.2,0.9-7.8,0.9h-0.1c-2.9,0-5.9-0.4-8.7-1.2c-0.5-0.1-0.9-0.3-1.4-0.4
		c-0.7-0.2-1.4-0.4-2.1-0.7c-0.3-0.1-0.5-0.2-0.7-0.3c-0.4-0.1-0.7-0.3-1.1-0.4c-0.4-0.1-0.7-0.3-1-0.5c-0.1,0-0.2-0.1-0.2-0.1
		c-0.4-0.2-0.7-0.3-1.1-0.5c-0.5-0.3-1-0.5-1.5-0.8c0,0,0,0,0,0l0.9-1.5l0,0c0.6-1,1.8-1.3,2.9-0.8c0,0,0.1,0,0.1,0.1l0.5,0.2
		c0.4,0.2,0.7,0.4,1.1,0.5c0.3,0.1,0.6,0.3,0.9,0.4c0.5,0.2,1.1,0.4,1.6,0.6c0.5,0.2,1.1,0.4,1.6,0.5c1,0.3,2.1,0.5,3.2,0.7
		c0.6,0.1,1.1,0.2,1.7,0.3c1.1,0.1,2.3,0.2,3.4,0.2h0.1c1.1,0,2.3-0.1,3.4-0.2c1.1-0.1,2.3-0.3,3.3-0.6l0.5-0.1c0.1,0,0.2,0,0.2-0.1
		l0.3-0.1c0.1,0,0.1,0,0.2-0.1l0.3-0.1c0.5-0.2,1.1-0.3,1.6-0.5c0.5-0.2,1.1-0.4,1.6-0.6c0.3-0.1,0.5-0.2,0.8-0.3
		c0.4-0.2,0.8-0.4,1.3-0.6c0.2-0.1,0.4-0.2,0.6-0.3c1-0.5,2.3-0.2,2.9,0.8L75.7,77.9L75.7,77.9L75.7,77.9z M57.8,18.5L57.8,18.5
		L16.6,52.1v34c0,3,2.4,5.4,5.4,5.4h71.4c3,0,5.4-2.4,5.4-5.4v-34L57.8,18.5z"/>
	<g id="Group-5" transform="translate(0.000000, 0.133034)">
		<path id="Fill-3" class="st0" d="M114.8,47.1l-4,4.9c-0.5,0.7-1.3,1-2.1,1c-0.6,0-1.2-0.2-1.7-0.6l-8.2-6.7L64.3,17.4l-4.4-3.6
			l-1.5-1.2L57.8,12l0,0l-0.6,0.5L57,12.6l-1.6,1.3l-4.3,3.5L16.6,45.6L9,51.9l-0.5,0.4C8,52.8,7.3,53,6.7,53c-0.8,0-1.6-0.3-2.1-1
			l-4-4.9c-1-1.2-0.8-2.8,0.4-3.8l15.6-12.8l16-13.1L49.6,3.5c2.4-1.9,5.2-2.9,8.1-2.9h0c2.9,0,5.8,1,8.1,2.9l14.5,11.8V3.6
			c0-1.7,1.4-3.1,3.1-3.1h12.2c1.7,0,3.1,1.4,3.1,3.1v26.9l0.1,0l15.6,12.8C115.6,44.3,115.8,46,114.8,47.1"/>
	</g>
	<path id="Fill-6" class="st1" d="M98.8,52.1v34c0,3-2.4,5.4-5.4,5.4H57.8v-8.6h0.1c2.6,0,5.2-0.3,7.8-0.9l0.3-0.1
		c0.2,0,0.4-0.1,0.6-0.1c0.2,0,0.3-0.1,0.5-0.1c1.4-0.4,2.6-0.8,3.8-1.3c0.2-0.1,0.4-0.1,0.6-0.2c0.3-0.1,0.5-0.2,0.8-0.3
		c0.3-0.1,0.5-0.2,0.8-0.4c0.2-0.1,0.5-0.2,0.7-0.4c0.4-0.2,0.7-0.3,1.1-0.5c0.3-0.2,0.7-0.4,1.1-0.6v0l-0.9-1.6
		c-0.6-1-1.8-1.3-2.9-0.8c-0.2,0.1-0.4,0.2-0.6,0.3c-0.4,0.2-0.8,0.4-1.3,0.6c-0.3,0.1-0.5,0.2-0.8,0.3c-0.5,0.2-1.1,0.4-1.6,0.6
		c-0.5,0.2-1.1,0.4-1.6,0.5l-0.3,0.1c-0.1,0-0.1,0-0.2,0.1L65.3,78c-0.1,0-0.1,0-0.2,0.1l-0.5,0.1c-1.1,0.3-2.2,0.4-3.3,0.6
		c-1.1,0.1-2.3,0.2-3.4,0.2h-0.1V18.5L98.8,52.1z"/>
	<g id="Group-10" transform="translate(0.000000, 0.133034)">
		<g id="Clip-9">
		</g>
		<path id="Fill-8" class="st1" d="M114.8,47.1l-4,4.9c-0.5,0.7-1.3,1-2.1,1c-0.6,0-1.2-0.2-1.7-0.6l-8.2-6.7L64.3,17.4l-4.4-3.6
			l-1.5-1.2L57.8,12V0.6c2.9,0,5.8,1,8.1,2.9l14.5,11.8V3.6c0-1.7,1.4-3.1,3.1-3.1h12.2c1.7,0,3.1,1.4,3.1,3.1v26.9l0.1,0l15.6,12.8
			C115.6,44.3,115.8,46,114.8,47.1"/>
	</g>
</g>
<g id="hellocasa" transform="translate(143.000000, 18.000000)">
	<g id="Group">
		<path id="Shape" class="st1" d="M27.4,55V29.8c0-6.3-3.1-8.1-8-8.1c-4.4,0-8.2,2.6-10.2,5.3v28H0.6V-0.2h8.6v20.6
			C11.9,17.3,17,14,23.2,14C31.7,14,36,18.5,36,26.7V55H27.4L27.4,55z"/>
		<path id="Shape_1_" class="st1" d="M39.8,35c0-11.6,8.4-20.9,20.1-20.9c11.9,0,19.4,9.1,19.4,21.7v2.1H48.8c0.7,6,5.1,11,12.6,11
			c3.9,0,8.5-1.6,11.3-4.5l3.9,5.7c-4,3.8-9.8,5.9-16.1,5.9C48.5,56,39.8,47.6,39.8,35L39.8,35z M59.8,21.2
			c-7.3,0-10.7,5.7-11.1,10.5H71C70.8,26.9,67.6,21.2,59.8,21.2L59.8,21.2z"/>
		<polygon id="Shape_2_" class="st1" points="82.8,55 82.8,-0.2 91.5,-0.2 91.5,55 		"/>
		<polygon id="Shape_3_" class="st1" points="97.6,55 97.6,-0.2 106.2,-0.2 106.2,55 		"/>
		<path id="Shape_4_" class="st1" d="M110,35c0-11.5,7.7-20.9,20.3-20.9c12.6,0,20.3,9.4,20.3,20.9c0,11.4-7.7,21-20.3,21
			C117.7,56,110,46.4,110,35L110,35z M141.8,35c0-7-4-13.2-11.4-13.2c-7.3,0-11.4,6.2-11.4,13.2c0,7.1,4.1,13.3,11.4,13.3
			C137.7,48.3,141.8,42.1,141.8,35L141.8,35z"/>
		<path id="Shape_5_" class="st1" d="M152.1,35c0-12.1,8.4-20.9,20.4-20.9c7.8,0,12.4,3.3,15.2,7.1l-5.7,5.2
			c-2.2-3.1-5.2-4.6-9.1-4.6c-7.1,0-12,5.5-12,13.2c0,7.8,4.8,13.3,12,13.3c3.9,0,6.9-1.7,9.1-4.8l5.7,5.4
			c-2.8,3.7-7.4,7.1-15.2,7.1C160.6,56,152.1,47,152.1,35L152.1,35z"/>
		<path id="Shape_6_" class="st1" d="M214.6,55v-4.4c-3,3.5-7.6,5.4-12.9,5.4c-6.4,0-13.7-4.5-13.7-13.2c0-9.3,7.2-13.1,13.7-13.1
			c5.4,0,9.9,1.7,12.9,5.1v-6c0-4.6-3.9-7.4-9.3-7.4c-4.4,0-8.4,1.7-11.7,5.1l-3.6-6c4.6-4.5,10.3-6.4,16.7-6.4
			c8.9,0,16.6,3.7,16.6,14.4V55L214.6,55L214.6,55L214.6,55z M214.6,45.9v-6.1c-2.1-2.7-5.7-4.1-9.4-4.1c-4.8,0-8.5,2.9-8.5,7.2
			c0,4.4,3.7,7.2,8.5,7.2C208.9,50,212.6,48.6,214.6,45.9L214.6,45.9z"/>
		<path id="Shape_7_" class="st1" d="M226,49.7l3.9-6.2c2.8,2.9,8.3,5.5,13.4,5.5c5.2,0,7.9-2.2,7.9-5.3c0-7.9-24-2.2-24-17.6
			c0-6.5,5.6-12.1,15.6-12.1c6.7,0,11.8,2.4,15.3,5.5l-3.6,6.1c-2.4-2.6-6.7-4.8-11.7-4.8c-4.5,0-7.3,2.2-7.3,5c0,7,24,1.7,24,17.6
			c0,7.1-5.8,12.5-16.5,12.5C236.2,56,230.1,53.7,226,49.7L226,49.7z"/>
		<path id="Shape_8_" class="st1" d="M287.4,55v-4.4c-3,3.5-7.6,5.4-12.9,5.4c-6.4,0-13.7-4.5-13.7-13.2c0-9.3,7.2-13.1,13.7-13.1
			c5.4,0,9.9,1.7,12.9,5.1v-6c0-4.6-3.9-7.4-9.3-7.4c-4.4,0-8.4,1.7-11.7,5.1l-3.6-6c4.6-4.5,10.3-6.4,16.7-6.4
			c8.9,0,16.6,3.7,16.6,14.4V55L287.4,55L287.4,55z M287.4,45.9v-6.1c-2.1-2.7-5.7-4.1-9.4-4.1c-4.8,0-8.5,2.9-8.5,7.2
			c0,4.4,3.7,7.2,8.5,7.2C281.7,50,285.4,48.6,287.4,45.9L287.4,45.9z"/>
	</g>
</g>
</svg>
