<?xml version="1.0" encoding="UTF-8" standalone="no"?>
<svg version="1.1" class="mainLogo" xmlns="http://www.w3.org/2000/svg" xmlns:xlink="http://www.w3.org/1999/xlink" x="0px" y="0px" viewBox="0 0 152.304 31.1" style="enable-background:new 0 0 152.304 31.1;" xml:space="preserve">
  <g class="homeWhite" id="hellocasa">
    <g>
      <path fill="#00ACC1" d="M55.798,25.306v-8.997c0-2.265-1.1-2.913-2.848-2.913c-1.618,0-2.977,0.971-3.625,1.877v9.968h-3.107V5.63
        h3.107v7.314c0.971-1.1,2.783-2.265,4.984-2.265c3.042,0,4.596,1.618,4.596,4.531v10.097H55.798L55.798,25.306z"/>
      <path fill="#00ACC1" d="M60.264,18.186c0-4.142,2.977-7.443,7.249-7.443s6.99,3.236,6.99,7.702v0.777H63.5
        c0.259,2.136,1.812,3.948,4.531,3.948c1.424,0,3.042-0.583,4.078-1.618l1.424,2.007c-1.424,1.359-3.56,2.071-5.761,2.071
        C63.371,25.63,60.264,22.653,60.264,18.186z M67.448,13.203c-2.654,0-3.884,2.007-3.948,3.754h8.026
        C71.397,15.274,70.231,13.203,67.448,13.203z"/>
      <path fill="#00ACC1" d="M75.733,25.306V5.63h3.107v19.677H75.733z"/>
      <path fill="#00ACC1" d="M81.041,25.306V5.63h3.107v19.677H81.041z"/>
      <path fill="#00ACC1" d="M85.442,18.186c0-4.078,2.783-7.443,7.314-7.443c4.531,0,7.314,3.366,7.314,7.443s-2.783,7.508-7.314,7.508
        S85.442,22.199,85.442,18.186z M96.899,18.186c0-2.524-1.424-4.725-4.078-4.725c-2.654,0-4.078,2.201-4.078,4.725
        s1.489,4.725,4.078,4.725S96.899,20.711,96.899,18.186z"/>
      <path fill="#0CA2B4" d="M100.588,18.186c0-4.272,3.042-7.443,7.314-7.443c2.783,0,4.466,1.165,5.437,2.524l-2.007,1.877
        c-0.777-1.1-1.877-1.618-3.301-1.618c-2.589,0-4.272,1.942-4.272,4.725s1.748,4.725,4.272,4.725c1.359,0,2.46-0.583,3.301-1.683
        l2.007,1.942c-0.971,1.295-2.654,2.524-5.437,2.524C103.63,25.63,100.588,22.458,100.588,18.186z"/>
      <path fill="#0CA2B4" d="M123.048,25.306v-1.553c-1.036,1.23-2.718,1.942-4.596,1.942c-2.265,0-4.919-1.618-4.919-4.725
        c0-3.301,2.589-4.66,4.919-4.66c1.942,0,3.56,0.647,4.596,1.812v-2.136c0-1.618-1.359-2.654-3.301-2.654
        c-1.618,0-2.977,0.583-4.207,1.812l-1.295-2.136c1.618-1.618,3.689-2.265,5.955-2.265c3.172,0,5.955,1.295,5.955,5.113v9.45
        L123.048,25.306L123.048,25.306z M123.048,22.07v-2.201c-0.712-0.971-2.071-1.489-3.366-1.489c-1.748,0-3.042,1.036-3.042,2.589
        c0,1.553,1.295,2.589,3.042,2.589C120.977,23.494,122.271,23.041,123.048,22.07z"/>
      <path fill="#0CA2B4" d="M127.126,23.429l1.424-2.201c0.971,1.036,2.977,1.942,4.79,1.942c1.877,0,2.848-0.777,2.848-1.877
        c0-2.783-8.609-0.777-8.609-6.278c0-2.33,2.007-4.272,5.566-4.272c2.395,0,4.272,0.841,5.502,1.942l-1.295,2.201
        c-0.841-0.971-2.395-1.683-4.207-1.683c-1.618,0-2.654,0.777-2.654,1.748c0,2.524,8.609,0.647,8.609,6.278
        c0,2.524-2.071,4.466-5.89,4.466C130.815,25.63,128.614,24.853,127.126,23.429z"/>
      <path fill="#0CA2B4" d="M149.197,25.306v-1.553c-1.036,1.23-2.719,1.942-4.596,1.942c-2.33,0-4.919-1.618-4.919-4.725
        c0-3.301,2.589-4.66,4.919-4.66c1.942,0,3.56,0.647,4.596,1.812v-2.136c0-1.618-1.359-2.654-3.301-2.654
        c-1.618,0-2.977,0.583-4.207,1.812l-1.295-2.136c1.618-1.618,3.689-2.265,5.955-2.265c3.172,0,5.955,1.295,5.955,5.113v9.45
        L149.197,25.306L149.197,25.306z M149.197,22.07v-2.201c-0.712-0.971-2.071-1.489-3.366-1.489c-1.748,0-3.042,1.036-3.042,2.589
        c0,1.553,1.295,2.589,3.042,2.589C147.126,23.494,148.421,23.041,149.197,22.07z"/>
    </g>
  </g>
  <path fill="#00ACC1" d="M33.461,17.813c0.028-0.055,0-0.111,0-0.139L19.524,6.264L5.588,17.674v0.083
    C5.56,17.785,5.56,17.813,5.56,17.813v11.576c0,0.417,0.166,0.778,0.472,1.082c0.306,0.306,0.666,0.444,1.083,0.444h24.82
    c0.417,0,0.778-0.139,1.083-0.444c0.083-0.083,0.139-0.166,0.194-0.25c0.194-0.25,0.278-0.527,0.278-0.833L33.461,17.813z
     M23.8,27.086c-0.444,0.222-0.916,0.389-1.388,0.5c-0.472,0.139-0.944,0.25-1.416,0.306c-0.472,0.055-0.972,0.083-1.471,0.083
    c-0.499,0-0.999-0.028-1.471-0.083s-0.944-0.166-1.416-0.306c-0.472-0.111-0.944-0.278-1.388-0.5
    c-0.472-0.194-0.916-0.444-1.388-0.75l0.417-0.638c0.028-0.055,0.055-0.111,0.111-0.166c0.055-0.028,0.111-0.055,0.194-0.055
    c0.028,0,0.083,0,0.111,0.028c0.055,0,0.111,0.028,0.166,0.055c0.694,0.361,1.444,0.638,2.221,0.861
    c0.805,0.194,1.61,0.278,2.443,0.278c0.417,0,0.833-0.028,1.222-0.055c0.417-0.055,0.833-0.111,1.222-0.222s0.778-0.222,1.138-0.389
    c0.361-0.139,0.75-0.278,1.083-0.472c0.111-0.055,0.194-0.083,0.278-0.083c0.083,0,0.139,0.028,0.194,0.055
    c0.055,0.055,0.083,0.083,0.111,0.139v0.028l0.389,0.638C24.687,26.642,24.271,26.891,23.8,27.086z"/>
  <path fill="#00ACC1" d="M39.04,15.592c0.028,0.222-0.028,0.417-0.166,0.555l-1.499,1.805c-0.139,0.139-0.306,0.222-0.5,0.25h-0.083
    c-0.194,0-0.389-0.055-0.5-0.166L19.524,4.153V4.125L2.756,18.035c-0.194,0.139-0.389,0.194-0.583,0.166
    c-0.194-0.028-0.361-0.111-0.5-0.25l-1.499-1.777c-0.139-0.166-0.194-0.361-0.166-0.583c0-0.222,0.083-0.389,0.25-0.5L17.691,0.655
    c0.5-0.417,1.11-0.638,1.833-0.638c0.583,0,1.138,0.166,1.61,0.5C21.217,0.545,21.3,0.6,21.357,0.656L27.27,5.57V0.85
    c0-0.222,0.083-0.389,0.222-0.555c0.139-0.139,0.333-0.194,0.555-0.194h4.665c0.222,0,0.389,0.055,0.555,0.194
    c0.139,0.167,0.194,0.334,0.194,0.556l0.028,9.828l5.303,4.387C38.929,15.203,39.04,15.369,39.04,15.592z"/>
  <path fill="#0CA2B4" d="M33.489,29.391c0,0.306-0.083,0.583-0.278,0.833c-0.055,0.083-0.111,0.166-0.194,0.25
    c-0.306,0.306-0.666,0.444-1.083,0.444H19.522v-2.943c0.5,0,0.999-0.028,1.471-0.083s0.944-0.166,1.416-0.306
    c0.472-0.111,0.944-0.278,1.388-0.5c0.472-0.194,0.889-0.444,1.361-0.75l-0.389-0.638v-0.028c-0.028-0.055-0.055-0.083-0.111-0.139
    c-0.055-0.028-0.111-0.055-0.194-0.055s-0.166,0.028-0.278,0.083c-0.333,0.194-0.721,0.333-1.083,0.472
    c-0.361,0.166-0.75,0.278-1.138,0.389s-0.806,0.166-1.222,0.222c-0.389,0.028-0.806,0.055-1.222,0.055V6.264l13.936,11.411
    c0,0.028,0.028,0.083,0,0.139L33.489,29.391z"/>
  <path fill="#0CA2B4" d="M39.04,15.592c0.028,0.222-0.028,0.417-0.166,0.555l-1.499,1.805c-0.139,0.139-0.306,0.222-0.5,0.25h-0.083
    c-0.194,0-0.389-0.055-0.5-0.166L19.524,4.153V0.017c0.583,0,1.138,0.166,1.61,0.5C21.217,0.545,21.3,0.6,21.357,0.656L27.27,5.57
    V0.85c0-0.222,0.083-0.389,0.222-0.555c0.139-0.139,0.333-0.194,0.555-0.194h4.665c0.222,0,0.389,0.055,0.555,0.194
    c0.139,0.167,0.194,0.334,0.194,0.556l0.028,9.828l5.303,4.387C38.929,15.203,39.04,15.369,39.04,15.592z"/>
</svg>
