<svg xmlns="http://www.w3.org/2000/svg" xmlns:xlink="http://www.w3.org/1999/xlink" viewBox="0 0 250 250"><defs><style>.cls-1{fill:none;}.cls-2{isolation:isolate;}.cls-3{clip-path:url(#clip-path);}.cls-4{fill:#e2c9af;}.cls-5{opacity:0.09;mix-blend-mode:color-burn;}.cls-6{fill:url(#Dégradé_sans_nom);}.cls-7{fill:url(#Dégradé_sans_nom-2);}.cls-8{fill:url(#Dégradé_sans_nom-3);}.cls-9{fill:url(#Dégradé_sans_nom-4);}.cls-10{fill:url(#Dégradé_sans_nom-5);}.cls-11{fill:url(#Dégradé_sans_nom-6);}.cls-12{fill:url(#Dégradé_sans_nom-7);}.cls-13{fill:url(#Dégradé_sans_nom-8);}.cls-14{fill:url(#Dégradé_sans_nom-9);}.cls-15{fill:url(#Dégradé_sans_nom-10);}.cls-16{fill:url(#Dégradé_sans_nom-11);}.cls-17{fill:url(#Dégradé_sans_nom-12);}.cls-18{fill:url(#Dégradé_sans_nom-13);}.cls-19{fill:url(#Dégradé_sans_nom-14);}.cls-20{fill:url(#Dégradé_sans_nom-15);}.cls-21{fill:url(#Dégradé_sans_nom-16);}.cls-22{fill:url(#Dégradé_sans_nom-17);}.cls-23{fill:url(#Dégradé_sans_nom-18);}.cls-24{fill:#ede7e4;}.cls-25{fill:#96806f;}</style><clipPath id="clip-path"><rect class="cls-1" width="250" height="250"/></clipPath><linearGradient id="Dégradé_sans_nom" x1="-2.11" y1="107.21" x2="76.49" y2="107.21" gradientUnits="userSpaceOnUse"><stop offset="0" stop-color="#fff"/><stop offset="1"/></linearGradient><linearGradient id="Dégradé_sans_nom-2" x1="-2.11" y1="55.38" x2="76.49" y2="55.38" xlink:href="#Dégradé_sans_nom"/><linearGradient id="Dégradé_sans_nom-3" x1="-2.11" y1="160.94" x2="76.49" y2="160.94" xlink:href="#Dégradé_sans_nom"/><linearGradient id="Dégradé_sans_nom-4" x1="77.5" y1="186.79" x2="184.28" y2="186.79" xlink:href="#Dégradé_sans_nom"/><linearGradient id="Dégradé_sans_nom-5" x1="3.95" y1="28.52" x2="76.49" y2="28.52" xlink:href="#Dégradé_sans_nom"/><linearGradient id="Dégradé_sans_nom-6" x1="185.3" y1="32.17" x2="252.12" y2="32.17" xlink:href="#Dégradé_sans_nom"/><linearGradient id="Dégradé_sans_nom-7" x1="77.5" y1="55.34" x2="184.28" y2="55.34" xlink:href="#Dégradé_sans_nom"/><linearGradient id="Dégradé_sans_nom-8" x1="234.03" y1="5.31" x2="252.12" y2="5.31" xlink:href="#Dégradé_sans_nom"/><linearGradient id="Dégradé_sans_nom-9" x1="77.5" y1="28.48" x2="142.74" y2="28.48" xlink:href="#Dégradé_sans_nom"/><linearGradient id="Dégradé_sans_nom-10" x1="-2.11" y1="230.55" x2="48.92" y2="230.55" xlink:href="#Dégradé_sans_nom"/><linearGradient id="Dégradé_sans_nom-11" x1="77.5" y1="144.01" x2="184.28" y2="144.01" xlink:href="#Dégradé_sans_nom"/><linearGradient id="Dégradé_sans_nom-12" x1="185.3" y1="213.13" x2="252.12" y2="213.13" xlink:href="#Dégradé_sans_nom"/><linearGradient id="Dégradé_sans_nom-13" x1="185.3" y1="174.04" x2="252.12" y2="174.04" xlink:href="#Dégradé_sans_nom"/><linearGradient id="Dégradé_sans_nom-14" x1="-2.11" y1="203.68" x2="76.49" y2="203.68" xlink:href="#Dégradé_sans_nom"/><linearGradient id="Dégradé_sans_nom-15" x1="185.3" y1="66.58" x2="252.12" y2="66.58" xlink:href="#Dégradé_sans_nom"/><linearGradient id="Dégradé_sans_nom-16" x1="102.32" y1="213.66" x2="184.28" y2="213.66" xlink:href="#Dégradé_sans_nom"/><linearGradient id="Dégradé_sans_nom-17" x1="77.5" y1="90.28" x2="184.28" y2="90.28" xlink:href="#Dégradé_sans_nom"/><linearGradient id="Dégradé_sans_nom-18" x1="185.3" y1="120.31" x2="252.12" y2="120.31" xlink:href="#Dégradé_sans_nom"/></defs><title>Icone_carrelage</title><g class="cls-2"><g id="Calque_1" data-name="Calque 1"><g class="cls-3"><polygon class="cls-4" points="-2.12 100.21 76.48 166.61 76.48 114.22 -2.12 47.81 -2.12 100.21"/><polygon class="cls-4" points="-2.12 -2.13 -2.12 46.48 76.48 112.89 76.48 60.49 2.37 -2.13 -2.12 -2.13"/><polygon class="cls-4" points="-2.12 153.93 76.48 220.34 76.48 167.94 -2.12 101.54 -2.12 153.93"/><polygon class="cls-4" points="77.5 252.1 100.82 252.1 184.27 173.81 184.27 121.48 77.5 221.66 77.5 252.1"/><polygon class="cls-4" points="76.48 59.16 76.48 -2.13 3.94 -2.13 76.48 59.16"/><polygon class="cls-4" points="185.29 -2.13 185.29 11.68 185.36 11.61 252.11 66.47 252.11 14.06 232.41 -2.13 185.29 -2.13"/><polygon class="cls-4" points="77.5 60.48 77.5 112.81 184.27 12.63 184.27 -2.13 144.22 -2.13 77.5 60.48"/><polygon class="cls-4" points="234.02 -2.13 252.11 12.74 252.11 -2.13 234.02 -2.13"/><polygon class="cls-4" points="77.5 -2.13 77.5 59.08 142.73 -2.13 77.5 -2.13"/><polygon class="cls-4" points="-2.12 252.1 48.91 252.1 -2.12 208.99 -2.12 252.1"/><polygon class="cls-4" points="77.5 220.26 184.27 120.08 184.27 67.75 77.5 167.93 77.5 220.26"/><polygon class="cls-4" points="185.29 174.25 185.29 252.1 252.11 252.1 252.11 228.97 185.4 174.15 185.29 174.25"/><polygon class="cls-4" points="185.29 120.53 185.29 172.86 185.36 172.79 252.11 227.65 252.11 175.24 185.4 120.42 185.29 120.53"/><polygon class="cls-4" points="-2.12 207.66 50.48 252.1 76.48 252.1 76.48 221.67 -2.12 155.26 -2.12 207.66"/><polygon class="cls-4" points="185.29 13.07 185.29 65.4 185.36 65.34 252.11 120.2 252.11 67.79 185.4 12.97 185.29 13.07"/><polygon class="cls-4" points="184.27 252.1 184.27 175.21 102.31 252.1 184.27 252.1"/><polygon class="cls-4" points="77.5 166.53 184.27 66.36 184.27 14.03 77.5 114.2 77.5 166.53"/><polygon class="cls-4" points="185.29 66.8 185.29 119.13 185.36 119.07 252.11 173.92 252.11 121.51 185.4 66.69 185.29 66.8"/><g class="cls-5"><polygon class="cls-6" points="-2.11 100.21 76.49 166.61 76.49 114.22 -2.11 47.81 -2.11 100.21"/><polygon class="cls-7" points="-2.11 -2.13 -2.11 46.48 76.49 112.89 76.49 60.49 2.38 -2.13 -2.11 -2.13"/><polygon class="cls-8" points="-2.11 153.93 76.49 220.34 76.49 167.94 -2.11 101.54 -2.11 153.93"/><polygon class="cls-9" points="77.5 252.1 100.83 252.1 184.28 173.81 184.28 121.48 77.5 221.66 77.5 252.1"/><polygon class="cls-10" points="76.49 59.16 76.49 -2.13 3.95 -2.13 76.49 59.16"/><polygon class="cls-11" points="185.3 -2.13 185.3 11.68 185.37 11.61 252.12 66.47 252.12 14.06 232.42 -2.13 185.3 -2.13"/><polygon class="cls-12" points="77.5 60.48 77.5 112.81 184.28 12.63 184.28 -2.13 144.23 -2.13 77.5 60.48"/><polygon class="cls-13" points="234.03 -2.13 252.12 12.74 252.12 -2.13 234.03 -2.13"/><polygon class="cls-14" points="77.5 -2.13 77.5 59.08 142.74 -2.13 77.5 -2.13"/><polygon class="cls-15" points="-2.11 252.1 48.92 252.1 -2.11 208.99 -2.11 252.1"/><polygon class="cls-16" points="77.5 220.26 184.28 120.08 184.28 67.75 77.5 167.93 77.5 220.26"/><polygon class="cls-17" points="185.3 174.25 185.3 252.1 252.12 252.1 252.12 228.97 185.41 174.15 185.3 174.25"/><polygon class="cls-18" points="185.3 120.53 185.3 172.86 185.37 172.79 252.12 227.65 252.12 175.24 185.41 120.42 185.3 120.53"/><polygon class="cls-19" points="-2.11 207.66 50.49 252.1 76.49 252.1 76.49 221.67 -2.11 155.26 -2.11 207.66"/><polygon class="cls-20" points="185.3 13.07 185.3 65.4 185.37 65.34 252.12 120.2 252.12 67.79 185.41 12.97 185.3 13.07"/><polygon class="cls-21" points="184.28 252.1 184.28 175.21 102.32 252.1 184.28 252.1"/><polygon class="cls-22" points="77.5 166.53 184.28 66.36 184.28 14.03 77.5 114.2 77.5 166.53"/><polygon class="cls-23" points="185.3 66.8 185.3 119.13 185.37 119.07 252.12 173.92 252.12 121.51 185.41 66.69 185.3 66.8"/></g><polygon class="cls-24" points="-1.37 208.65 49.66 251.77 51.24 251.77 -1.37 207.32 -1.37 208.65"/><path class="cls-24" d="M186-.59l-1-.94V13.22L78.25,113.4V61.07L145-1.53h-1.48L78.25,59.67V-1.53l-1-.93V58.82L4.7-2.46H3.12L77.23,60.15v52.4L-1.37,46.14v1.33l78.6,66.41v52.4L-1.37,99.87v1.33l78.6,66.41V220l-78.6-66.4v1.33l78.6,66.41v30.43l1,.93V222.25L185,122.07v52.34L101.57,252.7h1.49l82-76.9v76.9l1,.94V175.79l.11-.1,66.71,54.82v-1.32l-66.75-54.86-.07.07V122.06l.11-.1,66.71,54.82v-1.32l-66.75-54.85-.07.06V68.34l.11-.11,66.71,54.82v-1.32L186.11,66.88l-.07.06V14.41l66.83,54.91V68L186,13.09Zm-1,121.27L78.25,220.85V168.52L185,68.35ZM185,67,78.25,167.13V114.8L185,14.62Z"/><polygon class="cls-24" points="234.77 -0.59 233.17 -0.59 252.86 15.6 252.86 14.28 234.77 -0.59"/><polygon class="cls-25" points="-2.12 208.99 48.91 252.1 50.48 252.1 -2.12 207.66 -2.12 208.99"/><path class="cls-25" d="M185.29-1.18l-1-.94V12.63L77.5,112.81V60.47L144.22-2.12h-1.49L77.5,59.08V-2.12h-1V59.16L3.94-2.12H2.37L76.48,60.49v52.4L-2.12,46.48v1.33l78.6,66.41v52.39l-78.6-66.4v1.33l78.6,66.4v52.4l-78.6-66.41v1.33l78.6,66.41V252.1h1V221.66L184.27,121.48v52.33L100.82,252.1h1.49l82-76.89V252.1l1,1V175.2l.11-.11,66.71,54.82V228.6l-66.75-54.86-.07.06V121.47l.11-.1,66.71,54.82v-1.32L185.36,120l-.07.07V67.74l.11-.1,66.71,54.82v-1.32L185.36,66.29l-.07.06V13.81l66.83,54.92V67.41L185.29,12.5Zm-1,121.27L77.5,220.26V167.93L184.27,67.75Zm0-53.73L77.5,166.53V114.2L184.27,14Z"/><polygon class="cls-25" points="234.02 -1.18 232.41 -1.18 252.11 15 252.11 13.69 234.02 -1.18"/></g></g></g></svg>