<svg xmlns="http://www.w3.org/2000/svg" xmlns:xlink="http://www.w3.org/1999/xlink" viewBox="0 0 250 250"><defs><style>.cls-1,.cls-25,.cls-26{fill:none;}.cls-2{isolation:isolate;}.cls-3{clip-path:url(#clip-path);}.cls-4{fill:#e2c9af;}.cls-5{opacity:0.09;mix-blend-mode:color-burn;}.cls-6{fill:url(#Dégradé_sans_nom);}.cls-7{fill:url(#Dégradé_sans_nom-2);}.cls-8{fill:url(#Dégradé_sans_nom-3);}.cls-9{fill:url(#Dégradé_sans_nom-4);}.cls-10{fill:url(#Dégradé_sans_nom-5);}.cls-11{fill:url(#Dégradé_sans_nom-6);}.cls-12{fill:url(#Dégradé_sans_nom-7);}.cls-13{fill:url(#Dégradé_sans_nom-8);}.cls-14{fill:url(#Dégradé_sans_nom-9);}.cls-15{fill:url(#Dégradé_sans_nom-10);}.cls-16{fill:url(#Dégradé_sans_nom-11);}.cls-17{fill:url(#Dégradé_sans_nom-12);}.cls-18{fill:url(#Dégradé_sans_nom-13);}.cls-19{fill:url(#Dégradé_sans_nom-14);}.cls-20{fill:url(#Dégradé_sans_nom-15);}.cls-21{fill:url(#Dégradé_sans_nom-16);}.cls-22{fill:url(#Dégradé_sans_nom-17);}.cls-23{fill:url(#Dégradé_sans_nom-18);}.cls-24{fill:url(#Dégradé_sans_nom-19);}.cls-25{stroke:#ede7e4;}.cls-25,.cls-26{stroke-miterlimit:10;}.cls-26{stroke:#96806f;}</style><clipPath id="clip-path"><rect class="cls-1" width="250" height="250"/></clipPath><linearGradient id="Dégradé_sans_nom" x1="65.05" y1="60.48" x2="159.53" y2="60.48" gradientTransform="translate(75.66 -61.69) rotate(45)" gradientUnits="userSpaceOnUse"><stop offset="0" stop-color="#fff"/><stop offset="1"/></linearGradient><linearGradient id="Dégradé_sans_nom-2" x1="65.15" y1="166.18" x2="159.63" y2="166.18" gradientTransform="translate(150.43 -30.8) rotate(45)" xlink:href="#Dégradé_sans_nom"/><linearGradient id="Dégradé_sans_nom-3" x1="65.1" y1="113.33" x2="159.58" y2="113.33" gradientTransform="translate(113.04 -46.24) rotate(45)" xlink:href="#Dégradé_sans_nom"/><linearGradient id="Dégradé_sans_nom-4" x1="134.65" y1="169.29" x2="250.06" y2="169.29" gradientTransform="matrix(1, 0, 0, 1, 0, 0)" xlink:href="#Dégradé_sans_nom"/><linearGradient id="Dégradé_sans_nom-5" x1="65.2" y1="210.92" x2="159.68" y2="210.92" gradientTransform="matrix(1, 0, 0, 1, 0, 0)" xlink:href="#Dégradé_sans_nom"/><linearGradient id="Dégradé_sans_nom-6" x1="0" y1="51.29" x2="90.03" y2="51.29" gradientTransform="matrix(1, 0, 0, 1, 0, 0)" xlink:href="#Dégradé_sans_nom"/><linearGradient id="Dégradé_sans_nom-7" x1="134.55" y1="67.09" x2="250.06" y2="67.09" gradientTransform="matrix(1, 0, 0, 1, 0, 0)" xlink:href="#Dégradé_sans_nom"/><linearGradient id="Dégradé_sans_nom-8" x1="134.5" y1="40.67" x2="241.56" y2="40.67" gradientTransform="matrix(1, 0, 0, 1, 0, 0)" xlink:href="#Dégradé_sans_nom"/><linearGradient id="Dégradé_sans_nom-9" x1="78.92" y1="27.44" x2="159.48" y2="27.44" gradientTransform="matrix(1, 0, 0, 1, 0, 0)" xlink:href="#Dégradé_sans_nom"/><linearGradient id="Dégradé_sans_nom-10" x1="134.6" y1="116.42" x2="250.06" y2="116.42" gradientTransform="matrix(1, 0, 0, 1, 0, 0)" xlink:href="#Dégradé_sans_nom"/><linearGradient id="Dégradé_sans_nom-11" x1="65.52" y1="237.35" x2="116.36" y2="237.35" gradientTransform="matrix(1, 0, 0, 1, 0, 0)" xlink:href="#Dégradé_sans_nom"/><linearGradient id="Dégradé_sans_nom-12" x1="151.62" y1="200.84" x2="250.06" y2="200.84" gradientTransform="matrix(1, 0, 0, 1, 0, 0)" xlink:href="#Dégradé_sans_nom"/><linearGradient id="Dégradé_sans_nom-13" x1="0" y1="24.84" x2="49.66" y2="24.84" gradientTransform="matrix(1, 0, 0, 1, 0, 0)" xlink:href="#Dégradé_sans_nom"/><linearGradient id="Dégradé_sans_nom-14" x1="204.52" y1="227.29" x2="250.06" y2="227.29" gradientTransform="matrix(1, 0, 0, 1, 0, 0)" xlink:href="#Dégradé_sans_nom"/><linearGradient id="Dégradé_sans_nom-15" x1="131.72" y1="14.24" x2="188.66" y2="14.24" gradientTransform="matrix(1, 0, 0, 1, 0, 0)" xlink:href="#Dégradé_sans_nom"/><linearGradient id="Dégradé_sans_nom-16" x1="0" y1="150.43" x2="90.13" y2="150.43" gradientTransform="matrix(1, 0, 0, 1, 0, 0)" xlink:href="#Dégradé_sans_nom"/><linearGradient id="Dégradé_sans_nom-17" x1="12.62" y1="224.12" x2="90.23" y2="224.12" gradientTransform="matrix(1, 0, 0, 1, 0, 0)" xlink:href="#Dégradé_sans_nom"/><linearGradient id="Dégradé_sans_nom-18" x1="0" y1="97.55" x2="90.08" y2="97.55" gradientTransform="matrix(1, 0, 0, 1, 0, 0)" xlink:href="#Dégradé_sans_nom"/><linearGradient id="Dégradé_sans_nom-19" x1="0" y1="197.7" x2="90.18" y2="197.7" gradientTransform="matrix(1, 0, 0, 1, 0, 0)" xlink:href="#Dégradé_sans_nom"/></defs><title>Icone_carrelage</title><g class="cls-2"><g id="Calque_1" data-name="Calque 1"><g class="cls-3"><rect class="cls-4" x="94.11" y="11.84" width="36.34" height="97.29" transform="translate(-9.88 97.11) rotate(-45)"/><rect class="cls-4" x="94.21" y="117.54" width="36.34" height="97.29" transform="translate(-84.59 128.14) rotate(-45)"/><rect class="cls-4" x="94.16" y="64.69" width="36.34" height="97.29" transform="translate(-47.24 112.62) rotate(-45)"/><polygon class="cls-4" points="250.05 150.2 250.05 98.71 134.63 214.13 160.38 239.88 250.05 150.2"/><polygon class="cls-4" points="90.88 171.79 65.19 197.48 117.76 250.06 150.2 250.06 159.67 240.58 90.88 171.79"/><polygon class="cls-4" points="77.5 0.01 51.06 0.01 -0.01 51.08 -0.01 102.57 90.02 12.53 77.5 0.01"/><polygon class="cls-4" points="160.28 134.18 250.05 44.4 250.05 0.01 242.96 0.01 134.53 108.43 160.28 134.18"/><polygon class="cls-4" points="134.49 55.58 160.23 81.33 241.54 0.01 190.06 0.01 134.49 55.58"/><polygon class="cls-4" points="159.47 29.18 130.3 0.01 78.91 0.01 133.78 54.88 159.47 29.18"/><polygon class="cls-4" points="134.59 161.28 160.33 187.03 250.05 97.3 250.05 45.81 134.59 161.28"/><polygon class="cls-4" points="90.93 224.64 65.51 250.06 116.35 250.06 90.93 224.64"/><polygon class="cls-4" points="250.05 151.61 151.61 250.06 203.1 250.06 250.05 203.1 250.05 151.61"/><polygon class="cls-4" points="49.64 0.01 -0.01 0.01 -0.01 49.67 49.64 0.01"/><polygon class="cls-4" points="204.51 250.06 250.05 250.06 250.05 204.51 204.51 250.06"/><polygon class="cls-4" points="160.18 28.48 188.64 0.01 131.71 0.01 160.18 28.48"/><polygon class="cls-4" points="64.38 92.49 -0.01 156.88 -0.01 208.37 90.12 118.23 64.38 92.49"/><polygon class="cls-4" points="64.48 198.19 12.61 250.06 64.1 250.06 90.22 223.93 64.48 198.19"/><polygon class="cls-4" points="64.33 39.64 -0.01 103.98 -0.01 155.47 90.07 65.38 64.33 39.64"/><polygon class="cls-4" points="64.43 145.34 -0.01 209.78 -0.01 250.06 11.2 250.06 90.17 171.08 64.43 145.34"/><g class="cls-5"><rect class="cls-6" x="94.12" y="11.84" width="36.34" height="97.29" transform="translate(-9.88 97.12) rotate(-45)"/><rect class="cls-7" x="94.22" y="117.54" width="36.34" height="97.29" transform="translate(-84.59 128.15) rotate(-45)"/><rect class="cls-8" x="94.17" y="64.69" width="36.34" height="97.29" transform="translate(-47.23 112.63) rotate(-45)"/><polygon class="cls-9" points="250.06 150.2 250.06 98.71 134.65 214.13 160.39 239.88 250.06 150.2"/><polygon class="cls-10" points="90.89 171.79 65.2 197.48 117.77 250.06 150.21 250.06 159.68 240.58 90.89 171.79"/><polygon class="cls-11" points="77.51 0.01 51.07 0.01 0 51.08 0 102.57 90.03 12.53 77.51 0.01"/><polygon class="cls-12" points="160.29 134.18 250.06 44.4 250.06 0.01 242.97 0.01 134.55 108.43 160.29 134.18"/><polygon class="cls-13" points="134.5 55.58 160.24 81.33 241.56 0.01 190.07 0.01 134.5 55.58"/><polygon class="cls-14" points="159.48 29.18 130.31 0.01 78.92 0.01 133.79 54.88 159.48 29.18"/><polygon class="cls-15" points="134.6 161.28 160.34 187.03 250.06 97.3 250.06 45.81 134.6 161.28"/><polygon class="cls-16" points="90.94 224.64 65.52 250.06 116.36 250.06 90.94 224.64"/><polygon class="cls-17" points="250.06 151.61 151.62 250.06 203.11 250.06 250.06 203.1 250.06 151.61"/><polygon class="cls-18" points="49.66 0.01 0 0.01 0 49.67 49.66 0.01"/><polygon class="cls-19" points="204.52 250.06 250.06 250.06 250.06 204.51 204.52 250.06"/><polygon class="cls-20" points="160.19 28.48 188.66 0.01 131.72 0.01 160.19 28.48"/><polygon class="cls-21" points="64.39 92.49 0 156.88 0 208.37 90.13 118.23 64.39 92.49"/><polygon class="cls-22" points="64.49 198.19 12.62 250.06 64.11 250.06 90.23 223.93 64.49 198.19"/><polygon class="cls-23" points="64.34 39.64 0 103.98 0 155.47 90.08 65.38 64.34 39.64"/><polygon class="cls-24" points="64.44 145.34 0 209.78 0 250.06 11.21 250.06 90.18 171.08 64.44 145.34"/></g><line class="cls-25" x1="90.91" y1="225.33" x2="-16.57" y2="332.81"/><line class="cls-25" x1="90.87" y1="172.46" x2="-15.87" y2="279.21"/><line class="cls-25" x1="90.84" y1="119.6" x2="-15.17" y2="225.61"/><line class="cls-25" x1="90.81" y1="66.73" x2="-14.47" y2="172.01"/><line class="cls-25" x1="90.77" y1="13.86" x2="-13.77" y2="118.41"/><line class="cls-25" x1="90.74" y1="-39" x2="-13.07" y2="64.81"/><line class="cls-25" x1="324.09" y1="131.14" x2="133.68" y2="321.56"/><line class="cls-25" x1="309.64" y1="92.69" x2="133.72" y2="268.62"/><line class="cls-25" x1="295.19" y1="54.24" x2="133.76" y2="215.67"/><line class="cls-25" x1="280.74" y1="15.79" x2="133.8" y2="162.73"/><line class="cls-25" x1="266.29" y1="-22.66" x2="133.84" y2="109.79"/><line class="cls-25" x1="251.84" y1="-61.11" x2="133.89" y2="56.85"/><line class="cls-25" x1="64.3" y1="198.68" x2="160.14" y2="294.52"/><line class="cls-25" x1="64.3" y1="145.88" x2="160.14" y2="241.72"/><line class="cls-25" x1="64.3" y1="93.08" x2="160.14" y2="188.92"/><line class="cls-25" x1="64.3" y1="40.28" x2="160.14" y2="136.12"/><line class="cls-25" x1="64.3" y1="-12.52" x2="160.14" y2="83.32"/><line class="cls-25" x1="64.3" y1="-65.32" x2="160.14" y2="30.52"/><line class="cls-26" x1="90.91" y1="223.95" x2="-16.57" y2="331.43"/><line class="cls-26" x1="90.87" y1="171.09" x2="-15.87" y2="277.83"/><line class="cls-26" x1="90.84" y1="118.22" x2="-15.17" y2="224.23"/><line class="cls-26" x1="90.81" y1="65.35" x2="-14.47" y2="170.63"/><line class="cls-26" x1="90.77" y1="12.49" x2="-13.77" y2="117.03"/><line class="cls-26" x1="90.74" y1="-40.38" x2="-13.07" y2="63.43"/><line class="cls-26" x1="324.09" y1="129.77" x2="133.68" y2="320.18"/><line class="cls-26" x1="309.64" y1="91.32" x2="133.72" y2="267.24"/><line class="cls-26" x1="295.19" y1="52.87" x2="133.76" y2="214.3"/><line class="cls-26" x1="280.74" y1="14.42" x2="133.8" y2="161.36"/><line class="cls-26" x1="266.29" y1="-24.03" x2="133.84" y2="108.42"/><line class="cls-26" x1="251.84" y1="-62.48" x2="133.89" y2="55.47"/><line class="cls-26" x1="64.3" y1="197.31" x2="160.14" y2="293.14"/><line class="cls-26" x1="64.3" y1="144.51" x2="160.14" y2="240.34"/><line class="cls-26" x1="64.3" y1="91.71" x2="160.14" y2="187.54"/><line class="cls-26" x1="64.3" y1="38.91" x2="160.14" y2="134.74"/><line class="cls-26" x1="64.3" y1="-13.89" x2="160.14" y2="81.94"/><line class="cls-26" x1="64.3" y1="-66.69" x2="160.14" y2="29.14"/></g></g></g></svg>