<svg xmlns="http://www.w3.org/2000/svg" xmlns:xlink="http://www.w3.org/1999/xlink" viewBox="0 0 250 250"><defs><style>.cls-1,.cls-4,.cls-5{fill:none;}.cls-2{isolation:isolate;}.cls-3{clip-path:url(#clip-path);}.cls-4{stroke:#ede7e4;}.cls-4,.cls-5{stroke-miterlimit:10;}.cls-5{stroke:#96806f;}.cls-6{clip-path:url(#clip-path-2);}.cls-7{fill:#e2c9af;}.cls-8{opacity:0.09;mix-blend-mode:color-burn;}.cls-9{fill:url(#Dégradé_sans_nom);}.cls-10{fill:url(#Dégradé_sans_nom-2);}.cls-11{fill:url(#Dégradé_sans_nom-3);}.cls-12{fill:url(#Dégradé_sans_nom-4);}.cls-13{fill:url(#Dégradé_sans_nom-5);}.cls-14{fill:url(#Dégradé_sans_nom-6);}.cls-15{fill:url(#Dégradé_sans_nom-7);}.cls-16{fill:url(#Dégradé_sans_nom-8);}.cls-17{fill:url(#Dégradé_sans_nom-9);}.cls-18{fill:url(#Dégradé_sans_nom-10);}.cls-19{fill:url(#Dégradé_sans_nom-11);}.cls-20{fill:url(#Dégradé_sans_nom-12);}.cls-21{fill:url(#Dégradé_sans_nom-13);}.cls-22{fill:url(#Dégradé_sans_nom-14);}.cls-23{fill:url(#Dégradé_sans_nom-15);}.cls-24{fill:url(#Dégradé_sans_nom-16);}.cls-25{fill:url(#Dégradé_sans_nom-17);}.cls-26{fill:url(#Dégradé_sans_nom-18);}.cls-27{fill:url(#Dégradé_sans_nom-19);}.cls-28{fill:url(#Dégradé_sans_nom-20);}.cls-29{fill:#ede7e4;}.cls-30{fill:#96806f;}</style><clipPath id="clip-path"><rect class="cls-1" y="308" width="250" height="250"/></clipPath><clipPath id="clip-path-2"><rect class="cls-1" width="250" height="250"/></clipPath><linearGradient id="Dégradé_sans_nom" x1="-2.04" y1="167.48" x2="211.54" y2="167.48" gradientUnits="userSpaceOnUse"><stop offset="0" stop-color="#fff"/><stop offset="1"/></linearGradient><linearGradient id="Dégradé_sans_nom-2" x1="-2.04" y1="139.03" x2="37.43" y2="139.03" xlink:href="#Dégradé_sans_nom"/><linearGradient id="Dégradé_sans_nom-3" x1="-2.04" y1="110.57" x2="176.99" y2="110.57" xlink:href="#Dégradé_sans_nom"/><linearGradient id="Dégradé_sans_nom-4" x1="-2.04" y1="195.94" x2="100.77" y2="195.94" xlink:href="#Dégradé_sans_nom"/><linearGradient id="Dégradé_sans_nom-5" x1="-2.04" y1="224.39" x2="193.93" y2="224.39" xlink:href="#Dégradé_sans_nom"/><linearGradient id="Dégradé_sans_nom-6" x1="194.94" y1="4.22" x2="252.02" y2="4.22" xlink:href="#Dégradé_sans_nom"/><linearGradient id="Dégradé_sans_nom-7" x1="-2.04" y1="4.22" x2="193.93" y2="4.22" xlink:href="#Dégradé_sans_nom"/><linearGradient id="Dégradé_sans_nom-8" x1="-2.04" y1="25.21" x2="55.04" y2="25.21" xlink:href="#Dégradé_sans_nom"/><linearGradient id="Dégradé_sans_nom-9" x1="-2.04" y1="82.12" x2="78.75" y2="82.12" xlink:href="#Dégradé_sans_nom"/><linearGradient id="Dégradé_sans_nom-10" x1="-2.04" y1="53.66" x2="213.24" y2="53.66" xlink:href="#Dégradé_sans_nom"/><linearGradient id="Dégradé_sans_nom-11" x1="194.94" y1="224.39" x2="252.02" y2="224.39" xlink:href="#Dégradé_sans_nom"/><linearGradient id="Dégradé_sans_nom-12" x1="178.01" y1="110.57" x2="252.02" y2="110.57" xlink:href="#Dégradé_sans_nom"/><linearGradient id="Dégradé_sans_nom-13" x1="214.25" y1="53.66" x2="252.02" y2="53.66" xlink:href="#Dégradé_sans_nom"/><linearGradient id="Dégradé_sans_nom-14" x1="79.77" y1="82.12" x2="252.02" y2="82.12" xlink:href="#Dégradé_sans_nom"/><linearGradient id="Dégradé_sans_nom-15" x1="56.06" y1="25.21" x2="252.02" y2="25.21" xlink:href="#Dégradé_sans_nom"/><linearGradient id="Dégradé_sans_nom-16" x1="101.79" y1="195.94" x2="252.02" y2="195.94" xlink:href="#Dégradé_sans_nom"/><linearGradient id="Dégradé_sans_nom-17" x1="56.06" y1="245.57" x2="252.02" y2="245.57" xlink:href="#Dégradé_sans_nom"/><linearGradient id="Dégradé_sans_nom-18" x1="-2.04" y1="245.57" x2="55.04" y2="245.57" xlink:href="#Dégradé_sans_nom"/><linearGradient id="Dégradé_sans_nom-19" x1="38.44" y1="139.03" x2="252.02" y2="139.03" xlink:href="#Dégradé_sans_nom"/><linearGradient id="Dégradé_sans_nom-20" x1="212.56" y1="167.48" x2="252.02" y2="167.48" xlink:href="#Dégradé_sans_nom"/></defs><title>Icone_carrelage</title><g class="cls-2"><g id="Calque_1" data-name="Calque 1"><g class="cls-3"><line class="cls-4" x1="251.84" y1="246.89" x2="133.89" y2="364.85"/><line class="cls-4" x1="64.3" y1="242.68" x2="160.14" y2="338.52"/><line class="cls-5" x1="251.84" y1="245.52" x2="133.89" y2="363.47"/><line class="cls-5" x1="64.3" y1="241.31" x2="160.14" y2="337.14"/></g><g class="cls-6"><rect class="cls-7" x="-2.04" y="153.76" width="213.58" height="27.44"/><rect class="cls-7" x="-2.04" y="125.31" width="39.46" height="27.44"/><rect class="cls-7" x="-2.04" y="96.85" width="179.03" height="27.44"/><rect class="cls-7" x="-2.04" y="182.22" width="102.81" height="27.44"/><rect class="cls-7" x="-2.04" y="210.67" width="195.96" height="27.44"/><rect class="cls-7" x="194.94" y="-2.04" width="57.08" height="12.51"/><rect class="cls-7" x="-2.04" y="-2.04" width="195.96" height="12.51"/><rect class="cls-7" x="-2.04" y="11.49" width="57.08" height="27.44"/><rect class="cls-7" x="-2.04" y="68.4" width="80.79" height="27.44"/><rect class="cls-7" x="-2.04" y="39.94" width="215.27" height="27.44"/><rect class="cls-7" x="194.94" y="210.67" width="57.08" height="27.44"/><rect class="cls-7" x="178.01" y="96.85" width="74.02" height="27.44"/><rect class="cls-7" x="214.25" y="39.94" width="37.77" height="27.44"/><rect class="cls-7" x="79.77" y="68.4" width="172.25" height="27.44"/><rect class="cls-7" x="56.06" y="11.49" width="195.96" height="27.44"/><rect class="cls-7" x="101.79" y="182.22" width="150.23" height="27.44"/><rect class="cls-7" x="56.06" y="239.13" width="195.96" height="12.9"/><rect class="cls-7" x="-2.04" y="239.13" width="57.08" height="12.9"/><rect class="cls-7" x="38.44" y="125.31" width="213.58" height="27.44"/><rect class="cls-7" x="212.56" y="153.76" width="39.46" height="27.44"/><g class="cls-8"><rect class="cls-9" x="-2.04" y="153.76" width="213.58" height="27.44"/><rect class="cls-10" x="-2.04" y="125.31" width="39.46" height="27.44"/><rect class="cls-11" x="-2.04" y="96.85" width="179.03" height="27.44"/><rect class="cls-12" x="-2.04" y="182.22" width="102.81" height="27.44"/><rect class="cls-13" x="-2.04" y="210.67" width="195.96" height="27.44"/><rect class="cls-14" x="194.94" y="-2.04" width="57.08" height="12.51"/><rect class="cls-15" x="-2.04" y="-2.04" width="195.96" height="12.51"/><rect class="cls-16" x="-2.04" y="11.49" width="57.08" height="27.44"/><rect class="cls-17" x="-2.04" y="68.4" width="80.79" height="27.44"/><rect class="cls-18" x="-2.04" y="39.94" width="215.27" height="27.44"/><rect class="cls-19" x="194.94" y="210.67" width="57.08" height="27.44"/><rect class="cls-20" x="178.01" y="96.85" width="74.02" height="27.44"/><rect class="cls-21" x="214.25" y="39.94" width="37.77" height="27.44"/><rect class="cls-22" x="79.77" y="68.4" width="172.25" height="27.44"/><rect class="cls-23" x="56.06" y="11.49" width="195.96" height="27.44"/><rect class="cls-24" x="101.79" y="182.22" width="150.23" height="27.44"/><rect class="cls-25" x="56.06" y="239.13" width="195.96" height="12.9"/><rect class="cls-26" x="-2.04" y="239.13" width="57.08" height="12.9"/><rect class="cls-27" x="38.44" y="125.31" width="213.58" height="27.44"/><rect class="cls-28" x="212.56" y="153.76" width="39.46" height="27.44"/></g><polygon class="cls-29" points="57.01 12.44 252.97 12.44 252.97 11.43 195.9 11.43 195.9 -1.08 194.88 -1.08 194.88 11.43 -1.08 11.43 -1.08 12.44 55.99 12.44 55.99 39.88 -1.08 39.88 -1.08 40.9 214.19 40.9 214.19 68.33 -1.08 68.33 -1.08 69.35 79.71 69.35 79.71 96.79 -1.08 96.79 -1.08 97.81 177.94 97.81 177.94 125.24 -1.08 125.24 -1.08 126.26 38.38 126.26 38.38 153.7 -1.08 153.7 -1.08 154.71 212.49 154.71 212.49 182.15 -1.08 182.15 -1.08 183.17 101.72 183.17 101.72 210.61 -1.08 210.61 -1.08 211.62 194.88 211.62 194.88 239.06 -1.08 239.06 -1.08 240.08 55.99 240.08 55.99 252.97 57.01 252.97 57.01 240.08 252.97 240.08 252.97 239.06 195.9 239.06 195.9 211.62 252.97 211.62 252.97 210.61 102.74 210.61 102.74 183.17 252.97 183.17 252.97 182.15 213.51 182.15 213.51 154.71 252.97 154.71 252.97 153.7 39.4 153.7 39.4 126.26 252.97 126.26 252.97 125.24 178.96 125.24 178.96 97.81 252.97 97.81 252.97 96.79 80.72 96.79 80.72 69.35 252.97 69.35 252.97 68.33 215.2 68.33 215.2 40.9 252.97 40.9 252.97 39.88 57.01 39.88 57.01 12.44"/><polygon class="cls-30" points="56.06 11.49 252.02 11.49 252.02 10.47 194.94 10.47 194.94 -2.04 193.93 -2.04 193.93 10.47 -2.04 10.47 -2.04 11.49 55.04 11.49 55.04 38.93 -2.04 38.93 -2.04 39.94 213.24 39.94 213.24 67.38 -2.04 67.38 -2.04 68.4 78.75 68.4 78.75 95.84 -2.04 95.84 -2.04 96.85 176.99 96.85 176.99 124.29 -2.04 124.29 -2.04 125.31 37.43 125.31 37.43 152.75 -2.04 152.75 -2.04 153.76 211.54 153.76 211.54 181.2 -2.04 181.2 -2.04 182.22 100.77 182.22 100.77 209.66 -2.04 209.66 -2.04 210.67 193.93 210.67 193.93 238.11 -2.04 238.11 -2.04 239.13 55.04 239.13 55.04 252.02 56.06 252.02 56.06 239.13 252.02 239.13 252.02 238.11 194.94 238.11 194.94 210.67 252.02 210.67 252.02 209.66 101.79 209.66 101.79 182.22 252.02 182.22 252.02 181.2 212.56 181.2 212.56 153.76 252.02 153.76 252.02 152.75 38.44 152.75 38.44 125.31 252.02 125.31 252.02 124.29 178.01 124.29 178.01 96.85 252.02 96.85 252.02 95.84 79.77 95.84 79.77 68.4 252.02 68.4 252.02 67.38 214.25 67.38 214.25 39.94 252.02 39.94 252.02 38.93 56.06 38.93 56.06 11.49"/></g></g></g></svg>