<?xml version="1.0" encoding="utf-8"?>
<!-- Generator: Adobe Illustrator 21.0.0, SVG Export Plug-In . SVG Version: 6.00 Build 0)  -->
<svg version="1.1" id="Calque_1" xmlns="http://www.w3.org/2000/svg" xmlns:xlink="http://www.w3.org/1999/xlink" x="0px" y="0px"
	 viewBox="0 0 124 124" style="enable-background:new 0 0 124 124;" xml:space="preserve">
<style type="text/css">
	.st0{fill:#A3D1E0;stroke:#000000;stroke-width:0.5;stroke-miterlimit:10;}
	.st1{fill:#FFFFFF;}
	.st2{fill:#CFD5DC;stroke:#000000;stroke-width:0.5;stroke-miterlimit:10;}
	.st3{fill:none;stroke:#000000;stroke-width:0.5;stroke-miterlimit:10;}
	.st4{fill:#CBBBA0;stroke:#000000;stroke-width:0.5;stroke-miterlimit:10;}
	.st5{fill:#CBBBA0;}
	.st6{fill:#7B6A58;stroke:#000000;stroke-width:0.25;stroke-miterlimit:10;}
	.st7{fill:#95C11F;stroke:#000000;stroke-width:0.5;stroke-miterlimit:10;}
	.st8{fill:#FFFFFF;stroke:#000000;stroke-width:0.5;stroke-miterlimit:10;}
</style>
<title>revetement_mur</title>
<g id="Calque_2">
	<polygon class="st0" points="27.2,96.4 61.8,120.5 96.6,96.2 61.9,71.8 	"/>
	<polygon class="st1" points="95,97.7 96.5,96.6 96.5,94.5 97.9,94.3 98.6,97.3 97.4,99.2 	"/>
	<polygon class="st1" points="28.6,97.7 27.1,96.6 27.1,94.5 25.6,94.3 25,97.3 26.2,99.2 	"/>
	<polygon class="st2" points="96.4,96.5 96.4,27.5 62,3.3 27.6,27.6 27.6,96.5 62.2,72 	"/>
	<line class="st3" x1="62" y1="3.3" x2="62" y2="72"/>
	<polygon class="st4" points="66,75.1 58.3,75.2 57.4,69.3 66.9,69.3 	"/>
	<ellipse class="st4" cx="62.1" cy="75.2" rx="3.8" ry="1.2"/>
	<polygon class="st5" points="65.9,73.8 65.8,75.1 58.5,75.2 58.4,74 61.9,73.1 	"/>
	<path class="st4" d="M67.7,68.1c0,1.3-2.5,2.3-5.6,2.3s-5.6-1-5.6-2.3v-1.6c1.9-0.4,3.7-0.6,5.6-0.7c1.9,0.1,3.8,0.3,5.6,0.7V68.1z
		"/>
	<ellipse class="st4" cx="62.1" cy="66.6" rx="5.6" ry="2.3"/>
	<ellipse class="st6" cx="62.1" cy="66.5" rx="4.5" ry="1.4"/>
	<line class="st3" x1="62" y1="61.9" x2="62" y2="66.6"/>
	<path class="st7" d="M62.5,58.6c0.9-0.7,1.3-1.8,1.3-2.9c-0.1-1.6-2.6-4.3-2.6-4.3s-0.4,3.3-1.4,4.5S59.9,61.2,62.5,58.6z"/>
	<path class="st7" d="M63,61.9c1.1,0.1,2.2-0.4,3-1.3c1-1.2,1-4.9,1-4.9s-2.5,2.2-4.1,2.3S59.4,62,63,61.9z"/>
	<path class="st7" d="M60.3,62.2c-1.1,0.1-2.2-0.4-3-1.3c-1-1.2-1-4.9-1-4.9s2.5,2.2,4.1,2.3S63.9,62.3,60.3,62.2z"/>
	<polygon class="st2" points="86.9,63.2 70.6,52 70.6,26.4 86.9,37.6 	"/>
	<polygon class="st2" points="88.2,65.8 69.6,52.7 69.6,50.7 88.2,63.9 	"/>
	<polygon class="st2" points="88.2,38.4 69.6,25.8 69.6,23.8 88.2,36.5 	"/>
	<polygon class="st8" points="85.6,60.3 72,50.5 72,29.1 85.6,38.5 	"/>
	<line class="st3" x1="72" y1="40.2" x2="85.6" y2="49.5"/>
	<line class="st3" x1="78.5" y1="33.7" x2="78.5" y2="55.3"/>
</g>
</svg>
