<?xml version="1.0" encoding="utf-8"?>
<!-- Generator: Adobe Illustrator 21.0.0, SVG Export Plug-In . SVG Version: 6.00 Build 0)  -->
<svg version="1.1" id="Calque_1" xmlns="http://www.w3.org/2000/svg" xmlns:xlink="http://www.w3.org/1999/xlink" x="0px" y="0px"
	 viewBox="0 0 124 124" style="enable-background:new 0 0 124 124;" xml:space="preserve">
<style type="text/css">
	.st0{fill:#CFD5DC;stroke:#000000;stroke-width:0.5;stroke-miterlimit:10;}
	.st1{fill:none;stroke:#000000;stroke-width:0.5;stroke-miterlimit:10;}
	.st2{fill:#607B7F;stroke:#CFD5DD;stroke-width:0.5;stroke-miterlimit:10;}
	.st3{fill:#A3D1E0;stroke:#CFD5DD;stroke-width:0.5;stroke-miterlimit:10;}
	.st4{fill:#86ACB5;stroke:#CFD5DD;stroke-width:0.5;stroke-miterlimit:10;}
	.st5{fill:#A4D1E0;stroke:#000000;stroke-width:0.5;stroke-miterlimit:10;}
	.st6{fill:#FFFFFF;}
	.st7{fill:#CBBBA0;stroke:#000000;stroke-width:0.5;stroke-miterlimit:10;}
	.st8{fill:#CBBBA0;}
	.st9{fill:#7B6A58;stroke:#000000;stroke-width:0.25;stroke-miterlimit:10;}
	.st10{fill:#95C11F;stroke:#000000;stroke-width:0.5;stroke-miterlimit:10;}
	.st11{fill:#FFFFFF;stroke:#000000;stroke-width:0.5;stroke-miterlimit:10;}
	.st12{fill:none;stroke:#000000;stroke-width:0.2;stroke-miterlimit:10;}
</style>
<title>sol_pose_carrelage</title>
<g id="Calque_2">
	<polygon class="st0" points="96.1,96.4 96,27.4 61.6,3.1 27.2,27.5 27.2,96.4 61.8,72 	"/>
	<line class="st1" x1="61.8" y1="72" x2="61.8" y2="3.3"/>
	<polygon class="st2" points="58.4,70.4 61.8,68.1 61.8,64.1 58.4,66.4 	"/>
	<polygon class="st3" points="58.4,74.4 61.7,72 61.7,68 58.4,70.4 	"/>
	<polygon class="st4" points="65.2,70.3 61.8,67.9 61.8,63.9 65.2,66.3 	"/>
	<polygon class="st2" points="65.2,74.3 61.8,71.9 61.8,67.9 65.2,70.3 	"/>
	<line class="st1" x1="61.8" y1="3.3" x2="61.8" y2="72"/>
	<line class="st2" x1="72.3" y1="79.5" x2="75.8" y2="81.9"/>
	<line class="st3" x1="72.3" y1="79.5" x2="75.8" y2="81.9"/>
	<path class="st2" d="M65.5,79.4"/>
	<path class="st2" d="M65.5,79.4"/>
	<path class="st2" d="M75.9,86.8"/>
	<path class="st3" d="M75.9,86.8"/>
	<path class="st2" d="M58.6,79.3"/>
	<path class="st4" d="M58.6,79.3"/>
	<path class="st2" d="M52,84"/>
	<path class="st2" d="M52,84"/>
	<path class="st2" d="M72.8,103.7"/>
	<path class="st2" d="M69.3,101.2"/>
	<path class="st4" d="M72.8,103.7"/>
	<path class="st4" d="M69.3,101.2"/>
	<path class="st2" d="M62.4,101.1"/>
	<path class="st3" d="M62.4,101.1"/>
	<path class="st2" d="M72.9,108.5"/>
	<path class="st2" d="M69.6,110.8"/>
	<path class="st4" d="M72.9,108.5"/>
	<path class="st4" d="M69.6,110.8"/>
	<path class="st2" d="M55.6,101"/>
	<path class="st2" d="M55.6,101"/>
	<path class="st2" d="M62.7,110.7"/>
	<path class="st3" d="M62.7,110.7"/>
	<path class="st2" d="M48.8,100.9"/>
	<path class="st2" d="M55.9,110.7"/>
	<path class="st2" d="M55.9,110.7"/>
	<path class="st4" d="M48.4,110.9"/>
	<polygon class="st5" points="27.2,96.6 61.8,120.7 96.3,96.5 61.9,72.1 	"/>
	<polygon class="st6" points="61.9,121 96.5,96.6 96.5,94.5 97.9,94.3 98.6,97.3 97.4,99.2 62.8,121 	"/>
	<polygon class="st6" points="29.2,98.3 27.1,96.8 27.1,94.6 25.6,94.5 25,97.4 26.2,99.3 	"/>
	<polygon class="st7" points="65.8,75.4 58.2,75.4 57.3,69.6 66.8,69.6 	"/>
	<ellipse class="st7" cx="62" cy="75.4" rx="3.8" ry="1.2"/>
	<polygon class="st8" points="65.8,74 65.6,75.4 58.4,75.5 58.2,74.3 61.8,73.4 	"/>
	<path class="st7" d="M67.6,68.4c0,1.3-2.5,2.3-5.6,2.3s-5.6-1-5.6-2.3v-1.6c1.9-0.4,3.8-0.6,5.7-0.7c1.9,0.1,3.8,0.3,5.6,0.7
		L67.6,68.4z"/>
	<ellipse class="st7" cx="62" cy="66.8" rx="5.6" ry="2.3"/>
	<ellipse class="st9" cx="62" cy="66.8" rx="4.5" ry="1.4"/>
	<line class="st1" x1="61.8" y1="62.2" x2="61.8" y2="66.9"/>
	<path class="st10" d="M62.3,58.8c0.9-0.7,1.3-1.8,1.3-2.9c-0.1-1.6-2.6-4.3-2.6-4.3s-0.4,3.3-1.4,4.5S59.7,61.4,62.3,58.8z"/>
	<path class="st10" d="M62.9,62.2c1.1,0.1,2.2-0.4,2.9-1.3c1-1.2,1-4.9,1-4.9s-2.5,2.2-4.1,2.3S59.3,62.3,62.9,62.2z"/>
	<path class="st10" d="M60.2,62.4c-1.1,0.1-2.2-0.4-3-1.3c-1-1.2-1-4.9-1-4.9s2.5,2.2,4.1,2.3S63.8,62.6,60.2,62.4z"/>
	<polygon class="st0" points="86.6,63 70.3,51.8 70.2,26.2 86.6,37.5 	"/>
	<polygon class="st0" points="87.8,65.7 69.2,52.5 69.2,50.6 87.8,63.7 	"/>
	<polygon class="st0" points="87.8,38.3 69.2,25.6 69.2,23.6 87.8,36.3 	"/>
	<polygon class="st11" points="85.3,60.1 71.7,50.4 71.7,29 85.3,38.3 	"/>
	<line class="st1" x1="71.7" y1="40" x2="85.3" y2="49.3"/>
	<line class="st1" x1="78.2" y1="33.5" x2="78.2" y2="55.1"/>
</g>
<line class="st12" x1="66.4" y1="75.1" x2="31.5" y2="99.6"/>
<line class="st12" x1="70.5" y1="78.3" x2="35.9" y2="102.5"/>
<line class="st12" x1="75.1" y1="81.4" x2="40.5" y2="105.6"/>
<line class="st12" x1="79.3" y1="84.4" x2="44.7" y2="108.7"/>
<line class="st12" x1="83.6" y1="87.4" x2="49" y2="111.7"/>
<line class="st12" x1="87.9" y1="90.5" x2="53.4" y2="114.7"/>
<line class="st12" x1="92.2" y1="93.5" x2="57.6" y2="117.7"/>
</svg>
