<svg xmlns="http://www.w3.org/2000/svg" viewBox="0 0 124 124"><defs><style>.cls-1{fill:#cfd5dc;}.cls-1,.cls-10,.cls-11,.cls-5,.cls-7,.cls-9{stroke:#000;}.cls-1,.cls-10,.cls-11,.cls-2,.cls-3,.cls-4,.cls-5,.cls-7,.cls-9{stroke-miterlimit:10;}.cls-1,.cls-10,.cls-11,.cls-2,.cls-3,.cls-4,.cls-5,.cls-7{stroke-width:0.5px;}.cls-2{fill:#607b7f;}.cls-2,.cls-3,.cls-4{stroke:#cfd5dd;}.cls-3{fill:#a3d1e0;}.cls-4{fill:#86acb5;}.cls-5{fill:none;}.cls-11,.cls-6{fill:#fff;}.cls-7,.cls-8{fill:#cbbba0;}.cls-9{fill:#7b6a58;stroke-width:0.25px;}.cls-10{fill:#95c11f;}</style></defs><title>sol_pose_carrelage</title><g id="Calque_2" data-name="Calque 2"><polygon class="cls-1" points="96.1 96.37 96.03 27.38 61.64 3.14 27.23 27.46 27.23 96.37 61.83 72 96.1 96.37"/><line class="cls-1" x1="61.83" y1="72" x2="61.83" y2="3.27"/><polygon class="cls-2" points="58.41 70.41 61.77 68.06 61.77 64.08 58.41 66.43 58.41 70.41"/><polygon class="cls-3" points="58.37 74.36 61.74 72.01 61.74 68.03 58.37 70.38 58.37 74.36"/><polygon class="cls-4" points="65.21 70.28 61.84 67.92 61.84 63.94 65.21 66.3 65.21 70.28"/><polygon class="cls-2" points="65.21 74.27 61.84 71.91 61.84 67.94 65.21 70.29 65.21 74.27"/><line class="cls-1" x1="61.77" y1="3.27" x2="61.77" y2="71.97"/><polygon class="cls-3" points="62.16 76.91 58.63 74.43 61.92 72.1 65.45 74.57 62.16 76.91"/><polygon class="cls-2" points="65.61 79.36 62.09 76.89 65.38 74.56 68.91 77.03 65.61 79.36"/><polygon class="cls-2" points="65.61 79.36 62.09 76.89 65.38 74.56 68.91 77.03 65.61 79.36"/><polygon class="cls-2" points="69.07 81.82 65.55 79.35 68.84 77.01 72.36 79.49 69.07 81.82"/><polygon class="cls-4" points="69.07 81.82 65.55 79.35 68.84 77.01 72.36 79.49 69.07 81.82"/><polygon class="cls-2" points="72.53 84.28 69.01 81.81 72.3 79.47 75.82 81.94 72.53 84.28"/><polygon class="cls-3" points="72.53 84.28 69.01 81.81 72.3 79.47 75.82 81.94 72.53 84.28"/><polygon class="cls-2" points="75.99 86.74 72.47 84.27 75.76 81.93 79.28 84.4 75.99 86.74"/><polygon class="cls-2" points="75.99 86.74 72.47 84.27 75.76 81.93 79.28 84.4 75.99 86.74"/><polygon class="cls-2" points="79.45 89.2 75.92 86.72 79.22 84.39 82.74 86.86 79.45 89.2"/><polygon class="cls-4" points="79.45 89.2 75.92 86.72 79.22 84.39 82.74 86.86 79.45 89.2"/><polygon class="cls-2" points="82.9 91.65 79.38 89.18 82.67 86.84 86.2 89.32 82.9 91.65"/><polygon class="cls-3" points="82.9 91.65 79.38 89.18 82.67 86.84 86.2 89.32 82.9 91.65"/><polygon class="cls-2" points="86.36 94.11 82.84 91.64 86.13 89.3 89.65 91.78 86.36 94.11"/><polygon class="cls-2" points="86.41 94.06 82.89 91.59 86.18 89.26 89.7 91.73 86.41 94.06"/><polygon class="cls-2" points="89.82 96.57 86.3 94.1 89.59 91.76 93.11 94.23 89.82 96.57"/><polygon class="cls-4" points="89.82 96.56 86.3 94.08 89.59 91.75 93.11 94.22 89.82 96.56"/><polygon class="cls-2" points="93.28 99.03 89.76 96.56 93.05 94.22 96.57 96.69 93.28 99.03"/><polygon class="cls-3" points="93.28 99.03 89.76 96.56 93.05 94.22 96.57 96.69 93.28 99.03"/><polygon class="cls-4" points="58.78 79.28 55.26 76.81 58.55 74.47 62.07 76.94 58.78 79.28"/><polygon class="cls-2" points="62.24 81.74 58.72 79.27 62.01 76.93 65.53 79.4 62.24 81.74"/><polygon class="cls-3" points="62.24 81.74 58.72 79.27 62.01 76.93 65.53 79.4 62.24 81.74"/><polygon class="cls-2" points="65.7 84.2 62.17 81.72 65.47 79.39 68.99 81.86 65.7 84.2"/><polygon class="cls-2" points="65.7 84.2 62.17 81.72 65.47 79.39 68.99 81.86 65.7 84.2"/><polygon class="cls-2" points="69.16 86.66 65.63 84.18 68.92 81.85 72.45 84.32 69.16 86.66"/><polygon class="cls-4" points="69.16 86.66 65.63 84.18 68.92 81.85 72.45 84.32 69.16 86.66"/><polygon class="cls-2" points="72.61 89.11 69.09 86.64 72.38 84.3 75.91 86.78 72.61 89.11"/><polygon class="cls-3" points="72.61 89.11 69.09 86.64 72.38 84.3 75.91 86.78 72.61 89.11"/><polygon class="cls-2" points="76.07 91.57 72.55 89.1 75.84 86.76 79.36 89.23 76.07 91.57"/><polygon class="cls-2" points="76.07 91.57 72.55 89.1 75.84 86.76 79.36 89.23 76.07 91.57"/><polygon class="cls-2" points="79.53 94.03 76.01 91.56 79.3 89.22 82.82 91.69 79.53 94.03"/><polygon class="cls-4" points="79.53 94.03 76.01 91.56 79.3 89.22 82.82 91.69 79.53 94.03"/><polygon class="cls-2" points="82.99 96.49 79.47 94.01 82.76 91.68 86.28 94.15 82.99 96.49"/><polygon class="cls-3" points="82.99 96.49 79.47 94.01 82.76 91.68 86.28 94.15 82.99 96.49"/><polygon class="cls-2" points="86.44 98.94 82.92 96.47 86.21 94.14 89.74 96.61 86.44 98.94"/><polygon class="cls-2" points="86.44 98.94 82.92 96.47 86.21 94.14 89.74 96.61 86.44 98.94"/><polygon class="cls-2" points="89.9 101.4 86.38 98.93 89.67 96.59 93.19 99.07 89.9 101.4"/><polygon class="cls-4" points="89.9 101.4 86.38 98.93 89.67 96.59 93.19 99.07 89.9 101.4"/><polygon class="cls-2" points="55.41 81.66 51.88 79.18 55.17 76.85 58.7 79.32 55.41 81.66"/><polygon class="cls-2" points="58.86 84.11 55.34 81.64 58.63 79.31 62.16 81.78 58.86 84.11"/><polygon class="cls-4" points="58.86 84.11 55.34 81.64 58.63 79.31 62.16 81.78 58.86 84.11"/><polygon class="cls-2" points="62.32 86.57 58.8 84.1 62.09 81.76 65.61 84.24 62.32 86.57"/><polygon class="cls-3" points="62.32 86.57 58.8 84.1 62.09 81.76 65.61 84.24 62.32 86.57"/><polygon class="cls-2" points="65.78 89.03 62.26 86.56 65.55 84.22 69.07 86.69 65.78 89.03"/><polygon class="cls-2" points="65.78 89.03 62.26 86.56 65.55 84.22 69.07 86.69 65.78 89.03"/><polygon class="cls-2" points="69.24 91.49 65.72 89.02 69.01 86.68 72.53 89.15 69.24 91.49"/><polygon class="cls-4" points="69.24 91.49 65.72 89.02 69.01 86.68 72.53 89.15 69.24 91.49"/><polygon class="cls-2" points="72.7 93.95 69.17 91.47 72.47 89.14 75.99 91.61 72.7 93.95"/><polygon class="cls-3" points="72.7 93.95 69.17 91.47 72.47 89.14 75.99 91.61 72.7 93.95"/><polygon class="cls-2" points="76.15 96.4 72.63 93.93 75.92 91.59 79.45 94.07 76.15 96.4"/><polygon class="cls-2" points="76.15 96.4 72.63 93.93 75.92 91.59 79.45 94.07 76.15 96.4"/><polygon class="cls-2" points="79.61 98.86 76.09 96.39 79.38 94.05 82.9 96.53 79.61 98.86"/><polygon class="cls-4" points="79.61 98.86 76.09 96.39 79.38 94.05 82.9 96.53 79.61 98.86"/><polygon class="cls-2" points="83.07 101.32 79.55 98.85 82.84 96.51 86.36 98.98 83.07 101.32"/><polygon class="cls-3" points="83.07 101.32 79.55 98.85 82.84 96.51 86.36 98.98 83.07 101.32"/><polygon class="cls-2" points="86.53 103.78 83.01 101.31 86.3 98.97 89.82 101.44 86.53 103.78"/><polygon class="cls-2" points="86.53 103.78 83.01 101.31 86.3 98.97 89.82 101.44 86.53 103.78"/><polygon class="cls-3" points="52.03 84.03 48.51 81.56 51.8 79.22 55.32 81.69 52.03 84.03"/><polygon class="cls-2" points="55.49 86.49 51.97 84.02 55.26 81.68 58.78 84.15 55.49 86.49"/><polygon class="cls-2" points="55.49 86.49 51.97 84.02 55.26 81.68 58.78 84.15 55.49 86.49"/><polygon class="cls-2" points="58.95 88.95 55.42 86.47 58.72 84.14 62.24 86.61 58.95 88.95"/><polygon class="cls-4" points="58.95 88.95 55.42 86.47 58.72 84.14 62.24 86.61 58.95 88.95"/><polygon class="cls-2" points="62.41 91.41 58.88 88.93 62.17 86.6 65.7 89.07 62.41 91.41"/><polygon class="cls-3" points="62.41 91.41 58.88 88.93 62.17 86.6 65.7 89.07 62.41 91.41"/><polygon class="cls-2" points="65.86 93.86 62.34 91.39 65.63 89.05 69.16 91.53 65.86 93.86"/><polygon class="cls-2" points="65.86 93.86 62.34 91.39 65.63 89.05 69.16 91.53 65.86 93.86"/><polygon class="cls-2" points="69.32 96.32 65.8 93.85 69.09 91.51 72.61 93.98 69.32 96.32"/><polygon class="cls-4" points="69.32 96.32 65.8 93.85 69.09 91.51 72.61 93.98 69.32 96.32"/><polygon class="cls-2" points="72.78 98.78 69.26 96.31 72.55 93.97 76.07 96.44 72.78 98.78"/><polygon class="cls-3" points="72.78 98.78 69.26 96.31 72.55 93.97 76.07 96.44 72.78 98.78"/><polygon class="cls-2" points="76.24 101.24 72.72 98.76 76.01 96.43 79.53 98.9 76.24 101.24"/><polygon class="cls-2" points="76.24 101.24 72.72 98.76 76.01 96.43 79.53 98.9 76.24 101.24"/><polygon class="cls-2" points="79.69 103.69 76.17 101.22 79.46 98.89 82.99 101.36 79.69 103.69"/><polygon class="cls-4" points="79.69 103.69 76.17 101.22 79.46 98.89 82.99 101.36 79.69 103.69"/><polygon class="cls-2" points="83.15 106.15 79.63 103.68 82.92 101.34 86.44 103.82 83.15 106.15"/><polygon class="cls-3" points="83.15 106.15 79.63 103.68 82.92 101.34 86.44 103.82 83.15 106.15"/><polygon class="cls-4" points="48.66 86.41 45.13 83.93 48.42 81.6 51.95 84.07 48.66 86.41"/><polygon class="cls-2" points="52.11 88.86 48.59 86.39 51.88 84.06 55.41 86.53 52.11 88.86"/><polygon class="cls-3" points="52.11 88.86 48.59 86.39 51.88 84.06 55.41 86.53 52.11 88.86"/><polygon class="cls-2" points="55.57 91.32 52.05 88.85 55.34 86.51 58.86 88.99 55.57 91.32"/><polygon class="cls-2" points="55.57 91.32 52.05 88.85 55.34 86.51 58.86 88.99 55.57 91.32"/><polygon class="cls-2" points="59.03 93.78 55.51 91.31 58.8 88.97 62.32 91.44 59.03 93.78"/><polygon class="cls-4" points="59.03 93.78 55.51 91.31 58.8 88.97 62.32 91.44 59.03 93.78"/><polygon class="cls-2" points="62.49 96.24 58.97 93.77 62.26 91.43 65.78 93.9 62.49 96.24"/><polygon class="cls-3" points="62.49 96.24 58.97 93.77 62.26 91.43 65.78 93.9 62.49 96.24"/><polygon class="cls-2" points="65.95 98.7 62.42 96.22 65.72 93.89 69.24 96.36 65.95 98.7"/><polygon class="cls-2" points="65.95 98.7 62.42 96.22 65.72 93.89 69.24 96.36 65.95 98.7"/><polygon class="cls-2" points="69.4 101.15 65.88 98.68 69.17 96.34 72.7 98.82 69.4 101.15"/><polygon class="cls-4" points="69.4 101.15 65.88 98.68 69.17 96.34 72.7 98.82 69.4 101.15"/><polygon class="cls-2" points="72.86 103.61 69.34 101.14 72.63 98.8 76.15 101.28 72.86 103.61"/><polygon class="cls-3" points="72.86 103.61 69.34 101.14 72.63 98.8 76.15 101.28 72.86 103.61"/><polygon class="cls-2" points="76.32 106.07 72.8 103.6 76.09 101.26 79.61 103.73 76.32 106.07"/><polygon class="cls-2" points="76.32 106.07 72.8 103.6 76.09 101.26 79.61 103.73 76.32 106.07"/><polygon class="cls-2" points="79.78 108.53 76.26 106.06 79.55 103.72 83.07 106.19 79.78 108.53"/><polygon class="cls-4" points="79.78 108.53 76.26 106.06 79.55 103.72 83.07 106.19 79.78 108.53"/><polygon class="cls-2" points="45.28 88.78 41.76 86.31 45.05 83.97 48.57 86.44 45.28 88.78"/><polygon class="cls-2" points="48.74 91.24 45.22 88.77 48.51 86.43 52.03 88.9 48.74 91.24"/><polygon class="cls-4" points="48.74 91.24 45.22 88.77 48.51 86.43 52.03 88.9 48.74 91.24"/><polygon class="cls-2" points="52.2 93.7 48.67 91.22 51.97 88.89 55.49 91.36 52.2 93.7"/><polygon class="cls-3" points="52.2 93.7 48.67 91.22 51.97 88.89 55.49 91.36 52.2 93.7"/><polygon class="cls-2" points="55.66 96.16 52.13 93.68 55.42 91.35 58.95 93.82 55.66 96.16"/><polygon class="cls-2" points="55.66 96.16 52.13 93.68 55.42 91.35 58.95 93.82 55.66 96.16"/><polygon class="cls-2" points="59.11 98.61 55.59 96.14 58.88 93.8 62.41 96.28 59.11 98.61"/><polygon class="cls-4" points="59.11 98.61 55.59 96.14 58.88 93.8 62.41 96.28 59.11 98.61"/><polygon class="cls-2" points="62.57 101.07 59.05 98.6 62.34 96.26 65.86 98.73 62.57 101.07"/><polygon class="cls-3" points="62.57 101.07 59.05 98.6 62.34 96.26 65.86 98.73 62.57 101.07"/><polygon class="cls-2" points="66.03 103.53 62.51 101.06 65.8 98.72 69.32 101.19 66.03 103.53"/><polygon class="cls-2" points="66.03 103.53 62.51 101.06 65.8 98.72 69.32 101.19 66.03 103.53"/><polygon class="cls-2" points="69.49 105.99 65.97 103.51 69.26 101.18 72.78 103.65 69.49 105.99"/><polygon class="cls-4" points="69.49 105.99 65.97 103.51 69.26 101.18 72.78 103.65 69.49 105.99"/><polygon class="cls-2" points="72.94 108.44 69.42 105.97 72.71 103.64 76.24 106.11 72.94 108.44"/><polygon class="cls-3" points="72.94 108.44 69.42 105.97 72.71 103.64 76.24 106.11 72.94 108.44"/><polygon class="cls-2" points="76.4 110.9 72.88 108.43 76.17 106.09 79.69 108.57 76.4 110.9"/><polygon class="cls-2" points="76.4 110.9 72.88 108.43 76.17 106.09 79.69 108.57 76.4 110.9"/><polygon class="cls-3" points="41.91 91.16 38.38 88.68 41.67 86.35 45.2 88.82 41.91 91.16"/><polygon class="cls-2" points="45.36 93.61 41.84 91.14 45.13 88.81 48.66 91.28 45.36 93.61"/><polygon class="cls-2" points="45.36 93.61 41.84 91.14 45.13 88.81 48.66 91.28 45.36 93.61"/><polygon class="cls-2" points="48.82 96.07 45.3 93.6 48.59 91.26 52.11 93.74 48.82 96.07"/><polygon class="cls-4" points="48.82 96.07 45.3 93.6 48.59 91.26 52.11 93.74 48.82 96.07"/><polygon class="cls-2" points="52.28 98.53 48.76 96.06 52.05 93.72 55.57 96.19 52.28 98.53"/><polygon class="cls-3" points="52.28 98.53 48.76 96.06 52.05 93.72 55.57 96.19 52.28 98.53"/><polygon class="cls-2" points="55.74 100.99 52.22 98.52 55.51 96.18 59.03 98.65 55.74 100.99"/><polygon class="cls-2" points="55.74 100.99 52.22 98.52 55.51 96.18 59.03 98.65 55.74 100.99"/><polygon class="cls-2" points="59.2 103.45 55.67 100.97 58.97 98.64 62.49 101.11 59.2 103.45"/><polygon class="cls-4" points="59.2 103.45 55.67 100.97 58.97 98.64 62.49 101.11 59.2 103.45"/><polygon class="cls-2" points="62.65 105.9 59.13 103.43 62.42 101.09 65.95 103.57 62.65 105.9"/><polygon class="cls-3" points="62.65 105.9 59.13 103.43 62.42 101.09 65.95 103.57 62.65 105.9"/><polygon class="cls-2" points="66.11 108.36 62.59 105.89 65.88 103.55 69.4 106.03 66.11 108.36"/><polygon class="cls-2" points="66.11 108.36 62.59 105.89 65.88 103.55 69.4 106.03 66.11 108.36"/><polygon class="cls-2" points="69.57 110.82 66.05 108.35 69.34 106.01 72.86 108.48 69.57 110.82"/><polygon class="cls-4" points="69.57 110.82 66.05 108.35 69.34 106.01 72.86 108.48 69.57 110.82"/><polygon class="cls-2" points="73.03 113.28 69.51 110.81 72.8 108.47 76.32 110.94 73.03 113.28"/><polygon class="cls-3" points="73.03 113.28 69.51 110.81 72.8 108.47 76.32 110.94 73.03 113.28"/><polygon class="cls-4" points="38.53 93.53 35.01 91.06 38.3 88.72 41.82 91.19 38.53 93.53"/><polygon class="cls-2" points="41.99 95.99 38.47 93.52 41.76 91.18 45.28 93.65 41.99 95.99"/><polygon class="cls-3" points="41.99 95.99 38.47 93.52 41.76 91.18 45.28 93.65 41.99 95.99"/><polygon class="cls-2" points="45.45 98.45 41.92 95.97 45.22 93.64 48.74 96.11 45.45 98.45"/><polygon class="cls-2" points="45.45 98.45 41.92 95.97 45.22 93.64 48.74 96.11 45.45 98.45"/><polygon class="cls-2" points="48.91 100.91 45.38 98.43 48.67 96.1 52.2 98.57 48.91 100.91"/><polygon class="cls-4" points="48.91 100.91 45.38 98.43 48.67 96.1 52.2 98.57 48.91 100.91"/><polygon class="cls-2" points="52.36 103.36 48.84 100.89 52.13 98.55 55.66 101.03 52.36 103.36"/><polygon class="cls-3" points="52.36 103.36 48.84 100.89 52.13 98.55 55.66 101.03 52.36 103.36"/><polygon class="cls-2" points="55.82 105.82 52.3 103.35 55.59 101.01 59.11 103.48 55.82 105.82"/><polygon class="cls-2" points="55.82 105.82 52.3 103.35 55.59 101.01 59.11 103.48 55.82 105.82"/><polygon class="cls-2" points="59.28 108.28 55.76 105.81 59.05 103.47 62.57 105.94 59.28 108.28"/><polygon class="cls-4" points="59.28 108.28 55.76 105.81 59.05 103.47 62.57 105.94 59.28 108.28"/><polygon class="cls-2" points="62.74 110.74 59.22 108.26 62.51 105.93 66.03 108.4 62.74 110.74"/><polygon class="cls-3" points="62.74 110.74 59.22 108.26 62.51 105.93 66.03 108.4 62.74 110.74"/><polygon class="cls-2" points="66.19 113.19 62.67 110.72 65.96 108.39 69.49 110.86 66.19 113.19"/><polygon class="cls-2" points="66.19 113.19 62.67 110.72 65.96 108.39 69.49 110.86 66.19 113.19"/><polygon class="cls-2" points="69.65 115.65 66.13 113.18 69.42 110.84 72.94 113.32 69.65 115.65"/><polygon class="cls-4" points="69.65 115.65 66.13 113.18 69.42 110.84 72.94 113.32 69.65 115.65"/><polygon class="cls-2" points="35.16 95.91 31.63 93.43 34.92 91.1 38.45 93.57 35.16 95.91"/><polygon class="cls-2" points="38.61 98.36 35.09 95.89 38.38 93.56 41.91 96.03 38.61 98.36"/><polygon class="cls-4" points="38.61 98.36 35.09 95.89 38.38 93.56 41.91 96.03 38.61 98.36"/><polygon class="cls-2" points="42.07 100.82 38.55 98.35 41.84 96.01 45.36 98.49 42.07 100.82"/><polygon class="cls-3" points="42.07 100.82 38.55 98.35 41.84 96.01 45.36 98.49 42.07 100.82"/><polygon class="cls-2" points="45.53 103.28 42.01 100.81 45.3 98.47 48.82 100.94 45.53 103.28"/><polygon class="cls-2" points="45.53 103.28 42.01 100.81 45.3 98.47 48.82 100.94 45.53 103.28"/><polygon class="cls-2" points="48.99 105.74 45.47 103.27 48.76 100.93 52.28 103.4 48.99 105.74"/><polygon class="cls-4" points="48.99 105.74 45.47 103.27 48.76 100.93 52.28 103.4 48.99 105.74"/><polygon class="cls-2" points="52.45 108.2 48.92 105.72 52.22 103.39 55.74 105.86 52.45 108.2"/><polygon class="cls-3" points="52.45 108.2 48.92 105.72 52.22 103.39 55.74 105.86 52.45 108.2"/><polygon class="cls-2" points="55.9 110.65 52.38 108.18 55.67 105.84 59.2 108.32 55.9 110.65"/><polygon class="cls-2" points="55.9 110.65 52.38 108.18 55.67 105.84 59.2 108.32 55.9 110.65"/><polygon class="cls-2" points="59.36 113.11 55.84 110.64 59.13 108.3 62.65 110.78 59.36 113.11"/><polygon class="cls-4" points="59.36 113.11 55.84 110.64 59.13 108.3 62.65 110.78 59.36 113.11"/><polygon class="cls-2" points="62.82 115.57 59.3 113.1 62.59 110.76 66.11 113.23 62.82 115.57"/><polygon class="cls-3" points="62.82 115.57 59.3 113.1 62.59 110.76 66.11 113.23 62.82 115.57"/><polygon class="cls-2" points="66.28 118.03 62.76 115.56 66.05 113.22 69.57 115.69 66.28 118.03"/><polygon class="cls-2" points="66.28 118.03 62.76 115.56 66.05 113.22 69.57 115.69 66.28 118.03"/><polygon class="cls-3" points="31.03 98.66 27.63 96.28 31.55 93.47 35.07 95.94 31.03 98.66"/><polygon class="cls-2" points="35.24 100.74 31.72 98.27 35.01 95.93 38.53 98.4 35.24 100.74"/><polygon class="cls-2" points="34.49 101.11 30.97 98.64 35.01 95.93 38.53 98.4 34.49 101.11"/><polygon class="cls-2" points="38.7 103.2 35.17 100.72 38.47 98.39 41.99 100.86 38.7 103.2"/><polygon class="cls-4" points="38.04 103.57 34.52 101.1 38.47 98.39 41.99 100.86 38.04 103.57"/><polygon class="cls-3" points="41.41 106.03 38.01 103.65 41.92 100.85 45.45 103.32 41.41 106.03"/><polygon class="cls-2" points="44.86 108.49 41.34 106.02 45.38 103.31 48.91 105.78 44.86 108.49"/><polygon class="cls-4" points="48.42 110.95 44.89 108.47 48.84 105.76 52.36 108.24 48.42 110.95"/><polygon class="cls-3" points="51.88 113.38 48.48 111 52.39 108.19 55.92 110.66 51.88 113.38"/><polygon class="cls-3" points="62.25 120.78 58.85 118.4 62.77 115.6 66.29 118.07 62.25 120.78"/><polygon class="cls-2" points="55.33 115.83 51.81 113.36 55.85 110.65 59.38 113.12 55.33 115.83"/><polygon class="cls-4" points="58.88 118.29 55.36 115.82 59.31 113.11 62.83 115.58 58.88 118.29"/><polygon class="cls-5" points="27.23 96.56 61.83 120.74 96.33 96.48 61.92 72.1 27.23 96.56"/><polygon class="cls-6" points="61.94 121 96.46 96.61 96.47 94.54 97.94 94.32 98.61 97.26 97.39 99.15 62.81 121 61.94 121"/><polygon class="cls-6" points="29.25 98.29 27.13 96.77 27.11 94.56 25.65 94.49 24.98 97.43 26.2 99.32 29.25 98.29"/><polygon class="cls-7" points="65.85 75.4 58.17 75.42 57.3 69.57 66.75 69.57 65.85 75.4"/><ellipse class="cls-7" cx="62.01" cy="75.42" rx="3.84" ry="1.22"/><polygon class="cls-8" points="65.81 74.04 65.57 75.4 58.44 75.48 58.25 74.28 61.78 73.41 65.81 74.04"/><path class="cls-7" d="M67.59,68.4c0,1.27-2.52,2.31-5.62,2.31s-5.62-1-5.62-2.31V66.83A36.2,36.2,0,0,1,62,66.1a37.45,37.45,0,0,1,5.63.73Z"/><ellipse class="cls-7" cx="61.97" cy="66.83" rx="5.62" ry="2.3"/><ellipse class="cls-9" cx="62.01" cy="66.77" rx="4.45" ry="1.41"/><line class="cls-7" x1="61.84" y1="62.16" x2="61.84" y2="66.87"/><path class="cls-10" d="M62.33,58.84a3.65,3.65,0,0,0,1.3-2.94C63.57,54.31,61,51.62,61,51.62s-.4,3.31-1.42,4.48S59.73,61.42,62.33,58.84Z"/><path class="cls-10" d="M62.93,62.16a3.65,3.65,0,0,0,2.95-1.28c1-1.21,1-4.9,1-4.9s-2.54,2.16-4.08,2.33S59.27,62.31,62.93,62.16Z"/><path class="cls-10" d="M60.15,62.43a3.65,3.65,0,0,1-2.95-1.28c-1-1.21-1-4.9-1-4.9s2.54,2.16,4.08,2.33S63.81,62.57,60.15,62.43Z"/><polygon class="cls-1" points="86.6 63 70.27 51.79 70.25 26.25 86.62 37.47 86.6 63"/><polygon class="cls-1" points="87.83 65.66 69.22 52.53 69.23 50.57 87.82 63.71 87.83 65.66"/><polygon class="cls-1" points="87.83 38.27 69.25 25.58 69.25 23.58 87.83 36.33 87.83 38.27"/><polygon class="cls-11" points="85.3 60.09 71.69 50.39 71.7 28.98 85.3 38.31 85.3 60.09"/><line class="cls-1" x1="71.69" y1="39.99" x2="85.3" y2="49.31"/><line class="cls-1" x1="78.19" y1="33.52" x2="78.19" y2="55.14"/></g></svg>