<?xml version="1.0" encoding="utf-8"?>
<!-- Generator: Adobe Illustrator 21.0.0, SVG Export Plug-In . SVG Version: 6.00 Build 0)  -->
<svg version="1.1" id="Calque_1" xmlns="http://www.w3.org/2000/svg" xmlns:xlink="http://www.w3.org/1999/xlink" x="0px" y="0px"
	 viewBox="0 0 124 124" style="enable-background:new 0 0 124 124;" xml:space="preserve">
<style type="text/css">
	.st0{fill:#CFD5DC;stroke:#000000;stroke-width:0.5;stroke-miterlimit:10;}
	.st1{fill:none;stroke:#000000;stroke-width:0.5;stroke-miterlimit:10;}
	.st2{fill:#607B7F;stroke:#CFD5DD;stroke-width:0.5;stroke-miterlimit:10;}
	.st3{fill:#A3D1E0;stroke:#CFD5DD;stroke-width:0.5;stroke-miterlimit:10;}
	.st4{fill:#86ACB5;stroke:#CFD5DD;stroke-width:0.5;stroke-miterlimit:10;}
	.st5{fill:#C6AE96;stroke:#000000;stroke-width:0.5;stroke-miterlimit:10;}
	.st6{fill:#FFFFFF;}
	.st7{fill:#CBBBA0;stroke:#000000;stroke-width:0.5;stroke-miterlimit:10;}
	.st8{fill:#CBBBA0;}
	.st9{fill:#7B6A58;stroke:#000000;stroke-width:0.25;stroke-miterlimit:10;}
	.st10{fill:#95C11F;stroke:#000000;stroke-width:0.5;stroke-miterlimit:10;}
	.st11{fill:#FFFFFF;stroke:#000000;stroke-width:0.5;stroke-miterlimit:10;}
</style>
<title>sol_pose_carrelage</title>
<g id="Calque_2">
	<polygon class="st0" points="96.1,96.4 96,27.4 61.6,3.1 27.2,27.5 27.2,96.4 61.8,72 	"/>
	<line class="st1" x1="61.8" y1="72" x2="61.8" y2="3.3"/>
	<polygon class="st2" points="58.4,70.4 61.8,68.1 61.8,64.1 58.4,66.4 	"/>
	<polygon class="st3" points="58.4,74.4 61.7,72 61.7,68 58.4,70.4 	"/>
	<polygon class="st4" points="65.2,70.3 61.8,67.9 61.8,63.9 65.2,66.3 	"/>
	<polygon class="st2" points="65.2,74.3 61.8,71.9 61.8,67.9 65.2,70.3 	"/>
	<line class="st1" x1="61.8" y1="3.3" x2="61.8" y2="72"/>
	<polygon class="st3" points="62.2,76.9 58.6,74.4 61.9,72.1 65.4,74.6 	"/>
	<polygon class="st2" points="65.6,79.4 62.1,76.9 65.4,74.6 68.9,77 	"/>
	<polygon class="st2" points="65.6,79.4 62.1,76.9 65.4,74.6 68.9,77 	"/>
	<polygon class="st2" points="69.1,81.8 65.6,79.3 68.8,77 72.4,79.5 	"/>
	<polygon class="st4" points="69.1,81.8 65.6,79.3 68.8,77 72.4,79.5 	"/>
	<polygon class="st2" points="72.5,84.3 69,81.8 72.3,79.5 75.8,81.9 	"/>
	<polygon class="st3" points="72.5,84.3 69,81.8 72.3,79.5 75.8,81.9 	"/>
	<polygon class="st2" points="76,86.7 72.5,84.3 75.8,81.9 79.3,84.4 	"/>
	<polygon class="st2" points="76,86.7 72.5,84.3 75.8,81.9 79.3,84.4 	"/>
	<polygon class="st2" points="79.4,89.2 75.9,86.7 79.2,84.4 82.7,86.9 	"/>
	<polygon class="st4" points="79.4,89.2 75.9,86.7 79.2,84.4 82.7,86.9 	"/>
	<polygon class="st2" points="82.9,91.7 79.4,89.2 82.7,86.8 86.2,89.3 	"/>
	<polygon class="st3" points="82.9,91.7 79.4,89.2 82.7,86.8 86.2,89.3 	"/>
	<polygon class="st2" points="86.4,94.1 82.8,91.6 86.1,89.3 89.7,91.8 	"/>
	<polygon class="st2" points="86.4,94.1 82.9,91.6 86.2,89.3 89.7,91.7 	"/>
	<polygon class="st2" points="89.8,96.6 86.3,94.1 89.6,91.8 93.1,94.2 	"/>
	<polygon class="st4" points="89.8,96.6 86.3,94.1 89.6,91.8 93.1,94.2 	"/>
	<polygon class="st2" points="93.3,99 89.8,96.6 93.1,94.2 96.6,96.7 	"/>
	<polygon class="st3" points="93.3,99 89.8,96.6 93.1,94.2 96.6,96.7 	"/>
	<polygon class="st4" points="58.8,79.3 55.3,76.8 58.5,74.5 62.1,76.9 	"/>
	<polygon class="st2" points="62.2,81.7 58.7,79.3 62,76.9 65.5,79.4 	"/>
	<polygon class="st3" points="62.2,81.7 58.7,79.3 62,76.9 65.5,79.4 	"/>
	<polygon class="st2" points="65.7,84.2 62.2,81.7 65.5,79.4 69,81.9 	"/>
	<polygon class="st2" points="65.7,84.2 62.2,81.7 65.5,79.4 69,81.9 	"/>
	<polygon class="st2" points="69.2,86.7 65.6,84.2 68.9,81.8 72.4,84.3 	"/>
	<polygon class="st4" points="69.2,86.7 65.6,84.2 68.9,81.8 72.4,84.3 	"/>
	<polygon class="st2" points="72.6,89.1 69.1,86.6 72.4,84.3 75.9,86.8 	"/>
	<polygon class="st3" points="72.6,89.1 69.1,86.6 72.4,84.3 75.9,86.8 	"/>
	<polygon class="st2" points="76.1,91.6 72.6,89.1 75.8,86.8 79.4,89.2 	"/>
	<polygon class="st2" points="76.1,91.6 72.6,89.1 75.8,86.8 79.4,89.2 	"/>
	<polygon class="st2" points="79.5,94 76,91.6 79.3,89.2 82.8,91.7 	"/>
	<polygon class="st4" points="79.5,94 76,91.6 79.3,89.2 82.8,91.7 	"/>
	<polygon class="st2" points="83,96.5 79.5,94 82.8,91.7 86.3,94.2 	"/>
	<polygon class="st3" points="83,96.5 79.5,94 82.8,91.7 86.3,94.2 	"/>
	<polygon class="st2" points="86.4,98.9 82.9,96.5 86.2,94.1 89.7,96.6 	"/>
	<polygon class="st2" points="86.4,98.9 82.9,96.5 86.2,94.1 89.7,96.6 	"/>
	<polygon class="st2" points="89.9,101.4 86.4,98.9 89.7,96.6 93.2,99.1 	"/>
	<polygon class="st4" points="89.9,101.4 86.4,98.9 89.7,96.6 93.2,99.1 	"/>
	<polygon class="st2" points="55.4,81.7 51.9,79.2 55.2,76.8 58.7,79.3 	"/>
	<polygon class="st2" points="58.9,84.1 55.3,81.6 58.6,79.3 62.2,81.8 	"/>
	<polygon class="st4" points="58.9,84.1 55.3,81.6 58.6,79.3 62.2,81.8 	"/>
	<polygon class="st2" points="62.3,86.6 58.8,84.1 62.1,81.8 65.6,84.2 	"/>
	<polygon class="st3" points="62.3,86.6 58.8,84.1 62.1,81.8 65.6,84.2 	"/>
	<polygon class="st2" points="65.8,89 62.3,86.6 65.6,84.2 69.1,86.7 	"/>
	<polygon class="st2" points="65.8,89 62.3,86.6 65.6,84.2 69.1,86.7 	"/>
	<polygon class="st2" points="69.2,91.5 65.7,89 69,86.7 72.5,89.2 	"/>
	<polygon class="st4" points="69.2,91.5 65.7,89 69,86.7 72.5,89.2 	"/>
	<polygon class="st2" points="72.7,93.9 69.2,91.5 72.5,89.1 76,91.6 	"/>
	<polygon class="st3" points="72.7,93.9 69.2,91.5 72.5,89.1 76,91.6 	"/>
	<polygon class="st2" points="76.2,96.4 72.6,93.9 75.9,91.6 79.4,94.1 	"/>
	<polygon class="st2" points="76.2,96.4 72.6,93.9 75.9,91.6 79.4,94.1 	"/>
	<polygon class="st2" points="79.6,98.9 76.1,96.4 79.4,94.1 82.9,96.5 	"/>
	<polygon class="st4" points="79.6,98.9 76.1,96.4 79.4,94.1 82.9,96.5 	"/>
	<polygon class="st2" points="83.1,101.3 79.6,98.8 82.8,96.5 86.4,99 	"/>
	<polygon class="st3" points="83.1,101.3 79.6,98.8 82.8,96.5 86.4,99 	"/>
	<polygon class="st2" points="86.5,103.8 83,101.3 86.3,99 89.8,101.4 	"/>
	<polygon class="st2" points="86.5,103.8 83,101.3 86.3,99 89.8,101.4 	"/>
	<polygon class="st3" points="52,84 48.5,81.6 51.8,79.2 55.3,81.7 	"/>
	<polygon class="st2" points="55.5,86.5 52,84 55.3,81.7 58.8,84.2 	"/>
	<polygon class="st2" points="55.5,86.5 52,84 55.3,81.7 58.8,84.2 	"/>
	<polygon class="st2" points="59,88.9 55.4,86.5 58.7,84.1 62.2,86.6 	"/>
	<polygon class="st4" points="59,88.9 55.4,86.5 58.7,84.1 62.2,86.6 	"/>
	<polygon class="st2" points="62.4,91.4 58.9,88.9 62.2,86.6 65.7,89.1 	"/>
	<polygon class="st3" points="62.4,91.4 58.9,88.9 62.2,86.6 65.7,89.1 	"/>
	<polygon class="st2" points="65.9,93.9 62.3,91.4 65.6,89.1 69.2,91.5 	"/>
	<polygon class="st2" points="65.9,93.9 62.3,91.4 65.6,89.1 69.2,91.5 	"/>
	<polygon class="st2" points="69.3,96.3 65.8,93.8 69.1,91.5 72.6,94 	"/>
	<polygon class="st4" points="69.3,96.3 65.8,93.8 69.1,91.5 72.6,94 	"/>
	<polygon class="st2" points="72.8,98.8 69.3,96.3 72.6,94 76.1,96.4 	"/>
	<polygon class="st3" points="72.8,98.8 69.3,96.3 72.6,94 76.1,96.4 	"/>
	<polygon class="st2" points="76.2,101.2 72.7,98.8 76,96.4 79.5,98.9 	"/>
	<polygon class="st2" points="76.2,101.2 72.7,98.8 76,96.4 79.5,98.9 	"/>
	<polygon class="st2" points="79.7,103.7 76.2,101.2 79.5,98.9 83,101.4 	"/>
	<polygon class="st4" points="79.7,103.7 76.2,101.2 79.5,98.9 83,101.4 	"/>
	<polygon class="st2" points="83.2,106.2 79.6,103.7 82.9,101.3 86.4,103.8 	"/>
	<polygon class="st3" points="83.2,106.2 79.6,103.7 82.9,101.3 86.4,103.8 	"/>
	<polygon class="st4" points="48.7,86.4 45.1,83.9 48.4,81.6 52,84.1 	"/>
	<polygon class="st2" points="52.1,88.9 48.6,86.4 51.9,84.1 55.4,86.5 	"/>
	<polygon class="st3" points="52.1,88.9 48.6,86.4 51.9,84.1 55.4,86.5 	"/>
	<polygon class="st2" points="55.6,91.3 52,88.8 55.3,86.5 58.9,89 	"/>
	<polygon class="st2" points="55.6,91.3 52,88.8 55.3,86.5 58.9,89 	"/>
	<polygon class="st2" points="59,93.8 55.5,91.3 58.8,89 62.3,91.4 	"/>
	<polygon class="st4" points="59,93.8 55.5,91.3 58.8,89 62.3,91.4 	"/>
	<polygon class="st2" points="62.5,96.2 59,93.8 62.3,91.4 65.8,93.9 	"/>
	<polygon class="st3" points="62.5,96.2 59,93.8 62.3,91.4 65.8,93.9 	"/>
	<polygon class="st2" points="65.9,98.7 62.4,96.2 65.7,93.9 69.2,96.4 	"/>
	<polygon class="st2" points="65.9,98.7 62.4,96.2 65.7,93.9 69.2,96.4 	"/>
	<polygon class="st2" points="69.4,101.2 65.9,98.7 69.2,96.3 72.7,98.8 	"/>
	<polygon class="st4" points="69.4,101.2 65.9,98.7 69.2,96.3 72.7,98.8 	"/>
	<polygon class="st2" points="72.9,103.6 69.3,101.1 72.6,98.8 76.2,101.3 	"/>
	<polygon class="st3" points="72.9,103.6 69.3,101.1 72.6,98.8 76.2,101.3 	"/>
	<polygon class="st2" points="76.3,106.1 72.8,103.6 76.1,101.3 79.6,103.7 	"/>
	<polygon class="st2" points="76.3,106.1 72.8,103.6 76.1,101.3 79.6,103.7 	"/>
	<polygon class="st2" points="79.8,108.5 76.3,106.1 79.6,103.7 83.1,106.2 	"/>
	<polygon class="st4" points="79.8,108.5 76.3,106.1 79.6,103.7 83.1,106.2 	"/>
	<polygon class="st2" points="45.3,88.8 41.8,86.3 45,84 48.6,86.4 	"/>
	<polygon class="st2" points="48.7,91.2 45.2,88.8 48.5,86.4 52,88.9 	"/>
	<polygon class="st4" points="48.7,91.2 45.2,88.8 48.5,86.4 52,88.9 	"/>
	<polygon class="st2" points="52.2,93.7 48.7,91.2 52,88.9 55.5,91.4 	"/>
	<polygon class="st3" points="52.2,93.7 48.7,91.2 52,88.9 55.5,91.4 	"/>
	<polygon class="st2" points="55.7,96.2 52.1,93.7 55.4,91.3 59,93.8 	"/>
	<polygon class="st2" points="55.7,96.2 52.1,93.7 55.4,91.3 59,93.8 	"/>
	<polygon class="st2" points="59.1,98.6 55.6,96.1 58.9,93.8 62.4,96.3 	"/>
	<polygon class="st4" points="59.1,98.6 55.6,96.1 58.9,93.8 62.4,96.3 	"/>
	<polygon class="st2" points="62.6,101.1 59,98.6 62.3,96.3 65.9,98.7 	"/>
	<polygon class="st3" points="62.6,101.1 59,98.6 62.3,96.3 65.9,98.7 	"/>
	<polygon class="st2" points="66,103.5 62.5,101.1 65.8,98.7 69.3,101.2 	"/>
	<polygon class="st2" points="66,103.5 62.5,101.1 65.8,98.7 69.3,101.2 	"/>
	<polygon class="st2" points="69.5,106 66,103.5 69.3,101.2 72.8,103.7 	"/>
	<polygon class="st4" points="69.5,106 66,103.5 69.3,101.2 72.8,103.7 	"/>
	<polygon class="st2" points="72.9,108.4 69.4,106 72.7,103.6 76.2,106.1 	"/>
	<polygon class="st3" points="72.9,108.4 69.4,106 72.7,103.6 76.2,106.1 	"/>
	<polygon class="st2" points="76.4,110.9 72.9,108.4 76.2,106.1 79.7,108.6 	"/>
	<polygon class="st2" points="76.4,110.9 72.9,108.4 76.2,106.1 79.7,108.6 	"/>
	<polygon class="st3" points="41.9,91.2 38.4,88.7 41.7,86.3 45.2,88.8 	"/>
	<polygon class="st2" points="45.4,93.6 41.8,91.1 45.1,88.8 48.7,91.3 	"/>
	<polygon class="st2" points="45.4,93.6 41.8,91.1 45.1,88.8 48.7,91.3 	"/>
	<polygon class="st2" points="48.8,96.1 45.3,93.6 48.6,91.3 52.1,93.7 	"/>
	<polygon class="st4" points="48.8,96.1 45.3,93.6 48.6,91.3 52.1,93.7 	"/>
	<polygon class="st2" points="52.3,98.5 48.8,96.1 52,93.7 55.6,96.2 	"/>
	<polygon class="st3" points="52.3,98.5 48.8,96.1 52,93.7 55.6,96.2 	"/>
	<polygon class="st2" points="55.7,101 52.2,98.5 55.5,96.2 59,98.7 	"/>
	<polygon class="st2" points="55.7,101 52.2,98.5 55.5,96.2 59,98.7 	"/>
	<polygon class="st2" points="59.2,103.4 55.7,101 59,98.6 62.5,101.1 	"/>
	<polygon class="st4" points="59.2,103.4 55.7,101 59,98.6 62.5,101.1 	"/>
	<polygon class="st2" points="62.7,105.9 59.1,103.4 62.4,101.1 65.9,103.6 	"/>
	<polygon class="st3" points="62.7,105.9 59.1,103.4 62.4,101.1 65.9,103.6 	"/>
	<polygon class="st2" points="66.1,108.4 62.6,105.9 65.9,103.6 69.4,106 	"/>
	<polygon class="st2" points="66.1,108.4 62.6,105.9 65.9,103.6 69.4,106 	"/>
	<polygon class="st2" points="69.6,110.8 66.1,108.3 69.3,106 72.9,108.5 	"/>
	<polygon class="st4" points="69.6,110.8 66.1,108.3 69.3,106 72.9,108.5 	"/>
	<polygon class="st2" points="73,113.3 69.5,110.8 72.8,108.5 76.3,110.9 	"/>
	<polygon class="st3" points="73,113.3 69.5,110.8 72.8,108.5 76.3,110.9 	"/>
	<polygon class="st4" points="38.5,93.5 35,91.1 38.3,88.7 41.8,91.2 	"/>
	<polygon class="st2" points="42,96 38.5,93.5 41.8,91.2 45.3,93.7 	"/>
	<polygon class="st3" points="42,96 38.5,93.5 41.8,91.2 45.3,93.7 	"/>
	<polygon class="st2" points="45.5,98.4 41.9,96 45.2,93.6 48.7,96.1 	"/>
	<polygon class="st2" points="45.5,98.4 41.9,96 45.2,93.6 48.7,96.1 	"/>
	<polygon class="st2" points="48.9,100.9 45.4,98.4 48.7,96.1 52.2,98.6 	"/>
	<polygon class="st4" points="48.9,100.9 45.4,98.4 48.7,96.1 52.2,98.6 	"/>
	<polygon class="st2" points="52.4,103.4 48.8,100.9 52.1,98.6 55.7,101 	"/>
	<polygon class="st3" points="52.4,103.4 48.8,100.9 52.1,98.6 55.7,101 	"/>
	<polygon class="st2" points="55.8,105.8 52.3,103.3 55.6,101 59.1,103.5 	"/>
	<polygon class="st2" points="55.8,105.8 52.3,103.3 55.6,101 59.1,103.5 	"/>
	<polygon class="st2" points="59.3,108.3 55.8,105.8 59,103.5 62.6,105.9 	"/>
	<polygon class="st4" points="59.3,108.3 55.8,105.8 59,103.5 62.6,105.9 	"/>
	<polygon class="st2" points="62.7,110.7 59.2,108.3 62.5,105.9 66,108.4 	"/>
	<polygon class="st3" points="62.7,110.7 59.2,108.3 62.5,105.9 66,108.4 	"/>
	<polygon class="st2" points="66.2,113.2 62.7,110.7 66,108.4 69.5,110.9 	"/>
	<polygon class="st2" points="66.2,113.2 62.7,110.7 66,108.4 69.5,110.9 	"/>
	<polygon class="st2" points="69.7,115.7 66.1,113.2 69.4,110.8 72.9,113.3 	"/>
	<polygon class="st4" points="69.7,115.7 66.1,113.2 69.4,110.8 72.9,113.3 	"/>
	<polygon class="st2" points="35.2,95.9 31.6,93.4 34.9,91.1 38.5,93.6 	"/>
	<polygon class="st2" points="38.6,98.4 35.1,95.9 38.4,93.6 41.9,96 	"/>
	<polygon class="st4" points="38.6,98.4 35.1,95.9 38.4,93.6 41.9,96 	"/>
	<polygon class="st2" points="42.1,100.8 38.5,98.3 41.8,96 45.4,98.5 	"/>
	<polygon class="st3" points="42.1,100.8 38.5,98.3 41.8,96 45.4,98.5 	"/>
	<polygon class="st2" points="45.5,103.3 42,100.8 45.3,98.5 48.8,100.9 	"/>
	<polygon class="st2" points="45.5,103.3 42,100.8 45.3,98.5 48.8,100.9 	"/>
	<polygon class="st2" points="49,105.7 45.5,103.3 48.8,100.9 52.3,103.4 	"/>
	<polygon class="st4" points="49,105.7 45.5,103.3 48.8,100.9 52.3,103.4 	"/>
	<polygon class="st2" points="52.5,108.2 48.9,105.7 52.2,103.4 55.7,105.9 	"/>
	<polygon class="st3" points="52.5,108.2 48.9,105.7 52.2,103.4 55.7,105.9 	"/>
	<polygon class="st2" points="55.9,110.7 52.4,108.2 55.7,105.8 59.2,108.3 	"/>
	<polygon class="st2" points="55.9,110.7 52.4,108.2 55.7,105.8 59.2,108.3 	"/>
	<polygon class="st2" points="59.4,113.1 55.8,110.6 59.1,108.3 62.7,110.8 	"/>
	<polygon class="st4" points="59.4,113.1 55.8,110.6 59.1,108.3 62.7,110.8 	"/>
	<polygon class="st2" points="62.8,115.6 59.3,113.1 62.6,110.8 66.1,113.2 	"/>
	<polygon class="st3" points="62.8,115.6 59.3,113.1 62.6,110.8 66.1,113.2 	"/>
	<polygon class="st2" points="66.3,118 62.8,115.6 66.1,113.2 69.6,115.7 	"/>
	<polygon class="st2" points="66.3,118 62.8,115.6 66.1,113.2 69.6,115.7 	"/>
	<polygon class="st3" points="31,98.7 27.6,96.3 31.5,93.5 35.1,95.9 	"/>
	<polygon class="st2" points="35.2,100.7 31.7,98.3 35,95.9 38.5,98.4 	"/>
	<polygon class="st2" points="34.5,101.1 31,98.6 35,95.9 38.5,98.4 	"/>
	<polygon class="st2" points="38.7,103.2 35.2,100.7 38.5,98.4 42,100.9 	"/>
	<polygon class="st4" points="38,103.6 34.5,101.1 38.5,98.4 42,100.9 	"/>
	<polygon class="st3" points="41.4,106 38,103.7 41.9,100.8 45.5,103.3 	"/>
	<polygon class="st2" points="44.9,108.5 41.3,106 45.4,103.3 48.9,105.8 	"/>
	<polygon class="st4" points="48.4,110.9 44.9,108.5 48.8,105.8 52.4,108.2 	"/>
	<polygon class="st3" points="51.9,113.4 48.5,111 52.4,108.2 55.9,110.7 	"/>
	<polygon class="st3" points="62.2,120.8 58.8,118.4 62.8,115.6 66.3,118.1 	"/>
	<polygon class="st2" points="55.3,115.8 51.8,113.4 55.8,110.7 59.4,113.1 	"/>
	<polygon class="st4" points="58.9,118.3 55.4,115.8 59.3,113.1 62.8,115.6 	"/>
	<polygon class="st5" points="27.2,96.6 61.8,120.7 96.3,96.5 61.9,72.1 	"/>
	<polygon class="st6" points="61.9,121 96.5,96.6 96.5,94.5 97.9,94.3 98.6,97.3 97.4,99.2 62.8,121 	"/>
	<polygon class="st6" points="29.2,98.3 27.1,96.8 27.1,94.6 25.6,94.5 25,97.4 26.2,99.3 	"/>
	<polygon class="st7" points="65.8,75.4 58.2,75.4 57.3,69.6 66.8,69.6 	"/>
	<ellipse class="st7" cx="62" cy="75.4" rx="3.8" ry="1.2"/>
	<polygon class="st8" points="65.8,74 65.6,75.4 58.4,75.5 58.2,74.3 61.8,73.4 	"/>
	<path class="st7" d="M67.6,68.4c0,1.3-2.5,2.3-5.6,2.3s-5.6-1-5.6-2.3v-1.6c1.9-0.4,3.8-0.6,5.7-0.7c1.9,0.1,3.8,0.3,5.6,0.7
		L67.6,68.4z"/>
	<ellipse class="st7" cx="62" cy="66.8" rx="5.6" ry="2.3"/>
	<ellipse class="st9" cx="62" cy="66.8" rx="4.5" ry="1.4"/>
	<line class="st1" x1="61.8" y1="62.2" x2="61.8" y2="66.9"/>
	<path class="st10" d="M62.3,58.8c0.9-0.7,1.3-1.8,1.3-2.9c-0.1-1.6-2.6-4.3-2.6-4.3s-0.4,3.3-1.4,4.5S59.7,61.4,62.3,58.8z"/>
	<path class="st10" d="M62.9,62.2c1.1,0.1,2.2-0.4,2.9-1.3c1-1.2,1-4.9,1-4.9s-2.5,2.2-4.1,2.3S59.3,62.3,62.9,62.2z"/>
	<path class="st10" d="M60.2,62.4c-1.1,0.1-2.2-0.4-3-1.3c-1-1.2-1-4.9-1-4.9s2.5,2.2,4.1,2.3S63.8,62.6,60.2,62.4z"/>
	<polygon class="st0" points="86.6,63 70.3,51.8 70.2,26.2 86.6,37.5 	"/>
	<polygon class="st0" points="87.8,65.7 69.2,52.5 69.2,50.6 87.8,63.7 	"/>
	<polygon class="st0" points="87.8,38.3 69.2,25.6 69.2,23.6 87.8,36.3 	"/>
	<polygon class="st11" points="85.3,60.1 71.7,50.4 71.7,29 85.3,38.3 	"/>
	<line class="st1" x1="71.7" y1="40" x2="85.3" y2="49.3"/>
	<line class="st1" x1="78.2" y1="33.5" x2="78.2" y2="55.1"/>
</g>
<line class="st1" x1="64.7" y1="76.3" x2="31.3" y2="99.6"/>
<line class="st1" x1="70.3" y1="78.3" x2="35.7" y2="102.6"/>
<line class="st1" x1="75" y1="81.4" x2="40.4" y2="105.6"/>
<line class="st1" x1="79.1" y1="84.4" x2="44.5" y2="108.7"/>
<line class="st1" x1="83.5" y1="87.4" x2="48.9" y2="111.7"/>
<line class="st1" x1="87.8" y1="90.5" x2="53.2" y2="114.7"/>
<line class="st1" x1="92" y1="93.5" x2="57.4" y2="117.7"/>
<line class="st1" x1="44.2" y1="84.6" x2="48.3" y2="87.6"/>
<line class="st1" x1="40.2" y1="93.7" x2="44.3" y2="96.7"/>
<line class="st1" x1="57.3" y1="81.4" x2="61.5" y2="84.4"/>
<line class="st1" x1="52.9" y1="90.8" x2="57.2" y2="93.9"/>
<line class="st1" x1="48.8" y1="99.9" x2="52.8" y2="102.8"/>
<line class="st1" x1="66" y1="87.6" x2="70.3" y2="90.7"/>
<line class="st1" x1="61.3" y1="97" x2="65.6" y2="100.1"/>
<line class="st1" x1="57.1" y1="105.7" x2="61.4" y2="108.8"/>
<line class="st1" x1="74.6" y1="93.6" x2="78.8" y2="96.8"/>
<line class="st1" x1="69.9" y1="103" x2="74.2" y2="106.1"/>
<line class="st1" x1="65.5" y1="111.8" x2="69.8" y2="114.9"/>
<line class="st1" x1="83.1" y1="99.7" x2="87.4" y2="102.8"/>
</svg>
